<?xml version="1.0" encoding="utf-8"?>
<!-- Generator: Adobe Illustrator 13.0.0, SVG Export Plug-In . SVG Version: 6.00 Build 14948)  -->
<!DOCTYPE svg PUBLIC "-//W3C//DTD SVG 1.1//EN" "http://www.w3.org/Graphics/SVG/1.1/DTD/svg11.dtd">
<svg version="1.1" id="レイヤー_1" xmlns="http://www.w3.org/2000/svg" xmlns:xlink="http://www.w3.org/1999/xlink" x="0px"
	 y="0px" width="22.4px" height="22.4px" viewBox="0 0 22.4 22.4" style="enable-background:new 0 0 22.4 22.4;"
	 xml:space="preserve">
<g>
	<g>
		<path style="fill:#BA132F;" d="M10.2,22.3c-3.2-0.2-6-3.2-6-7.3c0-3.5,1.3-6.8,5.1-7.8c3.2-0.8,10,0.6,9.7,7.4
			C18.7,22,13.4,22.5,10.2,22.3z"/>
		<g>
			<path style="fill:none;" d="M10.2,22.3c-3.2-0.2-6-3.2-6-7.3c0-3.5,1.3-6.8,5.1-7.8c3.2-0.8,10,0.6,9.7,7.4
				C18.7,22,13.4,22.5,10.2,22.3z"/>
			<path style="fill:#0A0C0E;" d="M10.2,22.2c-5.7-0.6-7-7.5-4.8-11.9c1.8-3.5,6.5-3.6,9.7-2.2c4.1,1.9,4.5,7.2,2.6,10.8
				C16.4,21.7,13.1,22.3,10.2,22.2c-0.2,0-0.2,0.2,0,0.2c3.6,0.2,6.8-0.9,8.3-4.4c1.7-4.2,0.1-8.8-4.1-10.5C10.6,6,6.3,7.4,4.7,11.3
				C2.8,15.8,5,21.8,10.2,22.4C10.4,22.4,10.4,22.2,10.2,22.2z"/>
		</g>
	</g>
	<g>
		<path style="fill:#FFC822;" d="M9.7,12.7c-0.7-0.4-1.4-0.8-2-1.3c-0.6-0.6-1-1.3-1.8-1.6c-0.4,0.8,0.1,2,0.8,2.5
			c1,0.8,1.8,0.8,2.9,0.3"/>
		<g>
			<path style="fill:none;" d="M9.7,12.7c-0.7-0.4-1.4-0.8-2-1.3c-0.6-0.6-1-1.3-1.8-1.6c-0.4,0.8,0.1,2,0.8,2.5
				c1,0.8,1.8,0.8,2.9,0.3"/>
			<path style="fill:#0A0C0E;" d="M9.8,12.6c-0.9-0.5-1.7-1-2.4-1.8C7,10.4,6.6,9.9,6,9.7c0,0-0.1,0-0.1,0.1c-0.4,0.9,0,1.9,0.6,2.6
				c0.9,0.9,2,1,3.1,0.5c0.1-0.1,0.1-0.3-0.1-0.2c-0.8,0.3-1.6,0.4-2.4,0c-0.4-0.2-0.7-0.6-1-1c-0.1-0.1-0.6-1.7,0.1-1.4
				c0.6,0.3,1,0.9,1.4,1.4c0.6,0.6,1.3,1,2,1.4C9.8,12.9,9.9,12.7,9.8,12.6L9.8,12.6z"/>
		</g>
	</g>
	<g>
		<path style="fill:#0A0C0E;" d="M6.1,19.4c-0.2-0.5,0.1-1.4,0.2-1.9c0.1-0.7,0.4-1.2,0.8-1.7c0.5-0.8,0.8-1.7,1.8-1.1
			c0.7,0.4,1,1.5,1.7,1.7c0.7,0.3,1.5-1.4,2-1.8c3.8-2.5,4.5,6.1,2.1,6.1c-1.8,0-2.1-2.3-3.8-2.5c-1.4-0.1-2.4,1.7-3.5,2.2
			c-1.1,0.6-1.2-0.4-1.5-1.2"/>
		<g>
			<path style="fill:none;" d="M6.1,19.4c-0.2-0.5,0.1-1.4,0.2-1.9c0.1-0.7,0.4-1.2,0.8-1.7c0.5-0.8,0.8-1.7,1.8-1.1
				c0.7,0.4,1,1.5,1.7,1.7c0.7,0.3,1.5-1.4,2-1.8c3.8-2.5,4.5,6.1,2.1,6.1c-1.8,0-2.1-2.3-3.8-2.5c-1.4-0.1-2.4,1.7-3.5,2.2
				c-1.1,0.6-1.2-0.4-1.5-1.2"/>
			<path style="fill:#0A0C0E;" d="M6.2,19.4C6,17.8,7.7,13,9.9,16c0.4,0.5,0.8,0.7,1.3,0.4c1.2-0.6,1.3-2.4,3.1-2
				c1.1,0.2,1.5,1.7,1.6,2.6c0.2,1,0.1,2.2-0.3,3.1c-0.9,1.8-2.8-0.8-3.6-1.4c-0.5-0.4-1.3-0.6-1.9-0.3c-1.1,0.6-3.3,3.3-4,0.9
				c0-0.2-0.3-0.1-0.2,0.1c0.3,1.2,0.7,1.9,2,1.1c1.3-0.8,2.4-3,4.3-1.4c0.7,0.6,1.1,1.3,1.9,1.7c2.2,1.2,2.3-2.6,2.2-3.8
				c-0.3-2.1-2.3-4-4.1-1.8c-0.3,0.3-0.5,0.6-0.8,1c-0.7,0.8-1.7-0.7-2.1-1.2c-0.2-0.3-0.9-0.6-1.3-0.4c-1.4,0.9-2.3,3.4-2.1,4.9
				C6,19.6,6.2,19.6,6.2,19.4L6.2,19.4z"/>
		</g>
	</g>
	<g>
		<path style="fill:#FFC822;" d="M11,12.4c0.5-0.6,1.1-1.1,1.6-1.6c0.5-0.5,1-1.1,1.7-1.3c0.4,0.6,0.1,2.4-0.2,3
			C13.6,13.6,11.7,12.8,11,12.4"/>
		<g>
			<path style="fill:none;" d="M11,12.4c0.5-0.6,1.1-1.1,1.6-1.6c0.5-0.5,1-1.1,1.7-1.3c0.4,0.6,0.1,2.4-0.2,3
				C13.6,13.6,11.7,12.8,11,12.4"/>
			<path style="fill:#0A0C0E;" d="M11.1,12.5c0.6-0.8,1.4-1.4,2.1-2.1c0.2-0.2,0.4-0.4,0.6-0.5c0.2-0.2,0.4-0.4,0.5-0.1
				c0.1,0.4,0.1,0.8,0,1.2c-0.1,0.8-0.3,1.9-1.2,2c-0.7,0.1-1.5-0.3-2.1-0.6c-0.1-0.1-0.3,0.1-0.1,0.2c0.9,0.5,2.3,1.1,3.2,0.3
				c0.4-0.4,0.5-1.1,0.5-1.6c0.1-0.5,0.2-1.3-0.2-1.8c0-0.1-0.1-0.1-0.2,0c-0.6,0.3-1.1,0.7-1.5,1.2c-0.6,0.6-1.3,1.1-1.8,1.7
				C10.8,12.4,11,12.6,11.1,12.5L11.1,12.5z"/>
		</g>
	</g>
	<g>
		<g>
			<path style="fill:none;" d="M16.6,7.9c0.4-0.5,0.7-0.9,1-1.3c-0.5-0.4-1-2.1,0-2.2c0.8-0.1,1.5,0.7,1.2,1.5c1-0.5,1.2,0.2,0.9,1
				c0.3-0.2,1-0.2,1.3,0c0.3,0.4-0.1,1-0.4,1.2c-0.6,0.3-0.7-0.4-1.1-0.4c-0.1,0-0.7,0.6-0.8,0.7c-0.2,0.1-0.3,0.3-0.4,0.4"/>
			<path style="fill:#0A0C0E;" d="M16.7,7.9c0.3-0.4,0.7-0.9,1-1.2c0,0,0-0.1,0-0.2c-0.3-0.3-0.4-0.7-0.5-1.1
				c-0.3-1.3,2-1.1,1.5,0.4c0,0.1,0.1,0.2,0.2,0.2c0.3-0.2,0.6-0.1,0.9,0.3c0,0.2-0.1,0.4-0.2,0.6c0,0.1,0.1,0.2,0.2,0.1
				c0.3-0.2,0.6-0.2,0.9-0.1c0.7,0.1,0,1.7-0.8,0.9c-0.1-0.1-0.2-0.2-0.4-0.2c-0.4,0-1.1,0.8-1.3,1.1c-0.1,0.1,0.1,0.3,0.2,0.2
				c0.2-0.2,0.5-0.5,0.7-0.7c0.4-0.4,0.6-0.1,1,0.1c0.3,0.2,0.8-0.1,0.9-0.3c0.7-1-0.4-1.7-1.3-1.1c0.1,0,0.1,0.1,0.2,0.1
				c0.4-0.9,0-1.5-1-1.1c0.1,0.1,0.1,0.1,0.2,0.2c0.2-0.5,0.1-1.1-0.4-1.4c-0.4-0.2-1.1-0.4-1.4,0c-0.3,0.4-0.2,1,0,1.5
				c0.1,0.2,0.2,0.4,0.4,0.6c0,0-0.9,1.1-1,1.2C16.4,7.9,16.6,8,16.7,7.9L16.7,7.9z"/>
		</g>
	</g>
	<g>
		<g>
			<path style="fill:none;" d="M4.9,9C4.5,8.6,4.1,8.3,3.7,7.9C3.2,8.4,1.5,8.8,1.4,7.8C1.4,7,2.3,6.3,3,6.7c-0.4-1,0.3-1.2,1.1-0.8
				C3.9,5.7,3.9,4.9,4.2,4.6c0.4-0.3,1,0.1,1.2,0.5c0.3,0.6-0.5,0.6-0.5,1c0,0.1,0.5,0.7,0.6,0.9c0.1,0.2,0.3,0.3,0.4,0.5"/>
			<path style="fill:#0A0C0E;" d="M5,8.9C4.6,8.6,4.2,8.2,3.8,7.8c0,0-0.1,0-0.2,0C3.3,8.1,3,8.2,2.6,8.3C2.4,8.3,2,8.3,1.8,8.2
				c0-0.3-0.1-0.6-0.1-1C2,6.8,2.4,6.6,3,6.9c0.1,0,0.2,0,0.2-0.1C2.9,6.1,3.5,5.8,4,6.1c0.1,0,0.2-0.1,0.2-0.2
				C3.9,5.3,4.1,5,4.9,4.8c0.9,0.5,0.3,0.8,0.1,1C4.9,5.9,4.8,6,4.8,6.2c0,0.4,0.8,1.1,1.1,1.4C6,7.7,6.1,7.5,6,7.4
				C5.8,7.1,5.6,6.9,5.3,6.6c-0.4-0.5,0-0.6,0.2-0.9c0.1-0.3,0-0.7-0.3-1C4.2,4,3.5,5,4,6C4.1,6,4.1,5.9,4.2,5.8
				C3.3,5.4,2.5,5.7,2.9,6.8C3,6.7,3,6.7,3.1,6.6c-1-0.4-2.4,0.6-1.6,1.7c0.3,0.4,1,0.2,1.4,0.2c0.3-0.1,0.5-0.2,0.8-0.4
				c0.1,0,1.1,0.9,1.2,1C5,9.2,5.2,9,5,8.9L5,8.9z"/>
		</g>
	</g>
</g>
</svg>
