<?xml version="1.0" encoding="utf-8"?>
<!-- Generator: Adobe Illustrator 13.0.0, SVG Export Plug-In . SVG Version: 6.00 Build 14948)  -->
<!DOCTYPE svg PUBLIC "-//W3C//DTD SVG 1.1//EN" "http://www.w3.org/Graphics/SVG/1.1/DTD/svg11.dtd">
<svg version="1.1" id="レイヤー_1" xmlns="http://www.w3.org/2000/svg" xmlns:xlink="http://www.w3.org/1999/xlink" x="0px"
	 y="0px" width="220.4px" height="220.4px" viewBox="0 0 22.4 22.4" style="enable-background:new 0 0 22.4 22.4;"
	 xml:space="preserve">
<g>
	<g>
		<path style="fill:#020202;" d="M10.1,22.4c-3.1-0.1-6-2.9-6.2-6.9c-0.1-3.5,1-6.7,4.7-7.8c3.1-0.9,9.8,0.2,9.8,6.9
			C18.4,21.8,13.2,22.5,10.1,22.4z"/>
	</g>
	<g>
		<path style="fill:#F8F5E3;" d="M10.1,14c0.5-0.3,0.6-0.7,0.7-1.3c0.3-1.8-1.9-2.8-3.1-1.4c-0.5,0.6-0.8,1.4-0.5,2.2
			c0.3,0.8,1.3,0.8,1.8,0.8C9.5,14.3,9.7,14.2,10.1,14z"/>
		<g>
			<path style="fill:none;" d="M10.1,14c0.5-0.3,0.6-0.7,0.7-1.3c0.3-1.8-1.9-2.8-3.1-1.4c-0.5,0.6-0.8,1.4-0.5,2.2
				c0.3,0.8,1.3,0.8,1.8,0.8C9.5,14.3,9.7,14.2,10.1,14z"/>
			<path style="fill:#0A0C0E;" d="M10.1,14.1c1.9-1.2,0.2-4.5-1.9-3.4c-1,0.5-1.7,2.1-1,3.1C7.8,14.6,9.4,14.5,10.1,14.1
				c0.1-0.1,0-0.3-0.1-0.2c-0.7,0.3-1.5,0.3-2.2,0c-1.3-0.5-0.4-2.4,0.4-2.9c0.7-0.4,1.6-0.2,2.1,0.4c0.6,0.7,0.4,2.1-0.3,2.5
				C9.9,14,10,14.2,10.1,14.1z"/>
		</g>
	</g>
	<g>
		<path style="fill:#0B0001;" d="M9.6,12.3c0.5,0.2,0.7-1,0.1-1.1C9.1,11.1,9.1,12.2,9.6,12.3z"/>
		<g>
			<path style="fill:none;" d="M9.6,12.3c0.5,0.2,0.7-1,0.1-1.1C9.1,11.1,9.1,12.2,9.6,12.3z"/>
			<path style="fill:#0A0C0E;" d="M9.6,12.5c0.7,0.1,0.8-1.1,0.2-1.3C9,10.8,8.9,12.2,9.6,12.5c0.1,0.1,0.2-0.2,0.1-0.2
				c-0.3-0.1-0.5-0.8,0-0.9c0.5-0.1,0.5,1,0,0.9C9.5,12.2,9.4,12.4,9.6,12.5z"/>
		</g>
	</g>
	<g>
		<path style="fill:#F8F5E3;" d="M13.7,14.2c-1.5-0.1-1.8-3.1-0.3-3.4c1.5-0.3,2.5,0.6,2.5,2.1C15.8,14.3,13.7,14.2,13.7,14.2z"/>
		<g>
			<path style="fill:none;" d="M13.7,14.2c-1.5-0.1-1.8-3.1-0.3-3.4c1.5-0.3,2.5,0.6,2.5,2.1C15.8,14.3,13.7,14.2,13.7,14.2z"/>
			<path style="fill:#0A0C0E;" d="M13.7,14.1c-0.9-0.1-1.2-1.1-1.2-1.9c0-1.2,1.2-1.7,2.2-1.2c0.9,0.4,1.4,2.1,0.5,2.7
				C14.8,14,14.2,14.1,13.7,14.1c-0.2,0-0.2,0.2,0,0.2c0.8,0,1.7-0.2,2.1-0.9c0.6-1-0.3-2.5-1.3-2.8c-1-0.4-2.1,0.2-2.3,1.3
				c-0.1,1,0.3,2.2,1.4,2.3C13.8,14.4,13.9,14.1,13.7,14.1z"/>
		</g>
	</g>
	<g>
		<path style="fill:#0B0001;" d="M14.2,11c-0.4-0.1-0.6,0.6-0.1,0.8C14.7,12.1,14.7,11.1,14.2,11z"/>
		<g>
			<path style="fill:none;" d="M14.2,11c-0.4-0.1-0.6,0.6-0.1,0.8C14.7,12.1,14.7,11.1,14.2,11z"/>
			<path style="fill:#0A0C0E;" d="M14.2,10.9c-0.7,0-0.6,1,0.1,1.1C14.9,12,14.8,11,14.2,10.9c-0.1,0-0.2,0.2,0,0.2
				c0.2,0,0.2,0.2,0.2,0.3c0,0.6-1-0.4-0.2-0.3C14.4,11.2,14.4,10.9,14.2,10.9z"/>
		</g>
	</g>
	<g>
		<path style="fill:#F8F5E3;" d="M10.1,19.8c0.8,0.1,1.7-0.1,2.5-0.3"/>
	</g>
	<g>
		<path style="fill:#FFFFFF;" d="M14.3,7.5c0.3,0.1,0.5-0.8,0.1-0.7C14,6.9,14,7.4,14.3,7.5z"/>
		<g>
			<path style="fill:none;" d="M14.3,7.5c0.3,0.1,0.5-0.8,0.1-0.7C14,6.9,14,7.4,14.3,7.5z"/>
			<path style="fill:#0A0C0E;" d="M14.3,7.6c0.4,0,0.6-0.7,0.3-0.9C14.1,6.4,13.7,7.4,14.3,7.6c0.1,0,0.2-0.2,0.1-0.2
				c-0.4-0.2,0.2-0.7,0.1-0.3c0,0.1-0.1,0.3-0.2,0.3C14.1,7.4,14.1,7.6,14.3,7.6z"/>
		</g>
	</g>
	<g>
		<path style="fill:#FFFFFF;" d="M14.8,6.3c-0.5-0.1-0.6-0.8-0.1-0.9C15.4,5.3,15.3,6.4,14.8,6.3z"/>
		<g>
			<path style="fill:none;" d="M14.8,6.3c-0.5-0.1-0.6-0.8-0.1-0.9C15.4,5.3,15.3,6.4,14.8,6.3z"/>
			<path style="fill:#0A0C0E;" d="M14.9,6.2c-0.7-0.1-0.1-0.9,0.2-0.5C15.2,5.8,15.1,6.2,14.9,6.2c-0.2,0-0.2,0.2,0,0.2
				c0.6,0,0.7-0.9,0.2-1.1c-0.7-0.2-0.9,0.9-0.2,1.1C14.9,6.5,15,6.2,14.9,6.2z"/>
		</g>
	</g>
	<g>
		<path style="fill:#FFFFFF;" d="M14.2,3.1c0.2-0.8,1.3-1,2-0.7c0.6,0.2,1.6,1,1.6,1.6c0.1,1-1.6,1.1-2.3,1
			C14.8,4.8,13.8,4.2,14.2,3.1z"/>
		<g>
			<path style="fill:none;" d="M14.2,3.1c0.2-0.8,1.3-1,2-0.7c0.6,0.2,1.6,1,1.6,1.6c0.1,1-1.6,1.1-2.3,1
				C14.8,4.8,13.8,4.2,14.2,3.1z"/>
			<path style="fill:#0A0C0E;" d="M14.3,3.1c0.3-0.9,1.5-0.9,2.2-0.5c0.6,0.3,1.7,1.3,0.9,1.9C16.2,5.4,13.9,4.7,14.3,3.1
				c0-0.2-0.2-0.2-0.2-0.1c-0.2,1.1,0.5,1.8,1.5,2c0.6,0.1,1.9,0.1,2.3-0.6c0.5-0.9-0.6-1.8-1.3-2.2C15.7,1.9,14.4,2.1,14,3
				C14,3.2,14.2,3.3,14.3,3.1z"/>
		</g>
	</g>
</g>
</svg>
