<?xml version="1.0" encoding="utf-8"?>
<!-- Generator: Adobe Illustrator 13.0.0, SVG Export Plug-In . SVG Version: 6.00 Build 14948)  -->
<!DOCTYPE svg PUBLIC "-//W3C//DTD SVG 1.1//EN" "http://www.w3.org/Graphics/SVG/1.1/DTD/svg11.dtd">
<svg version="1.1" id="レイヤー_1" xmlns="http://www.w3.org/2000/svg" xmlns:xlink="http://www.w3.org/1999/xlink" x="0px"
	 y="0px" width="220.4px" height="220.4px" viewBox="0 0 22.4 22.4" style="enable-background:new 0 0 22.4 22.4;"
	 xml:space="preserve">
<g>
	<g>
		<path style="fill:#020202;" d="M12.3,22.4c3.1-0.1,6-2.9,6.2-6.9c0.1-3.5-1-6.7-4.7-7.8C10.6,6.8,3.9,7.9,4,14.6
			C4,21.8,9.2,22.5,12.3,22.4z"/>
	</g>
	<g>
		<path style="fill:#F8F5E3;" d="M12.4,14c-0.5-0.3-0.6-0.7-0.7-1.3c-0.3-1.8,1.9-2.8,3.1-1.4c0.5,0.6,0.8,1.4,0.5,2.2
			c-0.3,0.8-1.3,0.8-1.8,0.8C13,14.3,12.8,14.2,12.4,14z"/>
		<g>
			<path style="fill:none;" d="M12.4,14c-0.5-0.3-0.6-0.7-0.7-1.3c-0.3-1.8,1.9-2.8,3.1-1.4c0.5,0.6,0.8,1.4,0.5,2.2
				c-0.3,0.8-1.3,0.8-1.8,0.8C13,14.3,12.8,14.2,12.4,14z"/>
			<path style="fill:#0A0C0E;" d="M12.4,13.9c-0.7-0.4-0.9-1.6-0.5-2.3c0.4-0.7,1.3-0.9,2-0.7c1.1,0.3,1.8,2.2,0.8,3
				C14.2,14.3,13.1,14.2,12.4,13.9c-0.1-0.1-0.3,0.1-0.1,0.2c0.8,0.4,2.1,0.4,2.8-0.3c0.9-0.9,0-2.5-0.8-3.1c-0.8-0.5-2-0.2-2.5,0.6
				c-0.5,0.8-0.4,2.2,0.5,2.8C12.5,14.2,12.6,14,12.4,13.9z"/>
		</g>
	</g>
	<g>
		<path style="fill:#0B0001;" d="M12.8,12.3c-0.5,0.2-0.7-1-0.1-1.1C13.4,11.1,13.3,12.2,12.8,12.3z"/>
		<g>
			<path style="fill:none;" d="M12.8,12.3c-0.5,0.2-0.7-1-0.1-1.1C13.4,11.1,13.3,12.2,12.8,12.3z"/>
			<path style="fill:#0A0C0E;" d="M12.8,12.2c-0.4,0.1-0.3-0.6-0.2-0.8c0.3-0.3,0.5,0.1,0.5,0.3C13.1,11.9,13,12.2,12.8,12.2
				c-0.1,0.1-0.1,0.3,0.1,0.2c0.6-0.2,0.6-1.6-0.2-1.4c-0.6,0.2-0.6,1.5,0.2,1.4C13,12.4,12.9,12.2,12.8,12.2z"/>
		</g>
	</g>
	<g>
		<path style="fill:#F8F5E3;" d="M8.8,14.2c1.5-0.1,1.8-3.1,0.3-3.4c-1.5-0.3-2.5,0.6-2.5,2.1C6.6,14.3,8.8,14.2,8.8,14.2z"/>
		<g>
			<path style="fill:none;" d="M8.8,14.2c1.5-0.1,1.8-3.1,0.3-3.4c-1.5-0.3-2.5,0.6-2.5,2.1C6.6,14.3,8.8,14.2,8.8,14.2z"/>
			<path style="fill:#0A0C0E;" d="M8.8,14.3c1.1-0.2,1.5-1.4,1.4-2.3C10,10.8,9,10.4,7.9,10.7c-1.1,0.3-1.7,1.8-1.3,2.8
				C7,14.2,8.1,14.4,8.8,14.3c0.1,0,0.1-0.2,0-0.2c-0.5,0-1-0.1-1.4-0.3c-1.1-0.6-0.4-2.3,0.4-2.8c1-0.6,2.1,0,2.2,1.1
				c0.1,0.8-0.3,1.9-1.2,2C8.6,14.1,8.6,14.4,8.8,14.3z"/>
		</g>
	</g>
	<g>
		<path style="fill:#0B0001;" d="M8.2,11c0.4-0.1,0.6,0.6,0.1,0.8C7.8,12.1,7.7,11.1,8.2,11z"/>
		<g>
			<path style="fill:none;" d="M8.2,11c0.4-0.1,0.6,0.6,0.1,0.8C7.8,12.1,7.7,11.1,8.2,11z"/>
			<path style="fill:#0A0C0E;" d="M8.2,11.2C8.9,11.1,8,12,8,11.5C8,11.3,8.1,11.2,8.2,11.2c0.2,0,0.1-0.3,0-0.2
				C7.7,11,7.6,12,8.1,12c0.6-0.1,0.8-1.1,0.1-1.1C8,10.9,8,11.2,8.2,11.2z"/>
		</g>
	</g>
	<g>
		<path style="fill:#F8F5E3;" d="M12.4,19.8c-0.8,0.1-1.7-0.1-2.5-0.3"/>
	</g>
	<g>
		<path style="fill:#FFFFFF;" d="M8.1,7.5C7.8,7.6,7.6,6.7,8.1,6.8C8.4,6.9,8.4,7.4,8.1,7.5z"/>
		<g>
			<path style="fill:none;" d="M8.1,7.5C7.8,7.6,7.6,6.7,8.1,6.8C8.4,6.9,8.4,7.4,8.1,7.5z"/>
			<path style="fill:#0A0C0E;" d="M8.1,7.4C8,7.4,8,7.2,7.9,7.1C7.8,6.8,8.5,7.2,8.1,7.4C7.9,7.5,8.1,7.7,8.2,7.6
				c0.5-0.2,0.3-1.1-0.3-0.9c-0.4,0.1-0.2,1,0.2,1C8.3,7.6,8.3,7.4,8.1,7.4z"/>
		</g>
	</g>
	<g>
		<path style="fill:#FFFFFF;" d="M7.6,6.3c0.5-0.1,0.6-0.8,0.1-0.9C7,5.3,7.1,6.4,7.6,6.3z"/>
		<g>
			<path style="fill:none;" d="M7.6,6.3c0.5-0.1,0.6-0.8,0.1-0.9C7,5.3,7.1,6.4,7.6,6.3z"/>
			<path style="fill:#0A0C0E;" d="M7.7,6.4c0.7-0.2,0.5-1.3-0.2-1.1C6.9,5.5,7,6.4,7.7,6.4c0.1,0,0.1-0.2,0-0.2
				c-0.3,0-0.3-0.3-0.2-0.5C7.5,5.3,8.3,6,7.6,6.2C7.4,6.2,7.5,6.5,7.7,6.4z"/>
		</g>
	</g>
	<g>
		<path style="fill:#FFFFFF;" d="M8.3,3.1c-0.2-0.8-1.3-1-2-0.7c-0.6,0.2-1.6,1-1.6,1.6C4.5,5,6.2,5.1,6.9,5S8.6,4.2,8.3,3.1z"/>
		<g>
			<path style="fill:none;" d="M8.3,3.1c-0.2-0.8-1.3-1-2-0.7c-0.6,0.2-1.6,1-1.6,1.6C4.5,5,6.2,5.1,6.9,5S8.6,4.2,8.3,3.1z"/>
			<path style="fill:#0A0C0E;" d="M8.4,3C8.1,2.2,6.9,1.9,6.1,2.3c-0.6,0.3-2,1.2-1.5,2.1C5,5.1,6.1,5.2,6.8,5.1
				C7.9,4.9,8.7,4.1,8.4,3c0-0.2-0.3-0.1-0.2,0.1c0.4,1.7-1.8,2.1-3,1.5C4.2,4.2,5.3,3.1,5.8,2.7c0.7-0.5,2-0.6,2.4,0.4
				C8.2,3.3,8.5,3.2,8.4,3z"/>
		</g>
	</g>
</g>
</svg>
