<?xml version="1.0" encoding="utf-8"?>
<!-- Generator: Adobe Illustrator 13.0.0, SVG Export Plug-In . SVG Version: 6.00 Build 14948)  -->
<!DOCTYPE svg PUBLIC "-//W3C//DTD SVG 1.1//EN" "http://www.w3.org/Graphics/SVG/1.1/DTD/svg11.dtd">
<svg version="1.1" id="レイヤー_1" xmlns="http://www.w3.org/2000/svg" xmlns:xlink="http://www.w3.org/1999/xlink" x="0px"
	 y="0px" width="220.4px" height="220.4px" viewBox="0 0 22.4 22.4" style="enable-background:new 0 0 22.4 22.4;"
	 xml:space="preserve">
<g>
	<g>
		<path style="fill:#1BAFB7;" d="M12.5,22.3c3.2-0.1,6.1-3.1,6.1-7.1c0.1-3.5-1.2-6.8-4.9-7.9c-3.2-0.9-10,0.4-9.8,7.2
			C4,21.8,9.3,22.4,12.5,22.3z"/>
		<g>
			<path style="fill:none;" d="M12.5,22.3c3.2-0.1,6.1-3.1,6.1-7.1c0.1-3.5-1.2-6.8-4.9-7.9c-3.2-0.9-10,0.4-9.8,7.2
				C4,21.8,9.3,22.4,12.5,22.3z"/>
			<path style="fill:#0A0C0E;" d="M12.5,22.4c5.3-0.5,7-6,5.9-10.5c-1-4.3-5.5-5.7-9.3-4.7c-4.7,1.2-5.9,5.7-4.9,10
				C5,21.3,8.8,22.5,12.5,22.4c0.2,0,0.2-0.3,0-0.2c-2.8,0.1-5.6-0.5-7.3-3c-2.4-3.5-1.4-8.8,2.2-11c3.1-1.9,7.6-1.3,9.8,1.6
				c3.2,4.2,0.9,11.8-4.7,12.3C12.3,22.2,12.3,22.5,12.5,22.4z"/>
		</g>
	</g>
	<g>
		<g>
			<path style="fill:none;" d="M9.8,10.2c-0.6,1.6-2.7-1.3-3.3-1.8"/>
			<path style="fill:#0A0C0E;" d="M9.7,10.1c-0.6,1.4-2.6-1.4-3.1-1.8C6.4,8.2,6.3,8.4,6.4,8.5C7,9,9.1,12,9.9,10.2
				C9.9,10.1,9.7,10,9.7,10.1L9.7,10.1z"/>
		</g>
	</g>
	<g>
		<g>
			<path style="fill:none;" d="M12.4,10.4c1,1.3,1.7,1.2,2.9,0.3c0.8-0.6,2-1.4,2.4-2.2"/>
			<path style="fill:#0A0C0E;" d="M12.3,10.5c0.6,0.8,1.3,1.3,2.3,0.8c0.6-0.3,1.2-0.8,1.7-1.2c0.6-0.4,1.1-0.9,1.5-1.5
				c0.1-0.1-0.1-0.3-0.2-0.1c-0.5,0.8-1.4,1.4-2.2,2c-0.3,0.2-0.6,0.5-1,0.7c-0.8,0.5-1.5-0.2-2-0.8C12.4,10.2,12.2,10.3,12.3,10.5
				L12.3,10.5z"/>
		</g>
	</g>
	<g>
		<path style="fill:#E8E4D7;" d="M5.8,13.9c0.2-2.9,5.5-1.3,4.5,0C9.6,14.8,5.6,14.5,5.8,13.9z"/>
		<g>
			<path style="fill:none;" d="M5.8,13.9c0.2-2.9,5.5-1.3,4.5,0C9.6,14.8,5.6,14.5,5.8,13.9z"/>
			<path style="fill:#0A0C0E;" d="M5.9,13.9c0.2-2,3.1-1.8,4.2-0.8c0.9,0.8-1.1,1.1-1.6,1.2C8.2,14.4,5.8,14.4,5.9,13.9
				c0-0.2-0.2-0.2-0.2,0c-0.1,0.9,5.4,1.2,4.8-0.6c-0.3-0.9-1.8-1.1-2.5-1.2c-1.2-0.1-2.2,0.5-2.3,1.7C5.6,14.1,5.9,14.1,5.9,13.9z"
				/>
		</g>
	</g>
	<g>
		<path style="fill:#E8E4D7;" d="M12.6,12.9c1.1-1.9,5.1-0.4,4.1,1.5C15.5,15,11.3,14.9,12.6,12.9z"/>
		<g>
			<path style="fill:none;" d="M12.6,12.9c1.1-1.9,5.1-0.4,4.1,1.5C15.5,15,11.3,14.9,12.6,12.9z"/>
			<path style="fill:#0A0C0E;" d="M12.7,13c0.6-0.9,1.7-0.9,2.6-0.6c0.4,0.1,0.8,0.4,1.1,0.7c0.3,0.3,0.6,1.2,0,1.4
				C15.4,14.7,11.6,14.8,12.7,13c0.1-0.1-0.1-0.3-0.2-0.1c-0.6,1,0,1.6,1,1.8c0.6,0.2,1.2,0.2,1.8,0.1c0.4,0,1.2,0,1.4-0.3
				c0.3-0.3,0.2-0.9,0.1-1.2c-0.2-0.6-0.7-0.9-1.3-1.1c-1.1-0.5-2.4-0.3-3.1,0.7C12.4,13,12.6,13.1,12.7,13z"/>
		</g>
	</g>
	<g>
		<path style="fill:#E8E4D7;" d="M15.7,19.3c-0.1,0.4-0.5,1.1-0.8,1.2c-1.6,0.5-1.7-0.8-2.8-1.6c-1.2-0.9-1.4,0.8-2.3,1.4
			c-1.3,0.8-3.7-0.4-3.5-2c0.2-1.4,1.7-1.6,2.7-0.9c0.5,0.3,0.9,0.9,1.5,1.1c0.6,0.2,1-0.3,1.5-0.7c0.8-0.6,1.8-1.4,2.8-0.6
			C15.8,17.9,15.7,19.3,15.7,19.3z"/>
		<g>
			<path style="fill:none;" d="M15.7,19.3c-0.1,0.4-0.5,1.1-0.8,1.2c-1.6,0.5-1.7-0.8-2.8-1.6c-1.2-0.9-1.4,0.8-2.3,1.4
				c-1.3,0.8-3.7-0.4-3.5-2c0.2-1.4,1.7-1.6,2.7-0.9c0.5,0.3,0.9,0.9,1.5,1.1c0.6,0.2,1-0.3,1.5-0.7c0.8-0.6,1.8-1.4,2.8-0.6
				C15.8,17.9,15.7,19.3,15.7,19.3z"/>
			<path style="fill:#0A0C0E;" d="M15.6,19.3c-1,2.8-2.7,0.1-3.4-0.5c-0.2-0.2-0.5-0.3-0.8-0.3c-0.2,0-0.4,0.2-0.6,0.3
				c-0.1,0.1-0.4,0.5-0.4,0.6c-0.7,1-1.7,1.2-2.9,0.7c-1.2-0.6-1.1-1.6,0.4-3C8.9,17,9.2,17.6,9.7,18c0.5,0.4,0.7,0.5,1.3,0.5
				c0.4,0,0.9-0.5,1.2-0.7C13.5,16.8,15.7,17.4,15.6,19.3c0,0.2,0.2,0.2,0.2,0c0-0.7-0.2-1.9-0.9-2.3c-1.3-0.8-2.2,0-3.3,0.8
				c-1.3,1-2.6-1.1-4.1-1c-1,0.1-1.3,1-1.4,1.8c0,1.9,3.2,2.6,4.2,1.2c1.4-2.1,2.1,0.4,3.5,0.9c1,0.3,1.6-0.6,1.9-1.4
				C15.9,19.2,15.7,19.1,15.6,19.3z"/>
		</g>
	</g>
	<g>
		<path style="fill:#0B0001;" d="M16.2,14.2c-0.4,0.3-1-0.7-0.5-1.1C16.3,12.8,16.6,13.8,16.2,14.2z"/>
		<g>
			<path style="fill:none;" d="M16.2,14.2c-0.4,0.3-1-0.7-0.5-1.1C16.3,12.8,16.6,13.8,16.2,14.2z"/>
			<path style="fill:#0A0C0E;" d="M16.1,14.1c-0.4,0.2-0.6-0.6-0.4-0.8C16,12.9,16.5,13.8,16.1,14.1c-0.1,0.1,0,0.3,0.2,0.2
				c0.5-0.5,0.1-1.6-0.6-1.3c-0.6,0.3-0.1,1.7,0.6,1.3C16.4,14.2,16.3,14,16.1,14.1z"/>
		</g>
	</g>
	<g>
		<path style="fill:#0B0001;" d="M9.6,14c-0.4,0.3-1-0.7-0.5-1.1C9.7,12.6,10,13.7,9.6,14z"/>
		<g>
			<path style="fill:none;" d="M9.6,14c-0.4,0.3-1-0.7-0.5-1.1C9.7,12.6,10,13.7,9.6,14z"/>
			<path style="fill:#0A0C0E;" d="M9.5,13.9c-0.4,0.2-0.6-0.6-0.4-0.8C9.4,12.7,9.9,13.6,9.5,13.9c-0.1,0.1,0,0.3,0.2,0.2
				c0.5-0.5,0.1-1.6-0.6-1.3c-0.6,0.3-0.1,1.7,0.6,1.3C9.8,14,9.7,13.8,9.5,13.9z"/>
		</g>
	</g>
</g>
</svg>
