<?xml version="1.0" encoding="utf-8"?>
<!-- Generator: Adobe Illustrator 13.0.0, SVG Export Plug-In . SVG Version: 6.00 Build 14948)  -->
<!DOCTYPE svg PUBLIC "-//W3C//DTD SVG 1.1//EN" "http://www.w3.org/Graphics/SVG/1.1/DTD/svg11.dtd">
<svg version="1.1" id="レイヤー_1" xmlns="http://www.w3.org/2000/svg" xmlns:xlink="http://www.w3.org/1999/xlink" x="0px"
	 y="0px" width="22.4px" height="22.4px" viewBox="0 0 22.4 22.4" style="enable-background:new 0 0 22.4 22.4;"
	 xml:space="preserve">
<g>
	<g>
		<path style="fill:#1BAFB7;" d="M10,22.3c-3.2-0.1-6.1-3.1-6.1-7.1C3.8,11.7,5,8.4,8.8,7.3c3.2-0.9,10,0.4,9.8,7.2
			C18.4,21.8,13.1,22.4,10,22.3z"/>
		<g>
			<path style="fill:none;" d="M10,22.3c-3.2-0.1-6.1-3.1-6.1-7.1C3.8,11.7,5,8.4,8.8,7.3c3.2-0.9,10,0.4,9.8,7.2
				C18.4,21.8,13.1,22.4,10,22.3z"/>
			<path style="fill:#0A0C0E;" d="M10,22.2c-5.7-0.5-7.2-7.4-5-11.8c1.8-3.6,6.5-3.8,9.7-2.4c4.1,1.8,4.6,7.1,2.8,10.8
				C16.1,21.6,12.8,22.3,10,22.2c-0.2,0-0.2,0.2,0,0.2c3.6,0.1,6.8-1,8.2-4.6c1.6-4.2,0-8.8-4.3-10.4C10,6,5.8,7.5,4.3,11.4
				C2.5,15.9,4.7,22,10,22.4C10.1,22.5,10.1,22.2,10,22.2z"/>
		</g>
	</g>
	<g>
		<g>
			<path style="fill:none;" d="M12.7,10.2c0.6,1.6,2.7-1.3,3.3-1.8"/>
			<path style="fill:#0A0C0E;" d="M12.6,10.2c0.8,1.7,2.9-1.2,3.5-1.8c0.1-0.1-0.1-0.3-0.2-0.2c-0.5,0.5-2.5,3.2-3.1,1.8
				C12.7,10,12.5,10.1,12.6,10.2L12.6,10.2z"/>
		</g>
	</g>
	<g>
		<g>
			<path style="fill:none;" d="M10,10.4c-1,1.3-1.7,1.2-2.9,0.3c-0.8-0.6-2-1.4-2.4-2.2"/>
			<path style="fill:#0A0C0E;" d="M9.9,10.3c-0.4,0.5-0.8,1-1.6,0.9c-0.5-0.1-1-0.5-1.3-0.8c-0.8-0.6-1.6-1.2-2.2-2
				c-0.1-0.1-0.3,0-0.2,0.1c0.7,1.1,1.9,1.9,3,2.6c1,0.7,1.8,0.2,2.5-0.7C10.2,10.3,10,10.2,9.9,10.3L9.9,10.3z"/>
		</g>
	</g>
	<g>
		<path style="fill:#E8E4D7;" d="M16.7,13.9c-0.2-2.9-5.5-1.3-4.5,0C12.9,14.8,16.9,14.5,16.7,13.9z"/>
		<g>
			<path style="fill:none;" d="M16.7,13.9c-0.2-2.9-5.5-1.3-4.5,0C12.9,14.8,16.9,14.5,16.7,13.9z"/>
			<path style="fill:#0A0C0E;" d="M16.8,13.9c-0.1-1.2-1-1.7-2.2-1.8c-0.8,0-2.4,0.3-2.7,1.2C11.4,15.2,16.9,14.8,16.8,13.9
				c0-0.2-0.3-0.2-0.2,0c0.1,0.7-5.5,0.7-4.2-0.8c1.1-1.2,4-1.1,4.2,0.8C16.6,14.1,16.8,14.1,16.8,13.9z"/>
		</g>
	</g>
	<g>
		<path style="fill:#E8E4D7;" d="M9.9,12.9c-1.1-1.9-5.1-0.4-4.1,1.5C7,15,11.1,14.9,9.9,12.9z"/>
		<g>
			<path style="fill:none;" d="M9.9,12.9c-1.1-1.9-5.1-0.4-4.1,1.5C7,15,11.1,14.9,9.9,12.9z"/>
			<path style="fill:#0A0C0E;" d="M10,12.9c-0.7-1-2-1.1-3.1-0.7c-0.5,0.2-1,0.5-1.2,1c-0.2,0.3-0.3,1,0,1.3C6,14.8,6.6,14.8,7,14.8
				c0.7,0.1,1.3,0,2-0.1C9.9,14.5,10.5,13.8,10,12.9c-0.1-0.1-0.3,0-0.2,0.1c1.1,1.8-2.6,1.7-3.5,1.5c-1.3-0.3,0.1-1.7,0.6-2
				C7.8,12,9.1,12.1,9.8,13C9.8,13.1,10.1,13,10,12.9z"/>
		</g>
	</g>
	<g>
		<path style="fill:#E8E4D7;" d="M6.7,19.3c0.1,0.4,0.5,1.1,0.8,1.2c1.6,0.5,1.7-0.8,2.8-1.6c1.2-0.9,1.4,0.8,2.3,1.4
			c1.3,0.8,3.7-0.4,3.5-2c-0.2-1.4-1.7-1.6-2.7-0.9c-0.5,0.3-0.9,0.9-1.5,1.1c-0.6,0.2-1-0.3-1.5-0.7c-0.8-0.6-1.8-1.4-2.8-0.6
			C6.6,17.9,6.7,19.3,6.7,19.3z"/>
		<g>
			<path style="fill:none;" d="M6.7,19.3c0.1,0.4,0.5,1.1,0.8,1.2c1.6,0.5,1.7-0.8,2.8-1.6c1.2-0.9,1.4,0.8,2.3,1.4
				c1.3,0.8,3.7-0.4,3.5-2c-0.2-1.4-1.7-1.6-2.7-0.9c-0.5,0.3-0.9,0.9-1.5,1.1c-0.6,0.2-1-0.3-1.5-0.7c-0.8-0.6-1.8-1.4-2.8-0.6
				C6.6,17.9,6.7,19.3,6.7,19.3z"/>
			<path style="fill:#0A0C0E;" d="M6.6,19.3c0.3,1,0.8,1.4,1.8,1.4c1.3,0,2-3.2,3.3-1.2c1.2,1.8,3.9,1.3,4.4-0.8
				c0.2-0.6-0.3-1.5-1-1.7c-0.5-0.2-1-0.1-1.5,0c-0.9,0.3-1.3,1.6-2.6,1.1c-0.8-0.4-2.1-2.1-3.2-1.4C7,17.3,6.6,18.2,6.6,19.3
				c0,0.1,0.2,0.1,0.2,0c0-1.5,1.6-2.7,3-1.8c0.5,0.3,1,0.9,1.6,1c0.4,0.1,0.6-0.1,0.9-0.2c0.2-0.1,0.6-0.5,0.8-0.6
				c1.9-1.7,3.3,1.4,1.7,2.4c-2.1,1.4-2.4-1.1-3.8-1.6c-0.3-0.1-0.6,0.2-0.8,0.3c-0.2,0.1-0.4,0.4-0.6,0.6c-0.5,0.6-1.8,2.8-2.8-0.1
				C6.8,19.1,6.5,19.2,6.6,19.3z"/>
		</g>
	</g>
	<g>
		<path style="fill:#0B0001;" d="M6.3,14.2c0.4,0.3,1-0.7,0.5-1.1C6.2,12.8,5.8,13.8,6.3,14.2z"/>
		<g>
			<path style="fill:none;" d="M6.3,14.2c0.4,0.3,1-0.7,0.5-1.1C6.2,12.8,5.8,13.8,6.3,14.2z"/>
			<path style="fill:#0A0C0E;" d="M6.2,14.3c0.7,0.4,1.1-0.8,0.6-1.3C6.2,12.5,5.7,13.8,6.2,14.3c0.1,0.1,0.3-0.1,0.2-0.2
				c-0.2-0.2-0.2-0.6,0-0.8c0.3-0.4,0.5,0.3,0.4,0.4c0,0.2-0.2,0.5-0.5,0.4C6.2,14,6.1,14.2,6.2,14.3z"/>
		</g>
	</g>
	<g>
		<path style="fill:#0B0001;" d="M12.9,14c0.4,0.3,1-0.7,0.5-1.1C12.8,12.6,12.4,13.7,12.9,14z"/>
		<g>
			<path style="fill:none;" d="M12.9,14c0.4,0.3,1-0.7,0.5-1.1C12.8,12.6,12.4,13.7,12.9,14z"/>
			<path style="fill:#0A0C0E;" d="M12.8,14.1c0.7,0.4,1.1-0.8,0.6-1.3C12.8,12.3,12.3,13.6,12.8,14.1c0.1,0.1,0.3-0.1,0.2-0.2
				c-0.2-0.2-0.2-0.6,0-0.8c0.3-0.4,0.5,0.3,0.4,0.4c0,0.2-0.2,0.5-0.5,0.4C12.8,13.8,12.7,14,12.8,14.1z"/>
		</g>
	</g>
</g>
</svg>
