<?xml version="1.0" encoding="utf-8"?>
<!-- Generator: Adobe Illustrator 13.0.0, SVG Export Plug-In . SVG Version: 6.00 Build 14948)  -->
<!DOCTYPE svg PUBLIC "-//W3C//DTD SVG 1.1//EN" "http://www.w3.org/Graphics/SVG/1.1/DTD/svg11.dtd">
<svg version="1.1" id="レイヤー_1" xmlns="http://www.w3.org/2000/svg" xmlns:xlink="http://www.w3.org/1999/xlink" x="0px"
	 y="0px" width="22.4px" height="22.5px" viewBox="0 0 22.4 22.5" style="enable-background:new 0 0 22.4 22.5;"
	 xml:space="preserve">
<g>
	<g>
		<g>
			<path style="fill:none;" d="M10.4,22.3c-3.1-0.1-6-2.9-6.2-6.9C4.2,12,5.3,8.7,9,7.6c3.1-0.9,6.7-0.9,8.7,2.2
				c0.7,1.2,1.1,3.3,1.1,4.7C18.8,21.7,13.6,22.4,10.4,22.3z"/>
			<path style="fill:#0A0C0E;" d="M10.4,22.2c-5-0.4-6.7-5.6-5.7-9.9c1-4.4,6.1-5.9,9.9-4.8c4.6,1.3,4.8,8.3,2.8,11.7
				C16.1,21.7,13,22.2,10.4,22.2c-0.2,0-0.2,0.2,0,0.2c3.1,0,6.5-0.8,7.8-4c1.6-4.2,0.7-10-4.1-11.3c-4.4-1.2-8.8,1.4-9.8,5.7
				c-0.9,4.3,1.4,9.2,6.1,9.6C10.6,22.5,10.6,22.2,10.4,22.2z"/>
		</g>
	</g>
	<g>
		<g>
			<path style="fill:none;" d="M6.3,13.6c0-1,1-2,1.9-2.1c1.1-0.1,1.7,0.6,2.2,1.5"/>
			<path style="fill:#0A0C0E;" d="M6.4,13.6c0.1-1,1-1.9,2-2c0.9,0,1.4,0.8,1.8,1.4c0.1,0.1,0.3,0,0.2-0.1c-0.5-0.8-1.2-1.8-2.3-1.6
				c-1.1,0.2-1.9,1.1-2,2.2C6.2,13.7,6.4,13.7,6.4,13.6L6.4,13.6z"/>
		</g>
	</g>
	<g>
		<g>
			<path style="fill:none;" d="M13.2,13.3c-0.3-2.6,3.6-2.5,3.8-0.2"/>
			<path style="fill:#0A0C0E;" d="M13.4,13.3c-0.2-2.4,3.3-2.3,3.5-0.2c0,0.2,0.3,0.2,0.2,0c-0.3-2.5-4.3-2.5-4,0.2
				C13.1,13.5,13.4,13.5,13.4,13.3L13.4,13.3z"/>
		</g>
	</g>
	<g>
		<g>
			<path style="fill:none;" d="M10.5,21.3c1.9,0.2,4.1,0.2,5.6-1.3c0.9-1,2.5-3.3,1.9-4.7c-0.8-1.7-3.1-0.7-4.1,0.2
				c-1.6,1.4-2.5,1.3-4.3,0.1c-1.6-1.1-4.1-0.4-4,1.7S8.7,21.1,10.5,21.3z"/>
			<path style="fill:#0A0C0E;" d="M10.5,21.4c3.3,0.3,6.1-0.6,7.3-3.9c1-2.6-0.8-4-3.2-2.8c-1.4,0.7-1.6,2.5-4.2,1.1
				c-0.6-0.3-1.1-0.8-1.8-0.9C7.4,14.8,6.5,15,5.7,16C4,18.5,8.7,21.1,10.5,21.4c0.1,0,0.2-0.2,0-0.2c-1.2-0.2-2.3-0.8-3.2-1.5
				c-0.6-0.5-1.1-1.2-1.4-2c0.7-2.5,2-3.2,3.7-2.1c1.1,0.6,1.8,1.2,3.1,0.8c0.4-0.1,1-0.7,1.3-0.9c0.5-0.5,1.1-0.8,1.8-1
				c2.1,0.9,2.6,2.1,1.6,3.5c-1.4,2.8-3.9,3.5-6.8,3.2C10.3,21.2,10.3,21.4,10.5,21.4z"/>
		</g>
	</g>
</g>
</svg>
