<?xml version="1.0" encoding="utf-8"?>
<!-- Generator: Adobe Illustrator 13.0.0, SVG Export Plug-In . SVG Version: 6.00 Build 14948)  -->
<!DOCTYPE svg PUBLIC "-//W3C//DTD SVG 1.1//EN" "http://www.w3.org/Graphics/SVG/1.1/DTD/svg11.dtd">
<svg version="1.1" id="レイヤー_1" xmlns="http://www.w3.org/2000/svg" xmlns:xlink="http://www.w3.org/1999/xlink" x="0px"
	 y="0px" width="22.4px" height="22.4px" viewBox="0 0 22.4 22.4" style="enable-background:new 0 0 22.4 22.4;"
	 xml:space="preserve">
<g>
	<g style="opacity:0.45;">
		<path style="fill:#EB2643;" d="M10.4,22.2c-3.1-0.1-6-2.9-6.2-6.9c-0.1-3.5,1-6.7,4.7-7.8c3.1-0.9,6.7-0.9,8.7,2.2
			c0.7,1.2,1.1,3.3,1.1,4.7C18.8,21.5,13.6,22.2,10.4,22.2z"/>
		<g>
			<path style="fill:none;" d="M10.4,22.2c-3.1-0.1-6-2.9-6.2-6.9c-0.1-3.5,1-6.7,4.7-7.8c3.1-0.9,6.7-0.9,8.7,2.2
				c0.7,1.2,1.1,3.3,1.1,4.7C18.8,21.5,13.6,22.2,10.4,22.2z"/>
			<path style="fill:#0A0C0E;" d="M10.4,22c-5-0.4-6.7-5.6-5.7-9.9c1-4.4,6.1-5.9,9.9-4.8c4.6,1.3,4.8,8.3,2.8,11.7
				C16.1,21.5,13,22.1,10.4,22c-0.2,0-0.2,0.2,0,0.2c3.1,0,6.5-0.8,7.8-4c1.6-4.2,0.7-10-4.1-11.3c-4.4-1.2-8.8,1.4-9.8,5.7
				c-0.9,4.3,1.4,9.2,6.1,9.6C10.6,22.3,10.6,22.1,10.4,22z"/>
		</g>
	</g>
	<g style="opacity:0.45;">
		<path style="fill:#F7F0C4;" d="M7.2,15.8c0.5-0.3,1.9-1.2,2.6-1.1c1,0.1,1.1,1.4-0.1,1.9C9.7,16.5,4.9,17.7,7.2,15.8z"/>
		<g>
			<path style="fill:none;" d="M7.2,15.8c0.5-0.3,1.9-1.2,2.6-1.1c1,0.1,1.1,1.4-0.1,1.9C9.7,16.5,4.9,17.7,7.2,15.8z"/>
			<path style="fill:#0A0C0E;" d="M7.3,15.9c0.7-0.4,2.2-1.6,3-0.9c0.5,0.5,0,1.3-0.6,1.4c-0.1,0-0.3,0.1-0.4,0.1
				c-0.6,0.1-1.3,0.3-1.9,0.3c-0.2,0-0.6,0-0.7-0.1C6.6,16.4,7.2,16,7.3,15.9c0.1-0.1,0-0.3-0.2-0.2C6.7,16,6,16.9,7,17
				c0.8,0.1,1.7-0.1,2.5-0.3c0.8-0.2,1.6-1,1-1.8c-0.8-1.1-2.6,0.3-3.4,0.8C7,15.8,7.1,16,7.3,15.9z"/>
		</g>
	</g>
	<g style="opacity:0.45;">
		<path style="fill:#F7F0C4;" d="M17.6,16c0.2-1-1.5-1.2-2.2-1.4c-0.7-0.1-2.6-0.8-2.8,0.3c-0.1,0.6,1.6,1.7,2,1.8
			C14.7,16.6,17.4,17.1,17.6,16z"/>
		<g>
			<path style="fill:none;" d="M17.6,16c0.2-1-1.5-1.2-2.2-1.4c-0.7-0.1-2.6-0.8-2.8,0.3c-0.1,0.6,1.6,1.7,2,1.8
				C14.7,16.6,17.4,17.1,17.6,16z"/>
			<path style="fill:#0A0C0E;" d="M17.8,16c0.1-1.2-1.8-1.4-2.7-1.6c-0.4-0.1-2.8-0.6-2.4,0.6c0.3,0.8,1.5,1.6,2.3,1.8
				C15.8,16.9,17.4,17.1,17.8,16c0-0.1-0.2-0.2-0.2,0c-0.3,0.8-1.6,0.6-2.3,0.6c-0.7-0.1-1.2-0.4-1.8-0.9c-0.2-0.2-0.4-0.3-0.5-0.5
				c-0.5-0.7,0.6-0.7,0.9-0.7c0.5,0,0.9,0.1,1.3,0.2c0.7,0.2,2.4,0.4,2.4,1.3C17.5,16.2,17.8,16.2,17.8,16z"/>
		</g>
	</g>
	<g style="opacity:0.45;">
		<g>
			<path style="fill:none;" d="M14.3,16.3c-0.7-0.4-0.1-1.1,0.5-1S14.9,16.7,14.3,16.3z"/>
			<path style="fill:#0A0C0E;" d="M14.3,16.2c-0.8-0.5,0.5-1.1,0.6-0.5C15,16,14.7,16.4,14.3,16.2c-0.1-0.1-0.3,0.2-0.1,0.2
				c0.3,0.1,0.6,0,0.8-0.2c0.2-0.2,0.2-0.7,0-0.9c-0.6-0.6-1.7,0.6-0.8,1.1C14.4,16.5,14.5,16.3,14.3,16.2z"/>
		</g>
	</g>
	<g style="opacity:0.45;">
		<g>
			<path style="fill:none;" d="M8.9,16.5c-0.7-0.4-0.1-1.1,0.5-1S9.6,16.9,8.9,16.5z"/>
			<path style="fill:#0A0C0E;" d="M9,16.4c-0.8-0.5,0.5-1.1,0.6-0.5C9.6,16.2,9.3,16.6,9,16.4c-0.1-0.1-0.3,0.2-0.1,0.2
				c0.3,0.1,0.6,0,0.8-0.2c0.2-0.2,0.2-0.7,0-0.9c-0.6-0.6-1.7,0.6-0.8,1.1C9,16.7,9.1,16.5,9,16.4z"/>
		</g>
	</g>
	<g style="opacity:0.45;">
		<g>
			<path style="fill:none;" d="M10.9,21.6c0.7-0.2,1.3-0.3,1.9-0.1"/>
			<path style="fill:#0A0C0E;" d="M10.9,21.7c0.6-0.1,1.2-0.2,1.9-0.1c0.2,0,0.2-0.2,0.1-0.2c-0.7-0.2-1.3-0.1-2,0.1
				C10.7,21.5,10.7,21.8,10.9,21.7L10.9,21.7z"/>
		</g>
	</g>
</g>
</svg>
