<?xml version="1.0" encoding="utf-8"?>
<!-- Generator: Adobe Illustrator 13.0.0, SVG Export Plug-In . SVG Version: 6.00 Build 14948)  -->
<!DOCTYPE svg PUBLIC "-//W3C//DTD SVG 1.1//EN" "http://www.w3.org/Graphics/SVG/1.1/DTD/svg11.dtd">
<svg version="1.1" id="レイヤー_1" xmlns="http://www.w3.org/2000/svg" xmlns:xlink="http://www.w3.org/1999/xlink" x="0px"
	 y="0px" width="22.4px" height="22.5px" viewBox="0 0 22.4 22.5" style="enable-background:new 0 0 22.4 22.5;"
	 xml:space="preserve">
<g>
	<g>
		<path style="fill:#FABCB0;" d="M10.2,22.2C7,22,4.2,18.9,4.4,14.8C4.5,11.3,5.8,8,9.7,7.2c3.2-0.7,10,0.8,9.5,7.6
			C18.6,22.1,13.3,22.5,10.2,22.2z"/>
		<g>
			<path style="fill:none;" d="M10.2,22.2C7,22,4.2,18.9,4.4,14.8C4.5,11.3,5.8,8,9.7,7.2c3.2-0.7,10,0.8,9.5,7.6
				C18.6,22.1,13.3,22.5,10.2,22.2z"/>
			<path style="fill:#0A0C0E;" d="M10.2,22.1C4.7,21.3,3.4,15,5.4,10.6c1.8-3.9,6.7-4.1,10.1-2.5c4.1,2,4.3,7.3,2.4,10.9
				C16.4,21.8,13,22.3,10.2,22.1c-0.2,0-0.2,0.2,0,0.2c3.4,0.2,7.1-0.7,8.4-4.2c1.5-4.3,0.6-8.8-3.8-10.6C11.1,6,6.4,7.1,5,11
				c-1.6,4.5-0.3,10.5,5.2,11.3C10.3,22.4,10.3,22.1,10.2,22.1z"/>
		</g>
	</g>
	<g>
		<path style="fill:#F8F5E3;" d="M13.2,11.1c-2.5,0.9-0.2,4.5,1.3,3.6C16.1,13.8,15.8,10.1,13.2,11.1z"/>
		<g>
			<path style="fill:none;" d="M13.2,11.1c-2.5,0.9-0.2,4.5,1.3,3.6C16.1,13.8,15.8,10.1,13.2,11.1z"/>
			<path style="fill:#0A0C0E;" d="M13.2,10.9c-1.1,0.4-1.5,1.5-1,2.6c0.4,0.8,1.3,1.8,2.3,1.3c0.9-0.5,1.2-1.7,1-2.6
				C15.3,11,14.2,10.6,13.2,10.9c-0.2,0.1-0.1,0.3,0.1,0.2c0.9-0.3,1.8,0,2,1c0.2,0.8,0,1.7-0.6,2.2c-1.3,1.4-3.9-2.2-1.5-3.2
				C13.4,11.1,13.3,10.9,13.2,10.9z"/>
		</g>
	</g>
	<g>
		<path style="fill:#F8F5E3;" d="M17.2,11.5c-2.4,0.1-1.6,3.7-0.1,3.4C18.7,14.4,19.5,11.4,17.2,11.5z"/>
		<g>
			<path style="fill:none;" d="M17.2,11.5c-2.4,0.1-1.6,3.7-0.1,3.4C18.7,14.4,19.5,11.4,17.2,11.5z"/>
			<path style="fill:#0A0C0E;" d="M17.2,11.3c-1,0.1-1.6,0.8-1.6,1.8c0,0.8,0.4,1.7,1.3,1.8c1,0.1,1.7-1.1,1.8-1.9
				C18.9,12,18.2,11.3,17.2,11.3c-0.2,0-0.2,0.2,0,0.2c2.1,0,1.3,3.2-0.3,3.1c-0.7,0-1-1-1-1.6c0-0.9,0.5-1.5,1.4-1.6
				C17.4,11.6,17.4,11.3,17.2,11.3z"/>
		</g>
	</g>
	<g>
		<g>
			<path style="fill:none;" d="M10,18.5c1.5,1,6.3,1.4,7.7,0.5"/>
			<path style="fill:#0A0C0E;" d="M9.9,18.6c1.9,1.2,5.8,1.7,7.8,0.5c0.1-0.1,0-0.3-0.1-0.2c-1.9,1.1-5.8,0.7-7.6-0.5
				C9.9,18.3,9.8,18.5,9.9,18.6L9.9,18.6z"/>
		</g>
	</g>
	<g>
		<path style="fill:#0B0001;" d="M18,13.9c0.5,0,0.4-1.2-0.2-1.1C17.2,12.8,17.5,13.9,18,13.9z"/>
		<g>
			<path style="fill:none;" d="M18,13.9c0.5,0,0.4-1.2-0.2-1.1C17.2,12.8,17.5,13.9,18,13.9z"/>
			<path style="fill:#0A0C0E;" d="M18,14c0.7-0.1,0.5-1.3-0.1-1.4C17,12.6,17.3,14,18,14c0.2,0,0.2-0.2,0-0.2
				c-0.3,0-0.7-0.6-0.3-0.9c0.4-0.3,0.8,0.8,0.3,0.9C17.9,13.8,17.9,14.1,18,14z"/>
		</g>
	</g>
	<g>
		<path style="fill:#0B0001;" d="M14.9,13.5c0.5,0,0.4-1.2-0.2-1.1C14,12.5,14.4,13.5,14.9,13.5z"/>
		<g>
			<path style="fill:none;" d="M14.9,13.5c0.5,0,0.4-1.2-0.2-1.1C14,12.5,14.4,13.5,14.9,13.5z"/>
			<path style="fill:#0A0C0E;" d="M14.9,13.7c0.7-0.1,0.5-1.3-0.1-1.4C13.9,12.2,14.2,13.6,14.9,13.7c0.2,0,0.2-0.2,0-0.2
				c-0.3,0-0.7-0.7-0.3-0.9c0.5-0.2,0.7,0.8,0.3,0.9C14.8,13.4,14.8,13.7,14.9,13.7z"/>
		</g>
	</g>
</g>
</svg>
