<?xml version="1.0" encoding="utf-8"?>
<!-- Generator: Adobe Illustrator 13.0.0, SVG Export Plug-In . SVG Version: 6.00 Build 14948)  -->
<!DOCTYPE svg PUBLIC "-//W3C//DTD SVG 1.1//EN" "http://www.w3.org/Graphics/SVG/1.1/DTD/svg11.dtd">
<svg version="1.1" id="レイヤー_1" xmlns="http://www.w3.org/2000/svg" xmlns:xlink="http://www.w3.org/1999/xlink" x="0px"
	 y="0px" width="22.4px" height="22.5px" viewBox="0 0 22.4 22.5" style="enable-background:new 0 0 22.4 22.5;"
	 xml:space="preserve">
<g>
	<g>
		<g>
			<path style="fill:none;" d="M10.5,22.1c-3.1-0.1-6-3-6-7c0-3.5,1.2-6.7,4.9-7.7c3.1-0.9,9.8,0.4,9.6,7.1
				C18.8,21.7,13.6,22.3,10.5,22.1z"/>
			<path style="fill:#0A0C0E;" d="M10.5,22c-5.6-0.5-7.1-7.2-4.9-11.6c1.8-3.5,6.4-3.7,9.5-2.3c4.1,1.8,4.5,7.1,2.7,10.7
				C16.4,21.5,13.2,22.1,10.5,22c-0.2,0-0.2,0.2,0,0.2c3.8,0.1,7-1.2,8.2-5c1.4-4.3-0.5-8.6-4.8-9.9C9.9,6.2,5.9,8,4.7,12
				c-1.4,4.4,0.8,9.8,5.8,10.3C10.6,22.3,10.6,22,10.5,22z"/>
		</g>
	</g>
	<g>
		<g>
			<path style="fill:none;" d="M13.1,10.2c0.6,1.6,2.7-1.3,3.3-1.8"/>
			<path style="fill:#0A0C0E;" d="M13,10.3c0.7,1.7,2.9-1.2,3.4-1.8c0.1-0.1-0.1-0.3-0.2-0.2c-0.5,0.5-2.5,3.1-3.1,1.8
				C13.2,10,13,10.1,13,10.3L13,10.3z"/>
		</g>
	</g>
	<g>
		<g>
			<path style="fill:none;" d="M10.5,10.4c-0.9,1.3-1.7,1.2-2.8,0.3C7,10.1,5.8,9.3,5.3,8.5"/>
			<path style="fill:#0A0C0E;" d="M10.4,10.3c-0.4,0.5-0.8,1-1.5,0.9c-0.5-0.1-1-0.5-1.3-0.8C6.8,9.8,6,9.3,5.4,8.5
				c-0.1-0.1-0.3,0-0.2,0.1c0.7,1.1,1.9,1.9,2.9,2.6c1,0.7,1.8,0.2,2.5-0.7C10.7,10.4,10.5,10.2,10.4,10.3L10.4,10.3z"/>
		</g>
	</g>
	<g>
		<g>
			<path style="fill:none;" d="M17.1,13.9c-0.2-2.8-5.5-1.3-4.4,0C13.3,14.7,17.3,14.5,17.1,13.9z"/>
			<path style="fill:#0A0C0E;" d="M17.2,13.9c-0.1-1.2-1-1.7-2.1-1.7c-0.8,0-2.3,0.2-2.6,1.1C11.9,15.1,17.3,14.8,17.2,13.9
				c0-0.2-0.3-0.2-0.2,0c0.1,0.7-5.4,0.6-4.1-0.8c1-1.1,3.9-1.1,4.1,0.8C17,14.1,17.2,14.1,17.2,13.9z"/>
		</g>
	</g>
	<g>
		<g>
			<path style="fill:none;" d="M10.4,12.9c-1.1-1.9-5-0.4-4,1.5C7.5,14.9,11.6,14.8,10.4,12.9z"/>
			<path style="fill:#0A0C0E;" d="M10.5,12.9c-0.7-1-2-1.1-3-0.7c-0.5,0.2-0.9,0.5-1.2,1c-0.2,0.3-0.2,1,0,1.3
				c0.3,0.3,0.9,0.3,1.3,0.3c0.7,0.1,1.3,0,2-0.1C10.5,14.4,11,13.8,10.5,12.9c-0.1-0.1-0.3,0-0.2,0.1c1.1,1.8-2.6,1.6-3.5,1.4
				c-1.3-0.3,0.1-1.7,0.6-2c0.9-0.5,2.2-0.4,2.8,0.5C10.3,13.1,10.6,13,10.5,12.9z"/>
		</g>
	</g>
	<g>
		<g>
			<path style="fill:none;" d="M7.3,19.2c0.1,0.4,0.5,1.1,0.8,1.2c1.6,0.5,1.7-0.8,2.7-1.6c1.2-0.9,1.4,0.8,2.2,1.3
				c1.3,0.8,3.6-0.4,3.4-2c-0.2-1.3-1.7-1.6-2.6-0.9c-0.5,0.3-0.9,0.9-1.5,1c-0.6,0.2-1-0.3-1.5-0.7C10,17,9.1,16.2,8.1,17
				C7.2,17.8,7.3,19.2,7.3,19.2z"/>
			<path style="fill:#0A0C0E;" d="M7.2,19.2c0.3,0.9,0.8,1.4,1.8,1.3c1.2,0,2-3.1,3.3-1.1c1.2,1.7,3.8,1.3,4.3-0.8
				c0.1-0.6-0.3-1.5-1-1.7c-0.5-0.1-1-0.1-1.5,0c-0.9,0.3-1.3,1.6-2.5,1.1c-0.8-0.3-2-2-3.1-1.4C7.6,17.2,7.1,18.1,7.2,19.2
				c0,0.1,0.2,0.1,0.2,0c0-1.5,1.6-2.6,2.9-1.8c0.5,0.3,1,0.9,1.6,1c0.4,0.1,0.6-0.1,0.9-0.2c0.2-0.1,0.6-0.5,0.7-0.6
				c1.9-1.6,3.2,1.4,1.7,2.4c-2.1,1.4-2.4-1.1-3.8-1.5c-0.3-0.1-0.6,0.2-0.8,0.3c-0.2,0.1-0.4,0.4-0.6,0.6c-0.5,0.6-1.8,2.7-2.8-0.1
				C7.3,19,7.1,19,7.2,19.2z"/>
		</g>
	</g>
	<g>
		<g>
			<path style="fill:none;" d="M6.8,14.1c0.4,0.3,1-0.7,0.5-1C6.7,12.8,6.4,13.8,6.8,14.1z"/>
			<path style="fill:#0A0C0E;" d="M6.8,14.2c0.7,0.4,1.1-0.8,0.6-1.2C6.7,12.5,6.2,13.8,6.8,14.2c0.1,0.1,0.3-0.1,0.2-0.2
				c-0.2-0.2-0.2-0.6,0-0.8c0.3-0.4,0.5,0.3,0.4,0.4c0,0.2-0.2,0.5-0.5,0.4C6.7,14,6.6,14.2,6.8,14.2z"/>
		</g>
	</g>
	<g>
		<g>
			<path style="fill:none;" d="M13.3,14c0.4,0.3,1-0.7,0.5-1C13.2,12.6,12.9,13.6,13.3,14z"/>
			<path style="fill:#0A0C0E;" d="M13.3,14.1c0.7,0.4,1.1-0.8,0.6-1.2C13.2,12.3,12.7,13.6,13.3,14.1c0.1,0.1,0.3-0.1,0.2-0.2
				c-0.2-0.2-0.2-0.6,0-0.8c0.3-0.4,0.5,0.3,0.4,0.4c0,0.2-0.2,0.5-0.5,0.4C13.2,13.8,13.1,14,13.3,14.1z"/>
		</g>
	</g>
</g>
</svg>
