<?xml version="1.0" encoding="utf-8"?>
<!-- Generator: Adobe Illustrator 13.0.0, SVG Export Plug-In . SVG Version: 6.00 Build 14948)  -->
<!DOCTYPE svg PUBLIC "-//W3C//DTD SVG 1.1//EN" "http://www.w3.org/Graphics/SVG/1.1/DTD/svg11.dtd">
<svg version="1.1" id="レイヤー_1" xmlns="http://www.w3.org/2000/svg" xmlns:xlink="http://www.w3.org/1999/xlink" x="0px"
	 y="0px" width="22.4px" height="22.5px" viewBox="0 0 22.4 22.5" style="enable-background:new 0 0 22.4 22.5;"
	 xml:space="preserve">
<g>
	<g>
		<g>
			<path style="fill:none;" d="M9.9,22.1c-3.1-0.4-5.7-3.6-5.4-7.5c0.3-3.4,1.8-6.6,5.5-7.3c3.2-0.6,9.7,1.2,9,7.9
				C18.3,22.4,13,22.5,9.9,22.1z"/>
			<path style="fill:#0A0C0E;" d="M10,22c-5.4-1-6.3-7.3-4.2-11.5c1.8-3.6,6.4-3.7,9.6-2.2c4.1,2,4.3,7,2.5,10.7
				C16.3,21.9,12.9,22.4,10,22c-0.2,0-0.2,0.2,0,0.2c3.7,0.4,7.1-0.5,8.6-4.2c1.6-3.8,0.5-8.5-3.5-10.1C11.5,6.5,7,7,5.3,10.9
				c-1.8,4.4-0.7,10.3,4.6,11.3C10.1,22.3,10.1,22,10,22z"/>
		</g>
	</g>
	<g>
		<g>
			<path style="fill:none;" d="M6.8,14.5c0.6,0.1,1.5-0.6,1.7-1.1c0.1-0.2,0.1-0.8-0.1-1c-0.2-0.2-0.4-0.4-1-0.4
				C6.9,12,5.7,14.2,6.8,14.5z"/>
			<path style="fill:#0A0C0E;" d="M6.7,14.6c0.7,0.1,1.7-0.5,1.9-1.2c0.3-0.8-0.2-1.5-1-1.6c-0.6,0-1.1,0.8-1.3,1.3
				C6.2,13.6,6.1,14.3,6.7,14.6c0.2,0,0.2-0.2,0.1-0.2c-0.9-0.3,0.1-1.9,0.5-2.2c0.2-0.2,0.6-0.1,0.8,0.1c0.4,0.2,0.4,0.7,0.3,1
				c-0.1,0.6-1,1.2-1.6,1.1C6.7,14.3,6.6,14.5,6.7,14.6z"/>
		</g>
	</g>
	<g>
		<g>
			<path style="fill:none;" d="M11.1,14.2c-0.4-0.1-1-1-1.1-1.6c0-0.3,0-0.6,0.2-0.8c0.1-0.1,0.6-0.1,0.8-0.1
				c0.7,0.1,1.2,0.9,1.3,1.6C12.4,14.2,11.5,14.3,11.1,14.2z"/>
			<path style="fill:#0A0C0E;" d="M11.1,14.1c-0.5-0.2-0.8-0.9-0.9-1.4c-0.1-0.3,0-0.8,0.3-0.8c0.3,0,0.5,0,0.8,0.1
				c0.5,0.2,0.9,0.9,0.9,1.5C12.2,14,11.6,14.2,11.1,14.1c-0.2,0-0.2,0.2-0.1,0.2c0.6,0.1,1.2-0.1,1.4-0.7c0.1-0.7-0.5-1.7-1.1-1.9
				c-0.3-0.1-0.6-0.1-1,0c-0.3,0.1-0.4,0.4-0.4,0.7c0,0.7,0.5,1.7,1.1,2C11.2,14.4,11.3,14.1,11.1,14.1z"/>
		</g>
	</g>
	<g>
		<g>
			<path style="fill:none;" d="M7.3,19.6c0.1-0.4,0.5-0.7,0.9-0.8c0.5-0.1,0.7,0.2,1.2,0.2c0.5,0,0.8-0.4,1.2-0.5c0.3,0,0.7,0,1,0
				c0.9,0.4,0.9,1.6-0.1,1.7c-0.8,0.1-1.4-0.4-2.2-0.3C8.8,19.9,7.2,20.5,7.3,19.6"/>
			<path style="fill:#0A0C0E;" d="M7.4,19.6C8,18.3,9,19.4,9.8,18.9c0.4-0.2,0.9-0.4,1.4-0.3c1.1,0,1.2,1.5,0,1.5
				c-0.7,0-1.3-0.4-1.9-0.3C8.8,19.8,7.5,20.3,7.4,19.6c0-0.2-0.3-0.2-0.3,0c0.1,0.9,1.2,0.6,1.8,0.5c0.8-0.2,1.5,0.2,2.2,0.3
				c0.4,0,0.9-0.1,1.1-0.5c0.4-1.1-0.8-1.5-1.7-1.4c-0.2,0-0.5,0.2-0.7,0.3c-0.6,0.3-1-0.1-1.5,0c-0.6,0.1-1,0.3-1.2,0.9
				C7.1,19.7,7.4,19.8,7.4,19.6L7.4,19.6z"/>
		</g>
	</g>
	<g>
		<g>
			<path style="fill:none;" d="M10,10c1.3,0.3,2.8,1,3.8,1.8"/>
			<path style="fill:#0A0C0E;" d="M10,10.1c1.3,0.3,2.6,0.9,3.7,1.7c0.1,0.1,0.3-0.1,0.2-0.2c-1.1-0.9-2.4-1.5-3.8-1.8
				C9.9,9.9,9.8,10.1,10,10.1L10,10.1z"/>
		</g>
	</g>
	<g>
		<g>
			<path style="fill:none;" d="M8.3,9.9c-1.1,0.2-1.5,1.5-2.2,2.2"/>
			<path style="fill:#0A0C0E;" d="M8.2,9.7C7.1,10,6.7,11.2,6,12c-0.1,0.1,0.1,0.3,0.2,0.2c0.6-0.8,1-1.9,2.1-2.2
				C8.5,9.9,8.4,9.7,8.2,9.7L8.2,9.7z"/>
		</g>
	</g>
	<g>
		<g>
			<path style="fill:none;" d="M15.8,7.4c0.6,0.1,0.4,0.5,0.8,0.7c0.3,0.1,0.4-0.2,0.6,0.2c0.1,0.2,0.1,0.5,0.3,0.6
				c0.2,0.1,0.5-0.1,0.7,0c0.2,0.2,0,0.5,0.1,0.7c0.2,0.4,0.9,0.5,0.5,1.2"/>
			<path style="fill:#0A0C0E;" d="M15.7,7.5c0.4,0.1,0.4,0.5,0.8,0.7c0.3,0.1,0.6,0.1,0.7,0.5c0,0.1,0.1,0.2,0.2,0.3
				c0.1,0.1,0.2,0.1,0.3,0c0.6-0.1,0.3,0.2,0.3,0.5c0.1,0.5,0.8,0.6,0.5,1.2c-0.1,0.1,0.1,0.3,0.2,0.1c0.2-0.3,0.2-0.6-0.1-0.9
				c-0.3-0.3-0.3-0.5-0.4-0.9c0-0.2-0.1-0.3-0.3-0.3c-0.3-0.1-0.6-0.1-0.7-0.4C17.3,8,17.1,7.9,17,7.9c-0.3-0.1-0.5,0-0.7-0.3
				c-0.1-0.2-0.3-0.3-0.5-0.3C15.6,7.2,15.6,7.4,15.7,7.5L15.7,7.5z"/>
		</g>
	</g>
	<g>
		<g>
			<path style="fill:none;" d="M3.9,10.1C3.9,9.9,3.8,9.8,3.8,9.6c0.1,0,0.4,0,0.4-0.1c0.2-0.2,0.1-0.2,0.2-0.4
				c0.1-0.3,0-0.2,0.4-0.3c0.1,0,0.2,0.1,0.3,0c0.2-0.1,0-0.2,0.1-0.4c0.1-0.4,0.1-0.2,0.4-0.4c0.3-0.2,0.2,0,0.4-0.3
				c0.2-0.3-0.1-0.3,0.3-0.4c0.2-0.1,0.5,0,0.7,0.1"/>
			<path style="fill:#0A0C0E;" d="M4.1,10.1C4,9.9,4,9.8,3.9,9.6c0,0.1-0.1,0.1-0.1,0.2c0.3,0,0.6,0,0.7-0.3C4.6,9.2,4.6,8.8,5,9
				C5,9,5.2,9,5.2,8.9c0.1-0.2,0.1-0.3,0.1-0.6c0.1-0.2,0.4-0.2,0.5-0.3c0.1,0,0.2-0.2,0.2-0.3c0-0.1,0.1-0.1,0.1-0.2
				c0.1-0.2,0.6-0.1,0.8,0c0.2,0,0.2-0.2,0.1-0.2C6.7,7.2,6.2,7.1,5.9,7.4C5.8,7.6,5.9,7.8,5.7,7.9C5.5,7.9,5.3,8,5.2,8.1
				C5.1,8.2,5,8.4,5,8.5c0,0.3-0.2,0.2-0.4,0.3C4.2,8.9,4.4,9.5,3.8,9.5c-0.1,0-0.1,0.1-0.1,0.2c0,0.2,0.1,0.3,0.1,0.5
				C3.9,10.3,4.1,10.2,4.1,10.1L4.1,10.1z"/>
		</g>
	</g>
	<g>
		<g>
			<path style="fill:none;" d="M11.4,13.5c0.4,0.3,1-0.7,0.5-1C11.3,12.2,10.9,13.2,11.4,13.5z"/>
			<path style="fill:#0A0C0E;" d="M11.3,13.7c0.7,0.4,1.1-0.8,0.6-1.2C11.3,11.9,10.8,13.2,11.3,13.7c0.1,0.1,0.3-0.1,0.2-0.2
				c-0.2-0.2-0.2-0.6,0-0.8c0.3-0.4,0.5,0.3,0.4,0.4c0,0.2-0.2,0.5-0.5,0.4C11.3,13.4,11.2,13.6,11.3,13.7z"/>
		</g>
	</g>
	<g>
		<g>
			<path style="fill:none;" d="M7.9,13.7c0.4,0.3,1-0.7,0.5-1C7.8,12.3,7.4,13.3,7.9,13.7z"/>
			<path style="fill:#0A0C0E;" d="M7.8,13.8c0.7,0.4,1.1-0.8,0.6-1.2C7.8,12,7.3,13.3,7.8,13.8c0.1,0.1,0.3-0.1,0.2-0.2
				c-0.2-0.2-0.2-0.6,0-0.8c0.3-0.4,0.5,0.3,0.4,0.4c0,0.2-0.2,0.5-0.5,0.4C7.8,13.5,7.7,13.7,7.8,13.8z"/>
		</g>
	</g>
</g>
</svg>
