<?xml version="1.0" encoding="utf-8"?>
<!-- Generator: Adobe Illustrator 13.0.0, SVG Export Plug-In . SVG Version: 6.00 Build 14948)  -->
<!DOCTYPE svg PUBLIC "-//W3C//DTD SVG 1.1//EN" "http://www.w3.org/Graphics/SVG/1.1/DTD/svg11.dtd">
<svg version="1.1" id="レイヤー_1" xmlns="http://www.w3.org/2000/svg" xmlns:xlink="http://www.w3.org/1999/xlink" x="0px"
	 y="0px" width="22.4px" height="22.4px" viewBox="0 0 22.4 22.4" style="enable-background:new 0 0 22.4 22.4;"
	 xml:space="preserve">
<g>
	<g>
		<path style="fill:#FFC822;" d="M10.4,22.2c-3.1-0.1-6-2.9-6.2-6.9c-0.1-3.5,1-6.7,4.7-7.8c3.1-0.9,6.7-0.9,8.7,2.2
			c0.7,1.2,1.1,3.3,1.1,4.7C18.8,21.5,13.6,22.2,10.4,22.2z"/>
		<g>
			<path style="fill:none;" d="M10.4,22.2c-3.1-0.1-6-2.9-6.2-6.9c-0.1-3.5,1-6.7,4.7-7.8c3.1-0.9,6.7-0.9,8.7,2.2
				c0.7,1.2,1.1,3.3,1.1,4.7C18.8,21.5,13.6,22.2,10.4,22.2z"/>
			<path style="fill:#0A0C0E;" d="M10.4,22c-5-0.4-6.7-5.6-5.7-9.9c1-4.4,6.1-5.9,9.9-4.8c4.6,1.3,4.8,8.3,2.8,11.7
				C16.1,21.5,13,22.1,10.4,22c-0.2,0-0.2,0.2,0,0.2c3.1,0,6.5-0.8,7.8-4c1.6-4.2,0.7-10-4.1-11.3c-4.4-1.2-8.8,1.4-9.8,5.7
				c-0.9,4.3,1.4,9.2,6.1,9.6C10.6,22.3,10.6,22.1,10.4,22z"/>
		</g>
	</g>
	<g>
		<path style="fill:#F7F0C4;" d="M11.1,12.6c0-1-1.8-1.1-2.6-1.3c-0.9-0.1-2.5-0.5-2.7,1c-0.1,1.1,1.2,1.3,2.2,1.2
			C8,13.4,11.1,13.9,11.1,12.6z"/>
		<g>
			<path style="fill:none;" d="M11.1,12.6c0-1-1.8-1.1-2.6-1.3c-0.9-0.1-2.5-0.5-2.7,1c-0.1,1.1,1.2,1.3,2.2,1.2
				C8,13.4,11.1,13.9,11.1,12.6z"/>
			<path style="fill:#0A0C0E;" d="M11.2,12.6C11.1,11.3,9,11.2,8,11c-1.2-0.2-2.5,0.2-2.2,1.6c0.2,1,2.1,0.9,2.9,1
				C9.5,13.7,11.1,13.7,11.2,12.6c0-0.2-0.2-0.2-0.2,0c-0.1,1.2-3.2,0.8-4.1,0.6c-1-0.2-1.3-1.6-0.2-1.9c0.5-0.2,1.1,0,1.6,0
				c0.8,0.1,2.6,0.3,2.7,1.3C11,12.7,11.2,12.8,11.2,12.6z"/>
		</g>
	</g>
	<g>
		<path style="fill:#F7F0C4;" d="M17,11c-0.5-0.6-2.1-0.5-2.8-0.3c-0.9,0.3-2.4,1-1.5,2c0.5,0.5,2.2-0.1,2.9-0.2
			C15.7,12.5,17.9,12,17,11z"/>
		<g>
			<path style="fill:none;" d="M17,11c-0.5-0.6-2.1-0.5-2.8-0.3c-0.9,0.3-2.4,1-1.5,2c0.5,0.5,2.2-0.1,2.9-0.2
				C15.7,12.5,17.9,12,17,11z"/>
			<path style="fill:#0A0C0E;" d="M17.1,10.9c-0.9-0.7-2.5-0.6-3.4-0.2c-0.8,0.4-2,1.3-0.8,2.1c0.7,0.5,2.5-0.1,3.2-0.4
				C16.8,12.3,17.8,11.8,17.1,10.9c-0.1-0.1-0.3,0.1-0.2,0.2c0.8,1-2.8,1.6-3.2,1.6c-0.7,0.1-1.5-0.5-0.9-1.2
				c0.3-0.4,0.8-0.6,1.3-0.7c0.8-0.3,2.2-0.3,2.8,0.3C17.1,11.2,17.2,11.1,17.1,10.9z"/>
		</g>
	</g>
	<g>
		<path style="fill:#0A0C0E;" d="M14.9,12.5c0.8-0.5,0.4-1.9-0.4-1.8C13.6,10.7,14.1,13,14.9,12.5z"/>
	</g>
	<g>
		<path style="fill:#0A0C0E;" d="M8.8,13.3c0.8-0.5,0.4-1.9-0.4-1.8C7.5,11.4,8,13.7,8.8,13.3z"/>
	</g>
	<g>
		<g>
			<path style="fill:none;" d="M6.3,19.2c1.4,0.6,3.9,1.1,5.5,1c1.8,0,3.8-1.1,5.5-1.7"/>
			<path style="fill:#0A0C0E;" d="M6.2,19.3c1.6,0.6,3.3,0.9,5,1c2.2,0.1,4.2-0.9,6.1-1.7c0.1-0.1,0.1-0.3-0.1-0.2
				c-1.8,0.7-3.5,1.5-5.5,1.7C10,20.2,8,19.7,6.3,19C6.1,19,6.1,19.2,6.2,19.3L6.2,19.3z"/>
		</g>
	</g>
</g>
</svg>
