<?xml version="1.0" encoding="utf-8"?>
<!-- Generator: Adobe Illustrator 13.0.0, SVG Export Plug-In . SVG Version: 6.00 Build 14948)  -->
<!DOCTYPE svg PUBLIC "-//W3C//DTD SVG 1.1//EN" "http://www.w3.org/Graphics/SVG/1.1/DTD/svg11.dtd">
<svg version="1.1" id="レイヤー_1" xmlns="http://www.w3.org/2000/svg" xmlns:xlink="http://www.w3.org/1999/xlink" x="0px"
	 y="0px" width="22.4px" height="22.5px" viewBox="0 0 22.4 22.5" style="enable-background:new 0 0 22.4 22.5;"
	 xml:space="preserve">
<g>
	<g>
		<path style="fill:#006C8F;" d="M9.9,22.1c-3.1-0.4-5.8-3.6-5.5-7.7c0.3-3.5,1.8-6.7,5.6-7.4c3.2-0.6,9.9,1.3,9.1,8.1
			C18.4,22.4,13,22.5,9.9,22.1z"/>
		<g>
			<path style="fill:none;" d="M9.9,22.1c-3.1-0.4-5.8-3.6-5.5-7.7c0.3-3.5,1.8-6.7,5.6-7.4c3.2-0.6,9.9,1.3,9.1,8.1
				C18.4,22.4,13,22.5,9.9,22.1z"/>
			<path style="fill:#0A0C0E;" d="M10,22c-5.5-1-6.4-7.4-4.2-11.7c1.9-3.8,6.9-3.8,10.2-2c4,2.2,3.9,7.5,1.9,11
				C16.1,22,12.7,22.3,10,22c-0.2,0-0.2,0.2,0,0.2c3.4,0.4,7.1-0.3,8.6-3.8c1.6-4,1.1-8.9-3.4-10.8c-3.6-1.5-8.2-0.9-9.9,3.1
				c-1.8,4.4-0.7,10.5,4.7,11.5C10,22.2,10.1,22,10,22z"/>
		</g>
	</g>
	<g>
		<path style="fill:#E8E4D7;" d="M6.7,14.3c0.6,0.2,1.6-0.6,1.8-1.1c0.1-0.2,0.1-0.8-0.1-1c-0.2-0.3-0.4-0.4-1-0.4
			C6.8,11.7,5.6,14,6.7,14.3z"/>
		<g>
			<path style="fill:none;" d="M6.7,14.3c0.6,0.2,1.6-0.6,1.8-1.1c0.1-0.2,0.1-0.8-0.1-1c-0.2-0.3-0.4-0.4-1-0.4
				C6.8,11.7,5.6,14,6.7,14.3z"/>
			<path style="fill:#0A0C0E;" d="M6.7,14.4c0.7,0.1,1.7-0.5,1.9-1.2c0.3-0.8-0.2-1.5-1-1.6c-0.6,0-1.1,0.8-1.3,1.3
				C6.1,13.4,6,14.2,6.7,14.4c0.2,0,0.2-0.2,0.1-0.2c-0.9-0.3,0.1-1.9,0.5-2.3c0.2-0.2,0.6-0.1,0.8,0.1c0.4,0.2,0.4,0.7,0.3,1
				c-0.1,0.6-1.1,1.3-1.7,1.1C6.6,14.1,6.5,14.4,6.7,14.4z"/>
		</g>
	</g>
	<g>
		<path style="fill:#E8E4D7;" d="M11.1,14c-0.4-0.1-1-1-1.1-1.6c0-0.3,0-0.6,0.2-0.8c0.1-0.1,0.7-0.1,0.8-0.1
			c0.7,0.1,1.2,0.9,1.3,1.6C12.4,14,11.5,14.1,11.1,14z"/>
		<g>
			<path style="fill:none;" d="M11.1,14c-0.4-0.1-1-1-1.1-1.6c0-0.3,0-0.6,0.2-0.8c0.1-0.1,0.7-0.1,0.8-0.1c0.7,0.1,1.2,0.9,1.3,1.6
				C12.4,14,11.5,14.1,11.1,14z"/>
			<path style="fill:#0A0C0E;" d="M11.1,13.9c-0.5-0.2-0.8-0.9-1-1.4c-0.1-0.3,0-0.8,0.4-0.8c0.3,0,0.5,0,0.8,0.1
				c0.6,0.2,0.9,1,0.9,1.5C12.2,13.8,11.6,14,11.1,13.9c-0.2,0-0.2,0.2-0.1,0.2c0.6,0.1,1.2,0,1.4-0.6c0.2-0.8-0.5-1.8-1.1-2.1
				c-0.3-0.1-0.6-0.1-0.9-0.1C10,11.4,9.9,11.6,9.9,12c-0.1,0.8,0.4,1.8,1.2,2.1C11.2,14.2,11.3,13.9,11.1,13.9z"/>
		</g>
	</g>
	<g>
		<path style="fill:#E8E4D7;" d="M7.2,19.5c0.1-0.4,0.5-0.7,0.9-0.8c0.5-0.1,0.7,0.2,1.2,0.2c0.5,0,0.8-0.4,1.3-0.5c0.3,0,0.7,0,1,0
			c0.9,0.4,0.9,1.6-0.1,1.7c-0.8,0.1-1.5-0.5-2.2-0.3C8.8,19.8,7.2,20.4,7.2,19.5"/>
		<g>
			<path style="fill:none;" d="M7.2,19.5c0.1-0.4,0.5-0.7,0.9-0.8c0.5-0.1,0.7,0.2,1.2,0.2c0.5,0,0.8-0.4,1.3-0.5c0.3,0,0.7,0,1,0
				c0.9,0.4,0.9,1.6-0.1,1.7c-0.8,0.1-1.5-0.5-2.2-0.3C8.8,19.8,7.2,20.4,7.2,19.5"/>
			<path style="fill:#0A0C0E;" d="M7.3,19.5c0.6-1.4,1.6-0.3,2.5-0.7c0.5-0.2,0.9-0.4,1.4-0.4c1.2,0,1.2,1.5,0,1.5
				c-0.7,0-1.3-0.4-2-0.3C8.8,19.7,7.4,20.2,7.3,19.5c0-0.2-0.3-0.2-0.3,0c0.1,0.9,1.3,0.6,1.9,0.5c0.8-0.2,1.5,0.2,2.3,0.3
				c0.4,0,0.9-0.1,1.1-0.5c0.4-1.1-0.8-1.5-1.7-1.5c-0.3,0-0.5,0.2-0.7,0.3c-0.6,0.3-1-0.1-1.5,0c-0.6,0.1-1,0.4-1.3,0.9
				C7,19.6,7.3,19.6,7.3,19.5L7.3,19.5z"/>
		</g>
	</g>
	<g>
		<g>
			<path style="fill:none;" d="M10,9.7c1.3,0.3,2.8,1,3.8,1.8"/>
			<path style="fill:#0A0C0E;" d="M10,9.9c1.4,0.3,2.7,0.9,3.8,1.8c0.1,0.1,0.3-0.1,0.2-0.2c-1.1-0.9-2.5-1.5-3.9-1.8
				C9.9,9.6,9.8,9.8,10,9.9L10,9.9z"/>
		</g>
	</g>
	<g>
		<g>
			<path style="fill:none;" d="M8.2,9.6C7.1,9.8,6.7,11.1,6,11.8"/>
			<path style="fill:#0A0C0E;" d="M8.2,9.5C7,9.8,6.6,10.9,5.9,11.8C5.8,11.9,6,12,6.1,11.9c0.7-0.8,1-1.9,2.1-2.2
				C8.4,9.7,8.3,9.4,8.2,9.5L8.2,9.5z"/>
		</g>
	</g>
	<g>
		<g>
			<path style="fill:none;" d="M15.8,7c0.6,0.1,0.4,0.5,0.8,0.7c0.3,0.1,0.4-0.2,0.7,0.2c0.1,0.2,0.1,0.5,0.3,0.6
				c0.2,0.1,0.5-0.1,0.7,0.1c0.2,0.2,0,0.5,0.1,0.7c0.2,0.4,1,0.5,0.5,1.2"/>
			<path style="fill:#0A0C0E;" d="M15.8,7.2c0.4,0.1,0.4,0.6,0.8,0.7c0.3,0,0.5-0.1,0.7,0.3c0.1,0.2,0.1,0.3,0.2,0.4
				c0.1,0.1,0.3,0.1,0.4,0.1c0.6-0.1,0.3,0.3,0.4,0.5c0.1,0.5,0.9,0.6,0.5,1.2c-0.1,0.1,0.1,0.3,0.2,0.1c0.2-0.4,0.2-0.6-0.1-0.9
				c-0.3-0.3-0.3-0.5-0.4-0.9c0-0.2-0.1-0.3-0.3-0.3c-0.3-0.1-0.6-0.1-0.7-0.4c-0.1-0.2-0.2-0.3-0.4-0.3c-0.3-0.1-0.6,0-0.7-0.3
				C16.3,7,16.1,7,15.9,6.9C15.7,6.9,15.6,7.1,15.8,7.2L15.8,7.2z"/>
		</g>
	</g>
	<g>
		<g>
			<path style="fill:none;" d="M3.8,9.8C3.7,9.7,3.7,9.5,3.7,9.4c0.1,0,0.4,0,0.4-0.1c0.2-0.2,0.1-0.2,0.2-0.4
				c0.1-0.3,0-0.2,0.4-0.4c0.1,0,0.2,0.1,0.3,0c0.2-0.1,0-0.2,0.1-0.4c0.1-0.4,0.1-0.2,0.4-0.4c0.3-0.2,0.2,0,0.4-0.3
				C6,7.1,5.8,7.1,6.2,7C6.4,7,6.7,7,6.9,7.1"/>
			<path style="fill:#0A0C0E;" d="M3.9,9.8C3.9,9.6,3.8,9.5,3.8,9.3c0,0.1-0.1,0.1-0.1,0.2c0.3,0,0.6,0,0.7-0.3
				c0.1-0.3,0.1-0.6,0.5-0.4c0.1,0,0.2,0,0.2-0.1c0.1-0.2,0.1-0.3,0.1-0.6c0.1-0.2,0.4-0.2,0.5-0.3c0.1,0,0.2-0.2,0.2-0.3
				C6,7.4,6,7.3,6.1,7.2c0.1-0.2,0.6-0.1,0.8,0C7,7.2,7.1,7,6.9,7C6.6,6.9,6.1,6.8,5.8,7.1C5.7,7.2,5.8,7.5,5.6,7.6
				c-0.1,0-0.4,0.1-0.5,0.2C5,7.9,4.9,8.1,4.9,8.2c0,0.3-0.2,0.2-0.5,0.3C4.1,8.7,4.2,9.2,3.7,9.2c-0.1,0-0.1,0.1-0.1,0.2
				c0,0.2,0.1,0.3,0.1,0.5C3.8,10,4,9.9,3.9,9.8L3.9,9.8z"/>
		</g>
	</g>
	<g>
		<path style="fill:#0B0001;" d="M11.4,13.3c0.4,0.3,1-0.7,0.5-1.1C11.3,12,10.9,13,11.4,13.3z"/>
		<g>
			<path style="fill:none;" d="M11.4,13.3c0.4,0.3,1-0.7,0.5-1.1C11.3,12,10.9,13,11.4,13.3z"/>
			<path style="fill:#0A0C0E;" d="M11.3,13.4c0.7,0.4,1.2-0.8,0.6-1.2C11.3,11.7,10.8,13,11.3,13.4c0.1,0.1,0.3-0.1,0.2-0.2
				c-0.2-0.2-0.2-0.6,0-0.8c0.3-0.4,0.5,0.3,0.4,0.4c0,0.2-0.2,0.5-0.5,0.4C11.3,13.1,11.2,13.4,11.3,13.4z"/>
		</g>
	</g>
	<g>
		<path style="fill:#0B0001;" d="M7.8,13.5c0.4,0.3,1-0.7,0.5-1.1C7.7,12.1,7.4,13.1,7.8,13.5z"/>
		<g>
			<path style="fill:none;" d="M7.8,13.5c0.4,0.3,1-0.7,0.5-1.1C7.7,12.1,7.4,13.1,7.8,13.5z"/>
			<path style="fill:#0A0C0E;" d="M7.7,13.6c0.7,0.4,1.1-0.8,0.6-1.2C7.7,11.8,7.2,13.1,7.7,13.6c0.1,0.1,0.3-0.1,0.2-0.2
				c-0.2-0.2-0.2-0.6,0-0.8c0.3-0.4,0.5,0.3,0.4,0.4c0,0.2-0.2,0.5-0.5,0.4C7.7,13.3,7.6,13.5,7.7,13.6z"/>
		</g>
	</g>
</g>
</svg>
