<?xml version="1.0" encoding="utf-8"?>
<!-- Generator: Adobe Illustrator 13.0.0, SVG Export Plug-In . SVG Version: 6.00 Build 14948)  -->
<!DOCTYPE svg PUBLIC "-//W3C//DTD SVG 1.1//EN" "http://www.w3.org/Graphics/SVG/1.1/DTD/svg11.dtd">
<svg version="1.1" id="レイヤー_1" xmlns="http://www.w3.org/2000/svg" xmlns:xlink="http://www.w3.org/1999/xlink" x="0px"
	 y="0px" width="22.4px" height="22.5px" viewBox="0 0 22.4 22.5" style="enable-background:new 0 0 22.4 22.5;"
	 xml:space="preserve">
<g>
	<g>
		<path style="fill:#FFFFFF;" d="M10.6,22.3c-3.2-0.1-6.1-3-6.3-7c-0.1-3.5,1.1-6.8,4.8-8c3.2-0.9,10,0.2,9.9,7
			C19,21.6,13.7,22.4,10.6,22.3z"/>
		<g>
			<path style="fill:none;" d="M10.6,22.3c-3.2-0.1-6.1-3-6.3-7c-0.1-3.5,1.1-6.8,4.8-8c3.2-0.9,10,0.2,9.9,7
				C19,21.6,13.7,22.4,10.6,22.3z"/>
			<path style="fill:#0A0C0E;" d="M10.6,22.2C4.8,21.7,3.3,15,5.4,10.5c1.6-3.5,6-3.8,9.2-2.7c4.5,1.6,5.2,7,3.5,10.9
				C16.8,21.5,13.4,22.2,10.6,22.2c-0.2,0-0.2,0.2,0,0.2c3.6,0,6.8-1.1,8.1-4.7c1.6-4.3-0.2-8.8-4.5-10.3C10.3,6,6.2,7.6,4.7,11.5
				C3,16,5.4,22,10.6,22.4C10.7,22.4,10.7,22.2,10.6,22.2z"/>
		</g>
	</g>
	<g>
		<path style="fill:#E8E4D7;" d="M8.9,12.8c-1.1,0-1.3-2.3,0.1-2.3C10.4,10.5,10.1,12.8,8.9,12.8z"/>
		<g>
			<path style="fill:none;" d="M8.9,12.8c-1.1,0-1.3-2.3,0.1-2.3C10.4,10.5,10.1,12.8,8.9,12.8z"/>
			<path style="fill:#0A0C0E;" d="M8.9,12.7c-1,0-1.1-1.9,0-2C10.2,10.6,10,12.6,8.9,12.7c-0.2,0-0.2,0.3,0,0.2
				c1.4-0.1,1.6-2.5,0-2.5c-1.4,0-1.4,2.5,0,2.5C9.1,12.9,9.1,12.7,8.9,12.7z"/>
		</g>
	</g>
	<g>
		<path style="fill:#E8E4D7;" d="M14.7,12.7c-1.3,0-2.1-2.4-0.4-2.7C16.1,9.7,15.9,12.7,14.7,12.7z"/>
		<g>
			<path style="fill:none;" d="M14.7,12.7c-1.3,0-2.1-2.4-0.4-2.7C16.1,9.7,15.9,12.7,14.7,12.7z"/>
			<path style="fill:#0A0C0E;" d="M14.7,12.6c-0.6,0-1-0.6-1.2-1.1c-0.2-0.8,0.4-1.3,1.1-1.3C15.9,10.1,15.8,12.5,14.7,12.6
				c-0.2,0-0.2,0.3,0,0.2c1.4-0.1,1.5-2.8,0.1-2.9c-0.9-0.1-1.6,0.5-1.5,1.4c0.1,0.8,0.7,1.5,1.5,1.5C14.8,12.8,14.8,12.6,14.7,12.6
				z"/>
		</g>
	</g>
	<g>
		<path style="fill:#3AB2D4;" d="M8.8,14.3c0.2,0.3,1.3,2.2,0.2,2.2C8.5,16.4,8.8,14.3,8.8,14.3z"/>
		<g>
			<path style="fill:none;" d="M8.8,14.3c0.2,0.3,1.3,2.2,0.2,2.2C8.5,16.4,8.8,14.3,8.8,14.3z"/>
			<path style="fill:#0A0C0E;" d="M8.7,14.3c0.2,0.3,0.3,0.6,0.5,0.9c0.1,0.2,0.5,1.4-0.2,1.1c-0.3-0.1-0.2-1-0.2-1.2
				c0-0.3,0-0.5,0.1-0.8C9,14.2,8.7,14.1,8.7,14.3c-0.1,0.4-0.5,2.2,0.4,2.2c1.2,0,0.1-2-0.2-2.4C8.8,14.1,8.6,14.2,8.7,14.3z"/>
		</g>
	</g>
	<g>
		<path style="fill:#3AB2D4;" d="M9.3,18c0.2,0.5,1.3,2.5,0.2,2.5C8.4,20.5,9.3,18,9.3,18z"/>
		<g>
			<path style="fill:none;" d="M9.3,18c0.2,0.5,1.3,2.5,0.2,2.5C8.4,20.5,9.3,18,9.3,18z"/>
			<path style="fill:#0A0C0E;" d="M9.2,18c0.2,0.4,0.4,0.8,0.6,1.3c0.1,0.3,0.2,0.5,0.1,0.8c-0.1,0.3-0.6,0.3-0.7,0
				c-0.3-0.6,0.1-1.6,0.3-2.2C9.5,17.8,9.2,17.8,9.2,18c-0.2,0.5-0.8,2.2,0.1,2.5c0.6,0.2,0.9-0.3,0.8-0.8c-0.1-0.7-0.4-1.3-0.7-1.9
				C9.3,17.8,9.1,17.9,9.2,18z"/>
		</g>
	</g>
	<g>
		<path style="fill:#3AB2D4;" d="M14.9,16.4c-1.1-0.2-0.6-2-0.2-2.6C14.7,13.8,16.7,16.7,14.9,16.4z"/>
		<g>
			<path style="fill:none;" d="M14.9,16.4c-1.1-0.2-0.6-2-0.2-2.6C14.7,13.8,16.7,16.7,14.9,16.4z"/>
			<path style="fill:#0A0C0E;" d="M14.9,16.3c-1-0.2-0.5-1.8-0.1-2.4c-0.1,0-0.1,0-0.2,0C14.9,14.3,16.2,16.4,14.9,16.3
				c-0.2,0-0.2,0.2-0.1,0.2c1.7,0.2,0.4-2.1,0-2.8c-0.1-0.1-0.2-0.1-0.2,0c-0.5,0.7-0.9,2.5,0.3,2.8C15,16.5,15.1,16.3,14.9,16.3z"
				/>
		</g>
	</g>
	<g>
		<path style="fill:#3AB2D4;" d="M15.6,20.2c-1.1,0.5-0.6-2-0.4-2.5C15.3,17.8,16.3,20,15.6,20.2z"/>
		<g>
			<path style="fill:none;" d="M15.6,20.2c-1.1,0.5-0.6-2-0.4-2.5C15.3,17.8,16.3,20,15.6,20.2z"/>
			<path style="fill:#0A0C0E;" d="M15.6,20.1c-0.9,0.3-0.4-1.9-0.2-2.3c-0.1,0-0.1,0-0.2,0C15.3,18.2,16.1,19.9,15.6,20.1
				c-0.2,0.1,0,0.3,0.1,0.2c0.8-0.4-0.1-2.1-0.3-2.6c0-0.1-0.2-0.1-0.2,0c-0.3,0.5-0.8,3.1,0.5,2.6C15.8,20.3,15.7,20.1,15.6,20.1z"
				/>
		</g>
	</g>
</g>
</svg>
