<?xml version="1.0" encoding="utf-8"?>
<!-- Generator: Adobe Illustrator 13.0.0, SVG Export Plug-In . SVG Version: 6.00 Build 14948)  -->
<!DOCTYPE svg PUBLIC "-//W3C//DTD SVG 1.1//EN" "http://www.w3.org/Graphics/SVG/1.1/DTD/svg11.dtd">
<svg version="1.1" id="レイヤー_1" xmlns="http://www.w3.org/2000/svg" xmlns:xlink="http://www.w3.org/1999/xlink" x="0px"
	 y="0px" width="22.4px" height="22.5px" viewBox="0 0 22.4 22.5" style="enable-background:new 0 0 22.4 22.5;"
	 xml:space="preserve">
<g>
	<g>
		<g>
			<path style="fill:none;" d="M10.6,22.1c-3.1-0.1-6-2.9-6.2-6.9c-0.1-3.5,1-6.7,4.7-7.8c3.1-0.9,9.8,0.2,9.8,6.9
				C18.9,21.4,13.7,22.1,10.6,22.1z"/>
			<path style="fill:#0A0C0E;" d="M10.6,21.9c-5.7-0.4-7.2-7.1-5.1-11.5c1.6-3.4,5.9-3.8,9.1-2.7c4.4,1.5,5.2,7,3.3,10.8
				C16.5,21.3,13.3,22,10.6,21.9c-0.2,0-0.2,0.2,0,0.2c3.8,0,7-1.3,8.1-5.1c1.3-4.3-0.7-8.6-5-9.8C9.7,6.1,5.8,8,4.6,12
				c-1.3,4.4,1,9.8,6,10.2C10.7,22.2,10.7,21.9,10.6,21.9z"/>
		</g>
	</g>
	<g>
		<g>
			<path style="fill:none;" d="M10.5,13.7c0.5-0.3,0.6-0.7,0.7-1.3c0.3-1.8-1.9-2.8-3.1-1.4c-0.5,0.6-0.8,1.4-0.5,2.2
				c0.3,0.8,1.3,0.8,1.8,0.8S10.1,13.8,10.5,13.7z"/>
			<path style="fill:#0A0C0E;" d="M10.5,13.8c1.9-1.2,0.2-4.5-1.9-3.4c-1,0.5-1.7,2.1-1,3.1C8.3,14.3,9.8,14.1,10.5,13.8
				c0.1-0.1,0-0.3-0.1-0.2c-0.7,0.3-1.5,0.3-2.2,0c-1.3-0.5-0.4-2.4,0.4-2.9c0.7-0.4,1.6-0.2,2.1,0.4c0.6,0.7,0.4,2.1-0.3,2.5
				C10.3,13.6,10.4,13.8,10.5,13.8z"/>
		</g>
	</g>
	<g>
		<g>
			<path style="fill:none;" d="M10,12c0.5,0.2,0.7-1,0.1-1.1C9.5,10.7,9.5,11.8,10,12z"/>
			<path style="fill:#0A0C0E;" d="M10,12.1c0.7,0.1,0.8-1.1,0.2-1.3C9.4,10.4,9.3,11.8,10,12.1c0.1,0.1,0.2-0.2,0.1-0.2
				c-0.3-0.1-0.5-0.8,0-0.9c0.5-0.1,0.5,1,0,0.9C9.9,11.8,9.9,12.1,10,12.1z"/>
		</g>
	</g>
	<g>
		<g>
			<path style="fill:none;" d="M14.1,13.8c-1.5-0.1-1.8-3.1-0.3-3.4c1.5-0.3,2.5,0.6,2.5,2.1C16.2,13.9,14.1,13.8,14.1,13.8z"/>
			<path style="fill:#0A0C0E;" d="M14.1,13.7c-0.9-0.1-1.2-1.1-1.2-1.9c0-1.2,1.2-1.7,2.2-1.2c0.9,0.4,1.4,2.1,0.5,2.7
				C15.2,13.6,14.6,13.7,14.1,13.7c-0.2,0-0.2,0.2,0,0.2c0.8,0,1.7-0.2,2.1-0.9c0.6-1-0.3-2.5-1.3-2.8c-1-0.4-2.1,0.2-2.3,1.3
				c-0.1,1,0.3,2.2,1.4,2.3C14.2,14,14.3,13.7,14.1,13.7z"/>
		</g>
	</g>
	<g>
		<g>
			<path style="fill:none;" d="M14.7,10.6c-0.4-0.1-0.6,0.6-0.1,0.8C15.1,11.7,15.1,10.7,14.7,10.6z"/>
			<path style="fill:#0A0C0E;" d="M14.7,10.5c-0.7,0-0.6,1,0.1,1.1C15.3,11.7,15.2,10.6,14.7,10.5c-0.1,0-0.2,0.2,0,0.2
				c0.2,0,0.2,0.2,0.2,0.3c0,0.6-1-0.4-0.2-0.3C14.8,10.8,14.8,10.5,14.7,10.5z"/>
		</g>
	</g>
	<g>
		<g>
			<path style="fill:none;" d="M10.5,19.4c0.8,0.1,1.7-0.1,2.5-0.3"/>
			<path style="fill:#0A0C0E;" d="M10.5,19.5c0.9,0,1.7-0.1,2.6-0.3c0.2,0,0.1-0.3-0.1-0.2c-0.8,0.2-1.6,0.3-2.5,0.3
				C10.3,19.2,10.3,19.5,10.5,19.5L10.5,19.5z"/>
		</g>
	</g>
	<g>
		<g>
			<path style="fill:none;" d="M14.7,7.1c0.3,0.1,0.5-0.8,0.1-0.7C14.4,6.5,14.4,7.1,14.7,7.1z"/>
			<path style="fill:#0A0C0E;" d="M14.7,7.3c0.4,0,0.6-0.7,0.3-0.9C14.5,6,14.1,7,14.7,7.3c0.1,0,0.2-0.2,0.1-0.2
				c-0.4-0.2,0.2-0.7,0.1-0.3c0,0.1-0.1,0.3-0.2,0.3C14.6,7,14.6,7.2,14.7,7.3z"/>
		</g>
	</g>
	<g>
		<g>
			<path style="fill:none;" d="M15.2,5.9c-0.5-0.1-0.6-0.8-0.1-0.9C15.8,4.9,15.7,6,15.2,5.9z"/>
			<path style="fill:#0A0C0E;" d="M15.3,5.8c-0.7-0.1-0.1-0.9,0.2-0.5C15.6,5.5,15.5,5.8,15.3,5.8c-0.2,0-0.2,0.2,0,0.2
				c0.6,0,0.7-0.9,0.2-1.1c-0.7-0.2-0.9,0.9-0.2,1.1C15.4,6.1,15.4,5.8,15.3,5.8z"/>
		</g>
	</g>
	<g>
		<g>
			<path style="fill:none;" d="M14.6,2.7c0.2-0.8,1.3-1,2-0.7c0.6,0.2,1.6,1,1.6,1.6c0.1,1-1.6,1.1-2.3,1
				C15.3,4.4,14.2,3.8,14.6,2.7z"/>
			<path style="fill:#0A0C0E;" d="M14.7,2.7c0.3-0.9,1.5-0.9,2.2-0.5c0.6,0.3,1.7,1.3,0.9,1.9C16.7,5,14.3,4.3,14.7,2.7
				c0-0.2-0.2-0.2-0.2-0.1c-0.2,1.1,0.5,1.8,1.5,2c0.6,0.1,1.9,0.1,2.3-0.6c0.5-0.9-0.6-1.8-1.3-2.2c-0.8-0.5-2.1-0.2-2.4,0.7
				C14.4,2.8,14.6,2.9,14.7,2.7z"/>
		</g>
	</g>
</g>
</svg>
