<?xml version="1.0" encoding="utf-8"?>
<!-- Generator: Adobe Illustrator 13.0.0, SVG Export Plug-In . SVG Version: 6.00 Build 14948)  -->
<!DOCTYPE svg PUBLIC "-//W3C//DTD SVG 1.1//EN" "http://www.w3.org/Graphics/SVG/1.1/DTD/svg11.dtd">
<svg version="1.1" id="レイヤー_1" xmlns="http://www.w3.org/2000/svg" xmlns:xlink="http://www.w3.org/1999/xlink" x="0px"
	 y="0px" width="22.4px" height="22.5px" viewBox="0 0 22.4 22.5" style="enable-background:new 0 0 22.4 22.5;"
	 xml:space="preserve">
<g>
	<g>
		<g>
			<path style="fill:none;" d="M10.6,22.1c-3.1-0.1-6-2.9-6.2-6.9c-0.1-3.5,1-6.7,4.7-7.8c3.1-0.9,9.8,0.2,9.8,6.9
				C18.9,21.5,13.7,22.2,10.6,22.1z"/>
			<path style="fill:#0A0C0E;" d="M10.6,22c-5.7-0.4-7.2-7.1-5.1-11.5c1.6-3.4,5.9-3.8,9.1-2.7c4.4,1.5,5.2,7,3.3,10.8
				C16.5,21.4,13.3,22,10.6,22c-0.2,0-0.2,0.2,0,0.2c3.8,0,7-1.3,8.1-5.1c1.3-4.3-0.7-8.6-5-9.8c-4-1.1-7.9,0.7-9.1,4.8
				c-1.3,4.4,1,9.8,6,10.2C10.7,22.3,10.7,22,10.6,22z"/>
		</g>
	</g>
	<g>
		<g>
			<path style="fill:none;" d="M9.1,13.2c-0.6-0.1-1.2-0.7-1.2-1.6c0-0.8,0.3-1.4,1.1-1.7c1.5-0.5,2.4,0.9,1.9,2.3
				C10.5,13.2,9.8,13.2,9.1,13.2z"/>
			<path style="fill:#0A0C0E;" d="M9.2,13c-0.9-0.2-1.3-1.1-1.1-2c0.2-0.9,1.3-1.4,2.1-1c0.7,0.3,0.8,1.2,0.7,1.9
				C10.6,12.8,9.9,13.1,9.2,13c-0.2,0-0.2,0.2,0,0.2c1,0.1,1.8-0.4,2-1.4C11.4,11,10.9,10,10,9.7c-1-0.3-2,0.4-2.2,1.3
				c-0.3,1,0.3,2.1,1.3,2.3C9.3,13.3,9.3,13.1,9.2,13z"/>
		</g>
	</g>
	<g>
		<g>
			<path style="fill:none;" d="M9.6,10.9c0.5,0,0.5,1.3-0.1,1.1C9,11.8,8.9,10.9,9.6,10.9z"/>
			<path style="fill:#0A0C0E;" d="M9.5,11c0.3,0.1,0.3,0.5,0.2,0.7c-0.1,0.3-0.4,0.1-0.5-0.1C9.1,11.4,9.2,11.1,9.5,11
				c0.2,0,0.2-0.3,0-0.2c-0.8,0-0.7,1.4,0,1.4c0.7,0,0.6-1.3,0-1.4C9.4,10.8,9.4,11,9.5,11z"/>
		</g>
	</g>
	<g>
		<g>
			<path style="fill:none;" d="M13.2,10.2c0.5-0.5,1.2-0.5,1.8-0.3c1,0.3,0.8,1.4,0.7,2.2c-0.1,0.8-1.3,1.1-1.9,0.9
				C13.2,12.8,12.2,11.2,13.2,10.2z"/>
			<path style="fill:#0A0C0E;" d="M13.3,10.3c0.7-0.6,2.1-0.5,2.4,0.4c0.2,0.7,0,1.7-0.6,2C13.6,13.7,12.2,11.5,13.3,10.3
				c0.1-0.1-0.1-0.3-0.2-0.2c-0.7,0.7-0.6,1.8,0,2.5c0.6,0.7,1.6,0.7,2.3,0.2c0.6-0.4,0.7-1.8,0.4-2.4c-0.5-0.9-2-0.9-2.7-0.3
				C13,10.2,13.2,10.4,13.3,10.3z"/>
		</g>
	</g>
	<g>
		<g>
			<path style="fill:none;" d="M14.4,11.9c-0.5,0-0.6-1.2,0.1-1.1C15.1,10.9,15,11.9,14.4,11.9z"/>
			<path style="fill:#0A0C0E;" d="M14.4,11.8c-0.4,0-0.4-0.7-0.1-0.9C14.8,10.8,14.9,11.7,14.4,11.8c-0.2,0-0.1,0.3,0,0.2
				c0.7-0.1,0.7-1.5-0.1-1.3c-0.7,0.1-0.6,1.3,0.1,1.4C14.6,12,14.6,11.8,14.4,11.8z"/>
		</g>
	</g>
	<g>
		<g>
			<path style="fill:none;" d="M8.2,20.1c0.4,0.5,1.8,0.4,2.6,0.5c0.9,0.1,2.1,0.1,3,0.1c0.5,0,1.2-0.3,1.7-0.5
				c0.4-0.1,0.2-1.1,0.2-1.4c-0.2-1.2-0.9-2.6-1.7-3.5c-0.9-1-2.9-0.7-3.9,0.1c-0.5,0.5-1,1.3-1.4,1.9C8.3,18,7.7,19.7,8.2,20.1z"/>
			<path style="fill:#0A0C0E;" d="M8.1,20.2c0.7,0.5,1.8,0.4,2.6,0.5c1.3,0,2.6,0.2,3.9-0.2c0.7-0.2,1.1-0.3,1.2-1.1
				c0.1-1.2-0.5-2.5-1.2-3.5c-1-1.7-3.1-1.8-4.6-0.6C9,16,7.3,18.8,8.1,20.2c0,0.1,0.2,0,0.2-0.2c-0.8-1.3,1.2-4.1,2.1-4.8
				c0.7-0.6,1.8-0.6,2.7-0.4c1.2,0.3,1.9,1.9,2.2,2.9c0.2,0.6,0.6,2-0.3,2.4c-0.8,0.3-1.7,0.4-2.5,0.4c-1.2,0-3.3,0.2-4.2-0.5
				C8.1,19.9,8,20.1,8.1,20.2z"/>
		</g>
	</g>
	<g>
		<g>
			<path style="fill:none;" d="M6.1,8.3C5.8,8,5.9,7.5,5.9,7.1C5.5,7.2,5.5,7.4,5,7.3C4.8,7.2,4.5,7,4.2,6.9c0.3,0.7-0.6,0.7-0.9,1
				C3.6,8.4,3.4,8.6,2.9,9c0.7,0,0.6,0.6,0.6,1c0.2,0,0.5,0.1,0.6,0.2"/>
			<path style="fill:#0A0C0E;" d="M6.2,8.2C6,7.9,6,7.6,6.1,7.2C6.1,7.1,6,7,5.9,7C5.8,7,5.7,7,5.6,7.1C5.1,7.3,4.7,7,4.3,6.8
				c-0.1,0-0.2,0-0.2,0.1c0.2,0.6-0.6,0.6-0.9,0.8c-0.1,0-0.1,0.1,0,0.2c0.3,0.5-0.1,0.7-0.3,1C2.7,9,2.8,9.1,2.9,9.2
				c0.6,0.1,0.5,0.5,0.5,0.9c0,0.1,0.1,0.1,0.1,0.1c0.2,0.1,0.4,0.1,0.5,0.2c0.1,0.1,0.3-0.1,0.2-0.2C4.1,10.1,3.9,10,3.7,10
				c-0.1,0-0.1-0.3-0.1-0.5C3.5,9.1,3.3,8.9,2.9,8.9C2.9,9,3,9,3,9.1c0.2-0.2,0.5-0.4,0.5-0.7C3.7,8,3.2,8,3.7,7.8
				c0.5-0.2,0.8-0.4,0.6-0.9C4.3,7,4.2,7,4.2,7c0.3,0.2,0.7,0.3,1,0.4c0.3,0,0.5-0.2,0.8-0.2C5.9,7.2,5.9,7.1,5.8,7.1
				C5.8,7.6,5.7,8,6,8.4C6.1,8.5,6.3,8.4,6.2,8.2L6.2,8.2z"/>
		</g>
	</g>
</g>
</svg>
