<?xml version="1.0" encoding="utf-8"?>
<!-- Generator: Adobe Illustrator 13.0.0, SVG Export Plug-In . SVG Version: 6.00 Build 14948)  -->
<!DOCTYPE svg PUBLIC "-//W3C//DTD SVG 1.1//EN" "http://www.w3.org/Graphics/SVG/1.1/DTD/svg11.dtd">
<svg version="1.1" id="レイヤー_1" xmlns="http://www.w3.org/2000/svg" xmlns:xlink="http://www.w3.org/1999/xlink" x="0px"
	 y="0px" width="22.4px" height="22.5px" viewBox="0 0 22.4 22.5" style="enable-background:new 0 0 22.4 22.5;"
	 xml:space="preserve">
<g>
	<g>
		<path style="fill:#646464;" d="M10.5,22.3c-3.1-0.1-6-2.9-6.2-6.9c-0.1-3.5,1-6.7,4.7-7.8c3.1-0.9,9.8,0.2,9.8,6.9
			C18.8,21.6,13.6,22.3,10.5,22.3z"/>
	</g>
	<g>
		<path style="fill:#F8F5E3;" d="M9.1,13.3c-0.6-0.1-1.2-0.7-1.2-1.6c0-0.8,0.3-1.4,1.1-1.7c1.5-0.5,2.4,0.9,1.9,2.3
			C10.5,13.3,9.7,13.4,9.1,13.3z"/>
		<g>
			<path style="fill:none;" d="M9.1,13.3c-0.6-0.1-1.2-0.7-1.2-1.6c0-0.8,0.3-1.4,1.1-1.7c1.5-0.5,2.4,0.9,1.9,2.3
				C10.5,13.3,9.7,13.4,9.1,13.3z"/>
			<path style="fill:#0A0C0E;" d="M9.1,13.2c-0.9-0.2-1.3-1.1-1.1-2c0.2-0.9,1.3-1.4,2.1-1c0.7,0.3,0.8,1.2,0.7,1.9
				C10.6,12.9,9.9,13.3,9.1,13.2c-0.2,0-0.2,0.2,0,0.2c1,0.1,1.8-0.4,2-1.4c0.2-0.9-0.2-1.8-1.1-2.1c-1-0.3-2,0.4-2.2,1.3
				c-0.3,1,0.3,2.1,1.3,2.3C9.2,13.4,9.3,13.2,9.1,13.2z"/>
		</g>
	</g>
	<g>
		<path style="fill:#0B0001;" d="M9.5,11c0.5,0,0.5,1.3-0.1,1.1C8.9,12,8.9,11,9.5,11z"/>
		<g>
			<path style="fill:none;" d="M9.5,11c0.5,0,0.5,1.3-0.1,1.1C8.9,12,8.9,11,9.5,11z"/>
			<path style="fill:#0A0C0E;" d="M9.5,11.2c0.3,0.1,0.3,0.5,0.2,0.7c-0.1,0.3-0.4,0.1-0.5-0.1C9.1,11.6,9.2,11.2,9.5,11.2
				c0.2,0,0.2-0.3,0-0.2c-0.8,0-0.7,1.4,0,1.4c0.7,0,0.6-1.3,0-1.4C9.4,10.9,9.3,11.1,9.5,11.2z"/>
		</g>
	</g>
	<g>
		<path style="fill:#F8F5E3;" d="M13.2,10.3c0.5-0.5,1.2-0.5,1.8-0.3c1,0.3,0.8,1.4,0.7,2.2c-0.1,0.8-1.3,1.1-1.9,0.9
			C13.1,12.9,12.1,11.4,13.2,10.3z"/>
		<g>
			<path style="fill:none;" d="M13.2,10.3c0.5-0.5,1.2-0.5,1.8-0.3c1,0.3,0.8,1.4,0.7,2.2c-0.1,0.8-1.3,1.1-1.9,0.9
				C13.1,12.9,12.1,11.4,13.2,10.3z"/>
			<path style="fill:#0A0C0E;" d="M13.3,10.4c0.7-0.6,2.1-0.5,2.4,0.4c0.2,0.7,0,1.7-0.6,2C13.5,13.8,12.2,11.6,13.3,10.4
				c0.1-0.1-0.1-0.3-0.2-0.2c-0.7,0.7-0.6,1.8,0,2.5c0.6,0.7,1.6,0.7,2.3,0.2c0.6-0.4,0.7-1.8,0.4-2.4c-0.5-0.9-2-0.9-2.7-0.3
				C13,10.3,13.1,10.5,13.3,10.4z"/>
		</g>
	</g>
	<g>
		<path style="fill:#0B0001;" d="M14.4,12c-0.5,0-0.6-1.2,0.1-1.1C15.1,11,14.9,12,14.4,12z"/>
		<g>
			<path style="fill:none;" d="M14.4,12c-0.5,0-0.6-1.2,0.1-1.1C15.1,11,14.9,12,14.4,12z"/>
			<path style="fill:#0A0C0E;" d="M14.4,11.9c-0.4,0-0.4-0.7-0.1-0.9C14.7,10.9,14.9,11.8,14.4,11.9c-0.2,0-0.1,0.3,0,0.2
				c0.7-0.1,0.7-1.5-0.1-1.3c-0.7,0.1-0.6,1.3,0.1,1.4C14.5,12.2,14.5,11.9,14.4,11.9z"/>
		</g>
	</g>
	<g>
		<path style="fill:#F8F5E3;" d="M8.1,20.2c0.4,0.5,1.8,0.4,2.6,0.5c0.9,0.1,2.1,0.1,3,0.1c0.5,0,1.2-0.3,1.7-0.5
			c0.4-0.1,0.2-1.1,0.2-1.4c-0.2-1.2-0.9-2.6-1.7-3.5c-0.9-1-2.9-0.7-3.9,0.1c-0.5,0.5-1,1.3-1.4,1.9C8.2,18.1,7.7,19.8,8.1,20.2z"
			/>
		<g>
			<path style="fill:none;" d="M8.1,20.2c0.4,0.5,1.8,0.4,2.6,0.5c0.9,0.1,2.1,0.1,3,0.1c0.5,0,1.2-0.3,1.7-0.5
				c0.4-0.1,0.2-1.1,0.2-1.4c-0.2-1.2-0.9-2.6-1.7-3.5c-0.9-1-2.9-0.7-3.9,0.1c-0.5,0.5-1,1.3-1.4,1.9C8.2,18.1,7.7,19.8,8.1,20.2z"
				/>
			<path style="fill:#0A0C0E;" d="M8,20.4c0.7,0.5,1.8,0.4,2.6,0.5c1.3,0,2.6,0.2,3.9-0.2c0.7-0.2,1.1-0.3,1.2-1.1
				c0.1-1.2-0.5-2.5-1.2-3.5c-1-1.7-3.1-1.8-4.6-0.6C8.9,16.2,7.2,19,8,20.4c0,0.1,0.2,0,0.2-0.2c-0.8-1.3,1.2-4.1,2.1-4.8
				c0.7-0.6,1.8-0.6,2.7-0.4c1.2,0.3,1.9,1.9,2.2,2.9c0.2,0.6,0.6,2-0.3,2.4c-0.8,0.3-1.7,0.4-2.5,0.4c-1.2,0-3.3,0.2-4.2-0.5
				C8,20,7.9,20.3,8,20.4z"/>
		</g>
	</g>
	<g>
		<g>
			<path style="fill:none;" d="M6,8.4C5.7,8.1,5.8,7.7,5.9,7.3C5.5,7.3,5.4,7.5,5,7.4C4.7,7.3,4.4,7.2,4.2,7.1
				c0.3,0.7-0.6,0.7-0.9,1c0.4,0.5,0.1,0.7-0.4,1.1c0.7,0,0.6,0.6,0.6,1c0.2,0,0.5,0.1,0.6,0.2"/>
			<path style="fill:#0A0C0E;" d="M6.2,8.4C5.9,8,5.9,7.7,6,7.3C6,7.2,6,7.1,5.9,7.1c-0.1,0-0.2,0-0.4,0.1C5,7.4,4.6,7.1,4.2,7
				C4.1,6.9,4,7,4,7.1c0.2,0.6-0.6,0.6-0.9,0.8C3.1,8,3.1,8,3.1,8.1c0.3,0.5-0.1,0.7-0.3,1c-0.1,0.1,0,0.2,0.1,0.2
				c0.6,0.1,0.5,0.5,0.5,0.9c0,0.1,0.1,0.1,0.1,0.1c0.2,0.1,0.4,0.1,0.5,0.2c0.1,0.1,0.3-0.1,0.2-0.2c-0.2-0.2-0.3-0.2-0.5-0.3
				c-0.1,0-0.1-0.3-0.1-0.5C3.5,9.2,3.2,9.1,2.9,9c0,0.1,0.1,0.1,0.1,0.2C3.2,9,3.4,8.9,3.5,8.5C3.6,8.1,3.2,8.2,3.7,8
				C4.1,7.8,4.5,7.5,4.3,7c-0.1,0-0.1,0.1-0.2,0.1c0.3,0.2,0.7,0.3,1,0.4c0.3,0,0.5-0.2,0.8-0.2C5.9,7.3,5.8,7.3,5.8,7.2
				C5.7,7.7,5.7,8.1,5.9,8.5C6,8.6,6.2,8.5,6.2,8.4L6.2,8.4z"/>
		</g>
	</g>
</g>
</svg>
