<?xml version="1.0" encoding="utf-8"?>
<!-- Generator: Adobe Illustrator 13.0.0, SVG Export Plug-In . SVG Version: 6.00 Build 14948)  -->
<!DOCTYPE svg PUBLIC "-//W3C//DTD SVG 1.1//EN" "http://www.w3.org/Graphics/SVG/1.1/DTD/svg11.dtd">
<svg version="1.1" id="レイヤー_1" xmlns="http://www.w3.org/2000/svg" xmlns:xlink="http://www.w3.org/1999/xlink" x="0px"
	 y="0px" width="22.4px" height="22.5px" viewBox="0 0 22.4 22.5" style="enable-background:new 0 0 22.4 22.5;"
	 xml:space="preserve">
<g>
	<g>
		<g>
			<path style="fill:none;" d="M10.3,22.1C7.2,21.9,4.3,19,4.4,15c0-3.5,1.3-6.7,5-7.6c3.1-0.8,9.8,0.5,9.5,7.3
				C18.6,21.8,13.4,22.3,10.3,22.1z"/>
			<path style="fill:#0A0C0E;" d="M10.3,22c-5.6-0.6-6.9-7.4-4.7-11.7c1.8-3.5,6.4-3.6,9.6-2.1c4.1,1.9,4.4,7.2,2.5,10.7
				C16.3,21.6,13,22.1,10.3,22c-0.2,0-0.2,0.2,0,0.2c3.8,0.2,7-1,8.3-4.8c1.5-4.3-0.3-8.6-4.6-10C10,6.1,6,7.9,4.7,11.8
				c-1.5,4.4,0.7,9.8,5.6,10.4C10.4,22.3,10.4,22,10.3,22z"/>
		</g>
	</g>
	<g>
		<g>
			<path style="fill:none;" d="M9.8,12.7c-0.7-0.4-1.4-0.8-1.9-1.3C7.2,10.8,6.9,10.1,6,9.8c-0.4,0.8,0.1,1.9,0.8,2.5
				c0.9,0.8,1.8,0.8,2.8,0.3"/>
			<path style="fill:#0A0C0E;" d="M9.8,12.6c-0.9-0.5-1.7-1-2.3-1.7c-0.4-0.5-0.8-0.9-1.4-1.1c0,0-0.1,0-0.1,0.1
				c-0.4,0.9,0,1.8,0.6,2.5c0.8,0.9,2,0.9,3.1,0.5c0.1-0.1,0.1-0.3-0.1-0.2c-0.8,0.3-1.5,0.4-2.3,0c-0.4-0.2-0.7-0.6-1-1
				c-0.1-0.1-0.5-1.7,0.1-1.4c0.6,0.3,0.9,0.9,1.4,1.4c0.6,0.6,1.3,1,2,1.3C9.8,12.9,10,12.7,9.8,12.6L9.8,12.6z"/>
		</g>
	</g>
	<g>
		<g>
			<path style="fill:none;" d="M6.2,19.3c-0.2-0.5,0.1-1.4,0.2-1.8c0.1-0.6,0.4-1.1,0.8-1.7C7.7,15,8,14.1,9,14.6
				c0.7,0.4,1,1.5,1.7,1.7c0.7,0.3,1.4-1.4,2-1.7c3.8-2.4,4.4,6,2.1,6c-1.7,0-2.1-2.2-3.7-2.4c-1.4-0.1-2.4,1.6-3.5,2.2
				c-1.1,0.6-1.2-0.4-1.4-1.2"/>
			<path style="fill:#0A0C0E;" d="M6.3,19.3C6.1,17.7,7.8,13,10,15.9c0.4,0.5,0.8,0.7,1.3,0.4c1.2-0.6,1.3-2.3,3-2
				c1.1,0.2,1.4,1.7,1.6,2.5c0.2,1,0.1,2.1-0.3,3c-0.9,1.7-2.7-0.8-3.5-1.4c-0.5-0.4-1.3-0.6-1.9-0.3c-1.1,0.6-3.3,3.2-3.9,0.9
				C6.2,19,6,19,6,19.2C6.4,20.4,6.7,21,8,20.3c1.3-0.8,2.4-2.9,4.2-1.4c0.7,0.5,1.1,1.2,1.8,1.7c2.2,1.2,2.3-2.6,2.1-3.7
				c-0.3-2.1-2.3-3.9-4-1.8c-0.3,0.3-0.5,0.6-0.7,0.9c-0.7,0.8-1.7-0.7-2-1.1c-0.2-0.3-0.9-0.6-1.3-0.4c-1.3,0.9-2.3,3.3-2.1,4.9
				C6.1,19.4,6.3,19.4,6.3,19.3L6.3,19.3z"/>
		</g>
	</g>
	<g>
		<g>
			<path style="fill:none;" d="M11,12.4c0.4-0.6,1.1-1,1.6-1.6c0.5-0.5,1-1,1.6-1.3c0.4,0.6,0.1,2.4-0.2,2.9
				C13.6,13.6,11.7,12.8,11,12.4"/>
			<path style="fill:#0A0C0E;" d="M11.1,12.5c0.6-0.7,1.4-1.3,2.1-2c0.2-0.2,0.4-0.4,0.6-0.5c0.2-0.2,0.4-0.4,0.5-0.1
				c0.1,0.4,0.1,0.8,0,1.1c-0.1,0.8-0.3,1.8-1.2,1.9c-0.7,0.1-1.5-0.3-2.1-0.6c-0.1-0.1-0.3,0.1-0.1,0.2c0.9,0.5,2.3,1.1,3.1,0.3
				c0.4-0.4,0.4-1.1,0.5-1.6c0.1-0.5,0.2-1.2-0.2-1.7c0-0.1-0.1-0.1-0.2,0c-0.6,0.3-1.1,0.7-1.5,1.2c-0.6,0.6-1.2,1.1-1.8,1.7
				C10.9,12.4,11,12.6,11.1,12.5L11.1,12.5z"/>
		</g>
	</g>
	<g>
		<g>
			<path style="fill:none;" d="M16.6,7.9c0.3-0.5,0.6-0.9,1-1.3c-0.5-0.4-1-2,0-2.2c0.8-0.1,1.5,0.7,1.1,1.5c1-0.5,1.2,0.2,0.8,1
				c0.3-0.2,1-0.2,1.3,0c0.3,0.3-0.1,1-0.4,1.2c-0.6,0.3-0.7-0.4-1.1-0.4c-0.1,0-0.7,0.5-0.8,0.7c-0.2,0.1-0.3,0.3-0.4,0.4"/>
			<path style="fill:#0A0C0E;" d="M16.7,8c0.3-0.4,0.6-0.8,1-1.2c0,0,0-0.1,0-0.2c-0.3-0.3-0.4-0.7-0.5-1.1c-0.3-1.2,2-1,1.4,0.4
				c0,0.1,0.1,0.2,0.2,0.2C19,5.9,19.3,6,19.6,6.3c0,0.2-0.1,0.4-0.2,0.6c0,0.1,0.1,0.2,0.2,0.1c0.3-0.2,0.6-0.2,0.9-0.1
				c0.6,0.1,0,1.7-0.8,0.9c-0.1-0.1-0.2-0.2-0.4-0.2c-0.4,0-1.1,0.8-1.3,1.1c-0.1,0.1,0.1,0.3,0.2,0.2c0.2-0.2,0.5-0.5,0.7-0.7
				c0.4-0.4,0.6-0.1,0.9,0.1c0.3,0.2,0.8-0.1,0.9-0.3c0.7-1-0.4-1.7-1.3-1.1c0.1,0,0.1,0.1,0.2,0.1c0.4-0.9,0-1.5-1-1.1
				c0.1,0.1,0.1,0.1,0.2,0.2c0.2-0.5,0.1-1.1-0.4-1.4c-0.4-0.2-1.1-0.4-1.4,0c-0.3,0.4-0.2,1,0,1.4c0.1,0.2,0.2,0.4,0.4,0.6
				c0,0-0.9,1.1-1,1.2C16.4,8,16.6,8.1,16.7,8L16.7,8z"/>
		</g>
	</g>
	<g>
		<g>
			<path style="fill:none;" d="M5.1,9.1C4.6,8.7,4.2,8.4,3.8,8C3.4,8.4,1.7,8.9,1.6,7.9C1.5,7,2.5,6.4,3.2,6.8
				C2.8,5.8,3.4,5.6,4.2,6C4,5.7,4.1,5,4.4,4.8c0.4-0.3,1,0.1,1.2,0.5c0.3,0.6-0.5,0.6-0.5,1C5,6.4,5.6,7,5.7,7.1
				C5.8,7.3,5.9,7.4,6,7.5"/>
			<path style="fill:#0A0C0E;" d="M5.2,9C4.7,8.6,4.3,8.3,3.9,7.9c-0.1-0.1-0.1,0-0.2,0c-0.3,0.2-0.6,0.4-1,0.4
				C2.5,8.4,2.2,8.4,2,8.2c0-0.3-0.1-0.6-0.1-0.9c0.3-0.5,0.7-0.6,1.3-0.4c0.1,0,0.2,0,0.2-0.1C3.1,6.2,3.7,5.9,4.2,6.1
				C4.3,6.2,4.4,6.1,4.3,6C4,5.4,4.3,5.1,5.1,4.9c0.9,0.5,0.3,0.8,0.1,1C5,6,4.9,6.1,4.9,6.3c0,0.4,0.8,1.1,1,1.4
				c0.1,0.1,0.3-0.1,0.2-0.2C5.9,7.2,5.7,6.9,5.5,6.7C5,6.2,5.5,6.1,5.6,5.8c0.1-0.3,0-0.7-0.3-0.9c-1-0.8-1.7,0.3-1.2,1.3
				C4.2,6,4.2,6,4.3,5.9C3.4,5.5,2.7,5.8,3.1,6.8c0.1,0,0.1-0.1,0.2-0.1c-1-0.4-2.3,0.6-1.6,1.6C2,8.7,2.7,8.6,3,8.5
				c0.3-0.1,0.5-0.2,0.8-0.4c0.1,0,1,0.9,1.2,1C5.1,9.2,5.3,9.1,5.2,9L5.2,9z"/>
		</g>
	</g>
</g>
</svg>
