<?xml version="1.0" encoding="utf-8"?>
<!-- Generator: Adobe Illustrator 13.0.0, SVG Export Plug-In . SVG Version: 6.00 Build 14948)  -->
<!DOCTYPE svg PUBLIC "-//W3C//DTD SVG 1.1//EN" "http://www.w3.org/Graphics/SVG/1.1/DTD/svg11.dtd">
<svg version="1.1" id="レイヤー_1" xmlns="http://www.w3.org/2000/svg" xmlns:xlink="http://www.w3.org/1999/xlink" x="0px"
	 y="0px" width="22.4px" height="22.5px" viewBox="0 0 22.4 22.5" style="enable-background:new 0 0 22.4 22.5;"
	 xml:space="preserve">
<g>
	<g>
		<g>
			<path style="fill:none;" d="M10,22.1c-3.1-0.2-5.8-3.3-5.7-7.3c0.1-3.5,1.5-6.7,5.2-7.5c3.2-0.7,9.8,0.8,9.3,7.5
				C18.3,22,13.1,22.4,10,22.1z"/>
			<path style="fill:#0A0C0E;" d="M10,22c-5.4-0.7-6.6-7-4.7-11.3c1.6-3.5,5.8-3.9,9.1-2.8c4.5,1.6,5.1,6.8,3.3,10.7
				C16.3,21.6,12.9,22.2,10,22c-0.2,0-0.2,0.2,0,0.2c3.3,0.2,7-0.6,8.2-4.1c1.6-4.2,0.6-8.7-3.7-10.5c-3.5-1.5-8.2-0.4-9.6,3.5
				c-1.6,4.4-0.3,10.4,5.1,11.1C10.1,22.3,10.2,22,10,22z"/>
		</g>
	</g>
	<g>
		<g>
			<path style="fill:none;" d="M13,11.1c-2.4,0.9-0.2,4.4,1.3,3.5C15.8,13.8,15.5,10.2,13,11.1z"/>
			<path style="fill:#0A0C0E;" d="M12.9,11c-1.1,0.4-1.5,1.5-1,2.5c0.4,0.8,1.3,1.8,2.3,1.3c0.9-0.5,1.2-1.6,1-2.6
				C15,11.1,14,10.7,12.9,11c-0.2,0.1-0.1,0.3,0.1,0.2c0.9-0.3,1.7,0,2,1c0.2,0.7,0,1.6-0.5,2.2c-1.3,1.3-3.8-2.2-1.5-3.1
				C13.1,11.2,13.1,11,12.9,11z"/>
		</g>
	</g>
	<g>
		<g>
			<path style="fill:none;" d="M16.9,11.5c-2.3,0.1-1.6,3.7-0.1,3.3C18.4,14.5,19.1,11.5,16.9,11.5z"/>
			<path style="fill:#0A0C0E;" d="M16.9,11.4c-1,0.1-1.6,0.8-1.6,1.8c0,0.8,0.4,1.7,1.3,1.8c1,0.1,1.7-1.1,1.8-1.9
				C18.6,12.1,17.9,11.4,16.9,11.4c-0.2,0-0.2,0.2,0,0.2c2.1,0,1.3,3.1-0.3,3.1c-0.7,0-1-1-1-1.5c0-0.9,0.5-1.5,1.4-1.5
				C17.1,11.7,17.1,11.4,16.9,11.4z"/>
		</g>
	</g>
	<g>
		<g>
			<path style="fill:none;" d="M9.8,18.5c1.4,1,6.2,1.4,7.6,0.5"/>
			<path style="fill:#0A0C0E;" d="M9.7,18.6c1.9,1.2,5.7,1.6,7.7,0.5c0.1-0.1,0-0.3-0.1-0.2c-1.9,1.1-5.7,0.6-7.4-0.5
				C9.7,18.3,9.6,18.5,9.7,18.6L9.7,18.6z"/>
		</g>
	</g>
	<g>
		<g>
			<path style="fill:none;" d="M17.7,14c0.5,0,0.4-1.1-0.2-1.1C16.9,12.9,17.2,14,17.7,14z"/>
			<path style="fill:#0A0C0E;" d="M17.7,14.1c0.7-0.1,0.5-1.3-0.1-1.4C16.7,12.7,17,14,17.7,14.1c0.2,0,0.2-0.2,0-0.2
				c-0.3,0-0.7-0.6-0.3-0.8c0.4-0.3,0.8,0.8,0.3,0.8C17.6,13.9,17.6,14.1,17.7,14.1z"/>
		</g>
	</g>
	<g>
		<g>
			<path style="fill:none;" d="M14.6,13.6c0.5,0,0.4-1.1-0.2-1.1C13.8,12.5,14.1,13.6,14.6,13.6z"/>
			<path style="fill:#0A0C0E;" d="M14.6,13.7c0.7-0.1,0.5-1.3-0.1-1.4C13.6,12.3,13.9,13.6,14.6,13.7c0.2,0,0.2-0.2,0-0.2
				c-0.3,0-0.7-0.7-0.3-0.9c0.4-0.2,0.7,0.8,0.3,0.9C14.5,13.5,14.5,13.7,14.6,13.7z"/>
		</g>
	</g>
</g>
</svg>
