<?xml version="1.0" encoding="utf-8"?>
<!-- Generator: Adobe Illustrator 13.0.0, SVG Export Plug-In . SVG Version: 6.00 Build 14948)  -->
<!DOCTYPE svg PUBLIC "-//W3C//DTD SVG 1.1//EN" "http://www.w3.org/Graphics/SVG/1.1/DTD/svg11.dtd">
<svg version="1.1" id="レイヤー_1" xmlns="http://www.w3.org/2000/svg" xmlns:xlink="http://www.w3.org/1999/xlink" x="0px"
	 y="0px" width="22.4px" height="22.5px" viewBox="0 0 22.4 22.5" style="enable-background:new 0 0 22.4 22.5;"
	 xml:space="preserve">
<g>
	<g>
		<path style="fill:#1BAFB7;" d="M10.2,22.2c-3.2-0.1-6.1-3.1-6.1-7.1C4,11.6,5.2,8.3,9,7.2c3.2-0.9,10,0.4,9.8,7.2
			C18.6,21.7,13.3,22.3,10.2,22.2z"/>
		<g>
			<path style="fill:none;" d="M10.2,22.2c-3.2-0.1-6.1-3.1-6.1-7.1C4,11.6,5.2,8.3,9,7.2c3.2-0.9,10,0.4,9.8,7.2
				C18.6,21.7,13.3,22.3,10.2,22.2z"/>
			<path style="fill:#0A0C0E;" d="M10.2,22.1c-5.7-0.5-7.2-7.4-5-11.8c1.8-3.6,6.5-3.8,9.7-2.4c4.1,1.8,4.6,7.1,2.8,10.8
				C16.4,21.5,13,22.2,10.2,22.1c-0.2,0-0.2,0.2,0,0.2c3.6,0.1,6.8-1,8.2-4.6c1.6-4.2,0-8.8-4.3-10.4C10.3,5.9,6,7.4,4.5,11.3
				C2.7,15.8,5,21.9,10.2,22.3C10.3,22.4,10.3,22.1,10.2,22.1z"/>
		</g>
	</g>
	<g>
		<g>
			<path style="fill:none;" d="M12.9,10.1c0.6,1.6,2.7-1.3,3.3-1.8"/>
			<path style="fill:#0A0C0E;" d="M12.8,10.1c0.8,1.7,2.9-1.2,3.5-1.8c0.1-0.1-0.1-0.3-0.2-0.2c-0.5,0.5-2.5,3.2-3.1,1.8
				C12.9,9.9,12.7,10,12.8,10.1L12.8,10.1z"/>
		</g>
	</g>
	<g>
		<g>
			<path style="fill:none;" d="M10.3,10.3c-1,1.3-1.7,1.2-2.9,0.3C6.6,10,5.4,9.2,5,8.3"/>
			<path style="fill:#0A0C0E;" d="M10.2,10.2c-0.4,0.5-0.8,1-1.6,0.9c-0.5-0.1-1-0.5-1.3-0.8c-0.8-0.6-1.6-1.2-2.2-2
				C5,8.1,4.8,8.3,4.9,8.4c0.7,1.1,1.9,1.9,3,2.6c1,0.7,1.8,0.2,2.5-0.7C10.4,10.2,10.3,10,10.2,10.2L10.2,10.2z"/>
		</g>
	</g>
	<g>
		<path style="fill:#E8E4D7;" d="M16.9,13.8c-0.2-2.9-5.5-1.3-4.5,0C13.1,14.7,17.1,14.4,16.9,13.8z"/>
		<g>
			<path style="fill:none;" d="M16.9,13.8c-0.2-2.9-5.5-1.3-4.5,0C13.1,14.7,17.1,14.4,16.9,13.8z"/>
			<path style="fill:#0A0C0E;" d="M17,13.8c-0.1-1.2-1-1.7-2.2-1.8c-0.8,0-2.4,0.3-2.7,1.2C11.6,15.1,17.2,14.7,17,13.8
				c0-0.2-0.3-0.2-0.2,0c0.1,0.7-5.5,0.7-4.2-0.8c1.1-1.2,4-1.1,4.2,0.8C16.8,14,17.1,14,17,13.8z"/>
		</g>
	</g>
	<g>
		<path style="fill:#E8E4D7;" d="M10.1,12.8C9,10.9,5,12.4,6,14.3C7.2,14.9,11.3,14.8,10.1,12.8z"/>
		<g>
			<path style="fill:none;" d="M10.1,12.8C9,10.9,5,12.4,6,14.3C7.2,14.9,11.3,14.8,10.1,12.8z"/>
			<path style="fill:#0A0C0E;" d="M10.2,12.8c-0.7-1-2-1.1-3.1-0.7c-0.5,0.2-1,0.5-1.2,1c-0.2,0.3-0.3,1,0,1.3
				c0.3,0.3,0.9,0.3,1.3,0.3c0.7,0.1,1.3,0,2-0.1C10.2,14.4,10.7,13.7,10.2,12.8c-0.1-0.1-0.3,0-0.2,0.1c1.1,1.8-2.6,1.7-3.5,1.5
				c-1.3-0.3,0.1-1.7,0.6-2C8,11.9,9.4,12,10,12.9C10.1,13,10.3,12.9,10.2,12.8z"/>
		</g>
	</g>
	<g>
		<path style="fill:#E8E4D7;" d="M6.9,19.2c0.1,0.4,0.5,1.1,0.8,1.2c1.6,0.5,1.7-0.8,2.8-1.6c1.2-0.9,1.4,0.8,2.3,1.4
			c1.3,0.8,3.7-0.4,3.5-2c-0.2-1.4-1.7-1.6-2.7-0.9c-0.5,0.3-0.9,0.9-1.5,1.1c-0.6,0.2-1-0.3-1.5-0.7C9.7,17,8.8,16.2,7.8,17
			C6.9,17.8,6.9,19.2,6.9,19.2z"/>
		<g>
			<path style="fill:none;" d="M6.9,19.2c0.1,0.4,0.5,1.1,0.8,1.2c1.6,0.5,1.7-0.8,2.8-1.6c1.2-0.9,1.4,0.8,2.3,1.4
				c1.3,0.8,3.7-0.4,3.5-2c-0.2-1.4-1.7-1.6-2.7-0.9c-0.5,0.3-0.9,0.9-1.5,1.1c-0.6,0.2-1-0.3-1.5-0.7C9.7,17,8.8,16.2,7.8,17
				C6.9,17.8,6.9,19.2,6.9,19.2z"/>
			<path style="fill:#0A0C0E;" d="M6.8,19.2c0.3,1,0.8,1.4,1.8,1.4c1.3,0,2-3.2,3.3-1.2c1.2,1.8,3.9,1.3,4.4-0.8
				c0.2-0.6-0.3-1.5-1-1.7c-0.5-0.2-1-0.1-1.5,0c-0.9,0.3-1.3,1.6-2.6,1.1c-0.8-0.4-2.1-2.1-3.2-1.4C7.2,17.2,6.8,18,6.8,19.2
				c0,0.1,0.2,0.1,0.2,0c0-1.5,1.6-2.7,3-1.8c0.5,0.3,1,0.9,1.6,1c0.4,0.1,0.6-0.1,0.9-0.2c0.2-0.1,0.6-0.5,0.8-0.6
				c1.9-1.7,3.3,1.4,1.7,2.4c-2.1,1.4-2.4-1.1-3.8-1.6c-0.3-0.1-0.6,0.2-0.8,0.3c-0.2,0.1-0.4,0.4-0.6,0.6c-0.5,0.6-1.8,2.8-2.8-0.1
				C7,19,6.8,19.1,6.8,19.2z"/>
		</g>
	</g>
	<g>
		<path style="fill:#0B0001;" d="M6.5,14.1c0.4,0.3,1-0.7,0.5-1.1C6.4,12.7,6,13.7,6.5,14.1z"/>
		<g>
			<path style="fill:none;" d="M6.5,14.1c0.4,0.3,1-0.7,0.5-1.1C6.4,12.7,6,13.7,6.5,14.1z"/>
			<path style="fill:#0A0C0E;" d="M6.4,14.2c0.7,0.4,1.1-0.8,0.6-1.3C6.4,12.4,5.9,13.7,6.4,14.2c0.1,0.1,0.3-0.1,0.2-0.2
				c-0.2-0.2-0.2-0.6,0-0.8c0.3-0.4,0.5,0.3,0.4,0.4c0,0.2-0.2,0.5-0.5,0.4C6.4,13.9,6.3,14.1,6.4,14.2z"/>
		</g>
	</g>
	<g>
		<path style="fill:#0B0001;" d="M13.1,13.9c0.4,0.3,1-0.7,0.5-1.1C13,12.5,12.7,13.6,13.1,13.9z"/>
		<g>
			<path style="fill:none;" d="M13.1,13.9c0.4,0.3,1-0.7,0.5-1.1C13,12.5,12.7,13.6,13.1,13.9z"/>
			<path style="fill:#0A0C0E;" d="M13,14c0.7,0.4,1.1-0.8,0.6-1.3C13,12.2,12.5,13.5,13,14c0.1,0.1,0.3-0.1,0.2-0.2
				c-0.2-0.2-0.2-0.6,0-0.8c0.3-0.4,0.5,0.3,0.4,0.4c0,0.2-0.2,0.5-0.5,0.4C13,13.7,12.9,13.9,13,14z"/>
		</g>
	</g>
</g>
</svg>
