<?xml version="1.0" encoding="utf-8"?>
<!-- Generator: Adobe Illustrator 13.0.0, SVG Export Plug-In . SVG Version: 6.00 Build 14948)  -->
<!DOCTYPE svg PUBLIC "-//W3C//DTD SVG 1.1//EN" "http://www.w3.org/Graphics/SVG/1.1/DTD/svg11.dtd">
<svg version="1.1" id="レイヤー_1" xmlns="http://www.w3.org/2000/svg" xmlns:xlink="http://www.w3.org/1999/xlink" x="0px"
	 y="0px" width="22.4px" height="22.5px" viewBox="0 0 22.4 22.5" style="enable-background:new 0 0 22.4 22.5;"
	 xml:space="preserve">
<g>
	<g>
		<g>
			<path style="fill:none;" d="M10.6,22.3c-3.1-0.1-6-2.9-6.2-6.9c-0.1-3.5,1-6.7,4.7-7.8c3.1-0.9,9.8,0.2,9.8,6.9
				C18.9,21.6,13.7,22.3,10.6,22.3z"/>
			<path style="fill:#0A0C0E;" d="M10.6,22.1C5,21.7,3.4,15,5.5,10.6c1.6-3.4,5.9-3.8,9.1-2.7c4.4,1.5,5.2,7,3.3,10.8
				C16.6,21.5,13.4,22.2,10.6,22.1c-0.2,0-0.2,0.2,0,0.2c3.8,0,7-1.3,8.1-5.1c1.3-4.3-0.7-8.6-5-9.8c-4-1.1-7.9,0.7-9.1,4.8
				c-1.3,4.4,1,9.8,6,10.2C10.8,22.4,10.8,22.1,10.6,22.1z"/>
		</g>
	</g>
	<g>
		<g>
			<path style="fill:none;" d="M9,12.9c-1.1,0-1.3-2.3,0.1-2.2C10.4,10.7,10.1,12.9,9,12.9z"/>
			<path style="fill:#0A0C0E;" d="M9,12.8c-1,0-1-1.7-0.1-2C10.2,10.5,10.1,12.7,9,12.8c-0.2,0-0.2,0.3,0,0.2c1.4-0.1,1.5-2.5,0-2.5
				c-1.4,0-1.3,2.5,0,2.5C9.2,13.1,9.2,12.8,9,12.8z"/>
		</g>
	</g>
	<g>
		<g>
			<path style="fill:none;" d="M14.6,12.8c-1.2,0-2.1-2.4-0.3-2.6C16.1,9.9,15.9,12.8,14.6,12.8z"/>
			<path style="fill:#0A0C0E;" d="M14.6,12.7c-0.6,0-1-0.6-1.2-1.1c-0.2-0.8,0.4-1.3,1.1-1.3C15.8,10.3,15.8,12.6,14.6,12.7
				c-0.2,0-0.2,0.3,0,0.2c1.4-0.1,1.5-2.8,0.1-2.9c-0.9-0.1-1.6,0.5-1.5,1.4c0.1,0.7,0.7,1.5,1.4,1.5C14.8,13,14.8,12.7,14.6,12.7z"
				/>
		</g>
	</g>
	<g>
		<g>
			<path style="fill:none;" d="M8.9,14.4c0.2,0.3,1.3,2.2,0.2,2.1C8.5,16.4,8.9,14.4,8.9,14.4z"/>
			<path style="fill:#0A0C0E;" d="M8.8,14.4C9,14.7,9.1,15,9.2,15.2c0.1,0.2,0.5,1.5-0.1,1.1c-0.3-0.1-0.2-0.9-0.2-1.2
				c0-0.3,0-0.5,0.1-0.8C9,14.3,8.8,14.2,8.8,14.4c-0.1,0.3-0.4,2.2,0.3,2.2c1.2,0,0.2-1.8-0.1-2.3C8.9,14.2,8.7,14.3,8.8,14.4z"/>
		</g>
	</g>
	<g>
		<g>
			<path style="fill:none;" d="M9.3,18c0.2,0.5,1.3,2.4,0.2,2.5C8.4,20.5,9.3,18,9.3,18z"/>
			<path style="fill:#0A0C0E;" d="M9.2,18.1c0.2,0.4,0.4,0.8,0.6,1.3c0.1,0.2,0.1,0.5,0.1,0.7c0,0.4-0.5,0.4-0.7,0.2
				c-0.4-0.5,0-1.6,0.2-2.2C9.5,17.9,9.3,17.8,9.2,18.1c-0.2,0.5-0.8,2.1,0.1,2.5c0.6,0.2,0.9-0.3,0.8-0.8c-0.1-0.6-0.4-1.3-0.7-1.8
				C9.4,17.8,9.2,17.9,9.2,18.1z"/>
		</g>
	</g>
	<g>
		<g>
			<path style="fill:none;" d="M14.9,16.4c-1-0.2-0.6-2-0.2-2.5C14.7,13.9,16.6,16.7,14.9,16.4z"/>
			<path style="fill:#0A0C0E;" d="M14.9,16.3c-1-0.2-0.5-1.8-0.1-2.3c-0.1,0-0.1,0-0.2,0C14.9,14.4,16.2,16.5,14.9,16.3
				c-0.2,0-0.2,0.2-0.1,0.2c1.7,0.2,0.4-2.1,0-2.7c-0.1-0.1-0.2-0.1-0.2,0c-0.5,0.7-0.9,2.4,0.2,2.7C15,16.6,15,16.4,14.9,16.3z"/>
		</g>
	</g>
	<g>
		<g>
			<path style="fill:none;" d="M15.6,20.2c-1.1,0.5-0.6-2-0.3-2.4C15.2,17.8,16.2,20,15.6,20.2z"/>
			<path style="fill:#0A0C0E;" d="M15.5,20.1c-0.9,0.3-0.4-1.8-0.2-2.2c-0.1,0-0.1,0-0.2,0C15.3,18.3,16,19.9,15.5,20.1
				c-0.2,0.1,0,0.3,0.1,0.2c0.8-0.4-0.1-2.1-0.3-2.6c0-0.1-0.2-0.1-0.2,0c-0.3,0.5-0.8,3.1,0.5,2.6C15.7,20.3,15.7,20.1,15.5,20.1z"
				/>
		</g>
	</g>
</g>
</svg>
