<?xml version="1.0" encoding="utf-8"?>
<!-- Generator: Adobe Illustrator 13.0.0, SVG Export Plug-In . SVG Version: 6.00 Build 14948)  -->
<!DOCTYPE svg PUBLIC "-//W3C//DTD SVG 1.1//EN" "http://www.w3.org/Graphics/SVG/1.1/DTD/svg11.dtd">
<svg version="1.1" id="レイヤー_1" xmlns="http://www.w3.org/2000/svg" xmlns:xlink="http://www.w3.org/1999/xlink" x="0px"
	 y="0px" width="22.4px" height="22.4px" viewBox="0 0 22.4 22.4" style="enable-background:new 0 0 22.4 22.4;"
	 xml:space="preserve">
<g>
	<g>
		<path style="fill:#F8F5E3;" d="M10.4,22.2c-3.1-0.1-6-2.9-6.2-6.9c-0.1-3.5,1-6.7,4.7-7.8c3.1-0.9,6.7-0.9,8.7,2.2
			c0.7,1.2,1.1,3.3,1.1,4.7C18.8,21.5,13.6,22.2,10.4,22.2z"/>
		<g>
			<path style="fill:none;" d="M10.4,22.2c-3.1-0.1-6-2.9-6.2-6.9c-0.1-3.5,1-6.7,4.7-7.8c3.1-0.9,6.7-0.9,8.7,2.2
				c0.7,1.2,1.1,3.3,1.1,4.7C18.8,21.5,13.6,22.2,10.4,22.2z"/>
			<path style="fill:#0A0C0E;" d="M10.4,22c-5-0.4-6.7-5.6-5.7-9.9c1-4.4,6.1-5.9,9.9-4.8c4.6,1.3,4.8,8.3,2.8,11.7
				C16.1,21.5,13,22.1,10.4,22c-0.2,0-0.2,0.2,0,0.2c3.1,0,6.5-0.8,7.8-4c1.6-4.2,0.7-10-4.1-11.3c-4.4-1.2-8.8,1.4-9.8,5.7
				c-0.9,4.3,1.4,9.2,6.1,9.6C10.6,22.3,10.6,22.1,10.4,22z"/>
		</g>
	</g>
	<g>
		<g>
			<path style="fill:none;" d="M15.3,13.1c3.8-0.2,2-2.8-0.5-2.7C11.4,10.6,11.5,13.3,15.3,13.1z"/>
			<path style="fill:#0A0C0E;" d="M15.3,13.3c0.8-0.1,2.7-0.3,2.2-1.5c-0.4-1-1.8-1.4-2.8-1.4c-0.9,0-2.6,0.3-2.6,1.5
				C12.2,13.2,14.4,13.3,15.3,13.3c0.2,0,0.2-0.3,0-0.2c-0.8,0-2.5,0-2.8-1c-0.3-1,1.5-1.3,2.1-1.4c0.9-0.1,2,0.2,2.6,1
				c0.8,1.1-1.3,1.4-1.9,1.4C15.1,13,15.1,13.3,15.3,13.3z"/>
		</g>
	</g>
	<g>
		<g>
			<path style="fill:none;" d="M8.7,13.4c3.8-0.2,2-2.8-0.5-2.7C4.8,10.9,4.9,13.6,8.7,13.4z"/>
			<path style="fill:#0A0C0E;" d="M8.7,13.5c0.8-0.1,2.7-0.3,2.2-1.5c-0.4-1-1.8-1.4-2.8-1.4c-0.9,0-2.6,0.3-2.6,1.5
				C5.6,13.5,7.8,13.5,8.7,13.5c0.2,0,0.2-0.3,0-0.2c-0.8,0-2.5,0-2.8-1c-0.3-1,1.5-1.3,2.1-1.4c0.9-0.1,2,0.2,2.6,1
				c0.8,1.1-1.3,1.4-1.9,1.4C8.5,13.3,8.5,13.5,8.7,13.5z"/>
		</g>
	</g>
	<g>
		<g>
			<path style="fill:none;" d="M14.6,12.4c-0.5,0-0.6-1.2,0.1-1.1C15.3,11.4,15.1,12.3,14.6,12.4z"/>
			<path style="fill:#0A0C0E;" d="M14.6,12.2c-0.4,0-0.4-0.7-0.1-0.9C14.9,11.2,15.1,12.2,14.6,12.2c-0.2,0-0.1,0.3,0,0.2
				c0.7-0.1,0.7-1.5-0.1-1.3c-0.7,0.1-0.6,1.3,0.1,1.4C14.7,12.5,14.7,12.3,14.6,12.2z"/>
		</g>
	</g>
	<g>
		<g>
			<path style="fill:none;" d="M8,12.4c-0.5,0-0.6-1.2,0.1-1.1C8.7,11.4,8.6,12.4,8,12.4z"/>
			<path style="fill:#0A0C0E;" d="M8,12.3c-0.4,0-0.4-0.7-0.1-0.9C8.4,11.3,8.5,12.2,8,12.3c-0.2,0-0.1,0.3,0,0.2
				C8.8,12.4,8.8,11,8,11.2c-0.7,0.1-0.6,1.3,0.1,1.4C8.2,12.5,8.2,12.3,8,12.3z"/>
		</g>
	</g>
	<g>
		<g>
			<path style="fill:none;" d="M11.3,20.5c0.7,0,0.5,0.7,0,0.7S10.7,20.5,11.3,20.5z"/>
			<path style="fill:#0A0C0E;" d="M11.3,20.6c0.2,0,0.5,0.1,0.3,0.4C11.2,21.4,10.7,20.7,11.3,20.6c0.2,0,0.2-0.3,0-0.2
				c-0.7,0.1-0.7,0.9,0,1c0.7,0,0.8-0.9,0-1C11.1,20.4,11.1,20.6,11.3,20.6z"/>
		</g>
	</g>
	<g>
		<g>
			<g>
				<path style="fill:none;" d="M6.2,14.4c-0.3,0.5-0.4,1.4-0.4,1.4"/>
				<path style="fill:#F6628E;" d="M6.1,14.3c-0.2,0.4-0.3,0.9-0.4,1.4c0,0.2,0.2,0.2,0.2,0.1c0.1-0.5,0.2-0.9,0.4-1.3
					C6.4,14.3,6.2,14.1,6.1,14.3L6.1,14.3z"/>
			</g>
		</g>
		<g>
			<g>
				<path style="fill:none;" d="M6.9,14.4c-0.3,0.5-0.4,1.4-0.4,1.4"/>
				<path style="fill:#F6628E;" d="M6.8,14.3c-0.2,0.4-0.3,0.9-0.4,1.4c0,0.2,0.2,0.2,0.2,0.1c0.1-0.5,0.2-0.9,0.4-1.3
					C7.1,14.3,6.9,14.1,6.8,14.3L6.8,14.3z"/>
			</g>
		</g>
		<g>
			<g>
				<path style="fill:none;" d="M7.7,14.4c-0.3,0.5-0.4,1.4-0.4,1.4"/>
				<path style="fill:#F6628E;" d="M7.6,14.3c-0.2,0.4-0.3,0.9-0.4,1.4c0,0.2,0.2,0.2,0.2,0.1c0.1-0.5,0.2-0.9,0.4-1.3
					C7.9,14.3,7.7,14.1,7.6,14.3L7.6,14.3z"/>
			</g>
		</g>
		<g>
			<g>
				<path style="fill:none;" d="M8.5,14.4c-0.3,0.5-0.4,1.4-0.4,1.4"/>
				<path style="fill:#F6628E;" d="M8.4,14.3c-0.2,0.4-0.3,0.9-0.4,1.4c0,0.2,0.2,0.2,0.2,0.1c0.1-0.5,0.2-0.9,0.4-1.3
					C8.6,14.3,8.4,14.1,8.4,14.3L8.4,14.3z"/>
			</g>
		</g>
		<g>
			<g>
				<path style="fill:none;" d="M14.4,14.1c-0.3,0.5-0.4,1.4-0.4,1.4"/>
				<path style="fill:#F6628E;" d="M14.3,14.1C14.1,14.5,14,15,14,15.5c0,0.2,0.2,0.2,0.2,0.1c0.1-0.5,0.2-0.9,0.4-1.3
					C14.6,14.1,14.4,13.9,14.3,14.1L14.3,14.1z"/>
			</g>
		</g>
		<g>
			<g>
				<path style="fill:none;" d="M15.2,14.1c-0.3,0.5-0.4,1.4-0.4,1.4"/>
				<path style="fill:#F6628E;" d="M15,14.1c-0.2,0.4-0.3,0.9-0.4,1.4c0,0.2,0.2,0.2,0.2,0.1c0.1-0.5,0.2-0.9,0.4-1.3
					C15.3,14.1,15.1,13.9,15,14.1L15,14.1z"/>
			</g>
		</g>
		<g>
			<g>
				<path style="fill:none;" d="M15.9,14.1c-0.3,0.5-0.4,1.4-0.4,1.4"/>
				<path style="fill:#F6628E;" d="M15.8,14.1c-0.2,0.4-0.3,0.9-0.4,1.4c0,0.2,0.2,0.2,0.2,0.1c0.1-0.5,0.2-0.9,0.4-1.3
					C16.1,14.1,15.9,13.9,15.8,14.1L15.8,14.1z"/>
			</g>
		</g>
		<g>
			<g>
				<path style="fill:none;" d="M16.7,14.1c-0.3,0.5-0.4,1.4-0.4,1.4"/>
				<path style="fill:#F6628E;" d="M16.6,14.1c-0.2,0.4-0.3,0.9-0.4,1.4c0,0.2,0.2,0.2,0.2,0.1c0.1-0.5,0.2-0.9,0.4-1.3
					C16.9,14.1,16.7,13.9,16.6,14.1L16.6,14.1z"/>
			</g>
		</g>
	</g>
</g>
</svg>
