<?xml version="1.0" encoding="utf-8"?>
<!-- Generator: Adobe Illustrator 13.0.0, SVG Export Plug-In . SVG Version: 6.00 Build 14948)  -->
<!DOCTYPE svg PUBLIC "-//W3C//DTD SVG 1.1//EN" "http://www.w3.org/Graphics/SVG/1.1/DTD/svg11.dtd">
<svg version="1.1" id="レイヤー_1" xmlns="http://www.w3.org/2000/svg" xmlns:xlink="http://www.w3.org/1999/xlink" x="0px"
	 y="0px" width="22.4px" height="22.4px" viewBox="0 0 22.4 22.4" style="enable-background:new 0 0 22.4 22.4;"
	 xml:space="preserve">
<g>
	<g>
		<path style="fill:#006C8F;" d="M12.8,22.2c3.1-0.4,5.8-3.6,5.5-7.7c-0.3-3.5-1.8-6.7-5.6-7.4c-3.2-0.6-9.9,1.3-9.1,8.1
			C4.3,22.5,9.6,22.6,12.8,22.2z"/>
		<g>
			<path style="fill:none;" d="M12.8,22.2c3.1-0.4,5.8-3.6,5.5-7.7c-0.3-3.5-1.8-6.7-5.6-7.4c-3.2-0.6-9.9,1.3-9.1,8.1
				C4.3,22.5,9.6,22.6,12.8,22.2z"/>
			<path style="fill:#0A0C0E;" d="M12.8,22.3c5.4-1,6.5-7.1,4.7-11.5c-1.7-4-6.3-4.6-9.9-3.1c-4.4,1.8-5,6.7-3.4,10.8
				C5.6,22,9.4,22.7,12.8,22.3c0.1,0,0.1-0.3,0-0.2c-2.6,0.3-5.3,0.1-7.2-1.9C2.3,16.9,3,10.8,6.8,8.4c3.1-2,7.6-1.6,9.8,1.5
				c3,4.1,1.4,11.2-3.9,12.2C12.6,22.1,12.6,22.4,12.8,22.3z"/>
		</g>
	</g>
	<g>
		<path style="fill:#E8E4D7;" d="M16,14.4c-0.6,0.2-1.6-0.6-1.8-1.1c-0.1-0.2-0.1-0.8,0.1-1c0.2-0.3,0.4-0.4,1-0.4
			C15.8,11.9,17.1,14.1,16,14.4z"/>
		<g>
			<path style="fill:none;" d="M16,14.4c-0.6,0.2-1.6-0.6-1.8-1.1c-0.1-0.2-0.1-0.8,0.1-1c0.2-0.3,0.4-0.4,1-0.4
				C15.8,11.9,17.1,14.1,16,14.4z"/>
			<path style="fill:#0A0C0E;" d="M15.9,14.3c-0.6,0.1-1.3-0.5-1.6-1c-0.4-0.6,0.2-1.7,1-1.3C15.9,12.3,16.8,14,15.9,14.3
				c-0.2,0-0.1,0.3,0.1,0.2c0.7-0.2,0.6-0.9,0.4-1.4c-0.1-0.4-0.6-1.4-1.2-1.4c-0.9,0-1.4,0.6-1.2,1.5c0.2,0.7,1.2,1.4,2,1.3
				C16.2,14.5,16.1,14.3,15.9,14.3z"/>
		</g>
	</g>
	<g>
		<path style="fill:#E8E4D7;" d="M11.6,14.1c0.4-0.1,1-1,1.1-1.6c0-0.3,0-0.6-0.2-0.8c-0.1-0.1-0.7-0.1-0.8-0.1
			c-0.7,0.1-1.2,0.9-1.3,1.6C10.3,14.2,11.2,14.2,11.6,14.1z"/>
		<g>
			<path style="fill:none;" d="M11.6,14.1c0.4-0.1,1-1,1.1-1.6c0-0.3,0-0.6-0.2-0.8c-0.1-0.1-0.7-0.1-0.8-0.1
				c-0.7,0.1-1.2,0.9-1.3,1.6C10.3,14.2,11.2,14.2,11.6,14.1z"/>
			<path style="fill:#0A0C0E;" d="M11.6,14.2c0.7-0.3,1.2-1.3,1.2-2c0-0.8-0.7-0.9-1.4-0.7c-0.7,0.2-1.3,1.2-1.2,2
				C10.3,14.2,11,14.4,11.6,14.2c0.2,0,0.1-0.3-0.1-0.2c-0.4,0.1-0.9,0-1.1-0.4c-0.2-0.6,0.3-1.4,0.8-1.7c0.2-0.1,0.4-0.2,0.7-0.2
				c0.1,0,0.3,0,0.4,0c0.2,0,0.2,0.4,0.2,0.6c0,0.6-0.4,1.4-1,1.6C11.4,14.1,11.5,14.3,11.6,14.2z"/>
		</g>
	</g>
	<g>
		<path style="fill:#E8E4D7;" d="M15.4,19.6c-0.1-0.4-0.5-0.7-0.9-0.8c-0.5-0.1-0.7,0.2-1.2,0.2c-0.5,0-0.8-0.4-1.3-0.5
			c-0.3,0-0.7,0-1,0c-0.9,0.4-0.9,1.6,0.1,1.7c0.8,0.1,1.5-0.4,2.2-0.3C13.9,20,15.5,20.5,15.4,19.6"/>
		<g>
			<path style="fill:none;" d="M15.4,19.6c-0.1-0.4-0.5-0.7-0.9-0.8c-0.5-0.1-0.7,0.2-1.2,0.2c-0.5,0-0.8-0.4-1.3-0.5
				c-0.3,0-0.7,0-1,0c-0.9,0.4-0.9,1.6,0.1,1.7c0.8,0.1,1.5-0.4,2.2-0.3C13.9,20,15.5,20.5,15.4,19.6"/>
			<path style="fill:#0A0C0E;" d="M15.6,19.6c-0.2-0.4-0.5-0.8-1-0.9c-0.5-0.1-0.9,0.2-1.4,0.1c-0.4-0.1-0.7-0.3-1-0.4
				c-0.9-0.2-1.9,0.3-1.8,1.3c0.2,1.4,2.6,0.3,3.3,0.4C14.2,20.2,15.5,20.6,15.6,19.6c0.1-0.1-0.2-0.1-0.2,0.1
				c-0.1,0.7-1.4,0.3-1.8,0.2c-0.7-0.1-1.4,0.2-2.1,0.3c-0.9,0.1-1.2-0.9-0.5-1.4c0.5-0.3,1.3-0.1,1.7,0.1c0.2,0.1,0.5,0.3,0.7,0.2
				c0.7-0.1,1.5-0.6,2,0.5C15.4,19.8,15.6,19.7,15.6,19.6L15.6,19.6z"/>
		</g>
	</g>
	<g>
		<g>
			<path style="fill:none;" d="M12.7,9.9c-1.3,0.3-2.8,1-3.8,1.8"/>
			<path style="fill:#0A0C0E;" d="M12.6,9.8c-1.4,0.3-2.8,0.9-3.9,1.8c-0.1,0.1,0.1,0.3,0.2,0.2c1.1-0.9,2.4-1.5,3.8-1.8
				C12.9,10,12.8,9.7,12.6,9.8L12.6,9.8z"/>
		</g>
	</g>
	<g>
		<g>
			<path style="fill:none;" d="M14.5,9.7c1.1,0.3,1.5,1.5,2.2,2.3"/>
			<path style="fill:#0A0C0E;" d="M14.4,9.8c1.1,0.3,1.5,1.4,2.1,2.2c0.1,0.1,0.3-0.1,0.2-0.2c-0.7-0.8-1.1-2-2.2-2.3
				C14.3,9.6,14.3,9.8,14.4,9.8L14.4,9.8z"/>
		</g>
	</g>
	<g>
		<g>
			<path style="fill:none;" d="M6.8,7.2C6.2,7.3,6.5,7.7,6,7.9C5.7,7.9,5.7,7.7,5.4,8C5.3,8.2,5.3,8.5,5.1,8.6
				c-0.2,0.1-0.5-0.1-0.7,0c-0.2,0.2,0,0.5-0.1,0.7c-0.2,0.4-1,0.5-0.5,1.2"/>
			<path style="fill:#0A0C0E;" d="M6.8,7.1c-0.2,0-0.3,0.1-0.5,0.2C6.1,7.6,6,7.7,5.6,7.7C5.5,7.7,5.3,7.9,5.3,8
				c0,0.1-0.1,0.2-0.1,0.3C5,8.7,4.7,8.4,4.5,8.5c-0.2,0-0.2,0.1-0.3,0.3c-0.1,0.3,0,0.6-0.3,0.8c-0.4,0.3-0.4,0.6-0.2,1
				c0.1,0.1,0.3,0,0.2-0.1C3.5,9.8,4.3,9.8,4.4,9.4c0-0.2-0.1-0.7,0.4-0.6c0.1,0,0.3,0,0.4,0c0.1-0.1,0.2-0.2,0.2-0.3
				C5.5,8.1,5.7,8,5.9,8c0.5-0.1,0.5-0.6,0.9-0.7C7,7.3,7,7,6.8,7.1L6.8,7.1z"/>
		</g>
	</g>
	<g>
		<g>
			<path style="fill:none;" d="M18.9,10C18.9,9.8,19,9.7,19,9.5c-0.1,0-0.4,0-0.4-0.1c-0.2-0.2-0.1-0.2-0.2-0.4
				c-0.1-0.3,0-0.2-0.4-0.4c-0.1,0-0.2,0.1-0.3,0c-0.2-0.1,0-0.2-0.1-0.4c-0.1-0.4-0.1-0.2-0.4-0.4c-0.3-0.2-0.2,0-0.4-0.3
				c-0.2-0.3,0.1-0.3-0.3-0.4c-0.2-0.1-0.5,0-0.7,0.1"/>
			<path style="fill:#0A0C0E;" d="M19,10c0.1-0.2,0.1-0.3,0.1-0.5c0-0.1,0-0.2-0.1-0.2c-0.5,0-0.4-0.5-0.7-0.7
				c-0.1-0.1-0.3-0.1-0.4-0.1c-0.1,0-0.2-0.5-0.2-0.6c-0.1-0.1-0.3-0.1-0.3-0.2c-0.3-0.1-0.4-0.2-0.4-0.5c-0.1-0.4-0.9-0.2-1.1-0.2
				c-0.2,0-0.1,0.3,0.1,0.2c0.3-0.1,0.7-0.2,0.8,0.2c0.1,0.1,0.1,0.3,0.3,0.4C17,8,17.2,8,17.3,8.1c0.3,0.1,0.1,0.4,0.2,0.6
				c0.2,0.4,0.8,0,0.8,0.6c0,0.4,0.5,0.4,0.7,0.4c0-0.1-0.1-0.1-0.1-0.2c0,0.2-0.1,0.3-0.1,0.5C18.7,10.1,18.9,10.2,19,10L19,10z"/>
		</g>
	</g>
	<g>
		<path style="fill:#0B0001;" d="M11.3,13.5c-0.4,0.3-1-0.7-0.5-1.1C11.4,12.1,11.7,13.2,11.3,13.5z"/>
		<g>
			<path style="fill:none;" d="M11.3,13.5c-0.4,0.3-1-0.7-0.5-1.1C11.4,12.1,11.7,13.2,11.3,13.5z"/>
			<path style="fill:#0A0C0E;" d="M11.2,13.4c-0.4,0.2-0.6-0.6-0.4-0.8C11.1,12.2,11.6,13.1,11.2,13.4c-0.1,0.1,0,0.3,0.2,0.2
				c0.5-0.5,0.1-1.6-0.6-1.2c-0.6,0.3-0.1,1.7,0.6,1.3C11.5,13.5,11.4,13.3,11.2,13.4z"/>
		</g>
	</g>
	<g>
		<path style="fill:#0B0001;" d="M14.9,13.6c-0.4,0.3-1-0.7-0.5-1.1C15,12.2,15.3,13.3,14.9,13.6z"/>
		<g>
			<path style="fill:none;" d="M14.9,13.6c-0.4,0.3-1-0.7-0.5-1.1C15,12.2,15.3,13.3,14.9,13.6z"/>
			<path style="fill:#0A0C0E;" d="M14.8,13.5c-0.4,0.2-0.6-0.6-0.4-0.8C14.7,12.3,15.1,13.2,14.8,13.5c-0.1,0.1,0,0.3,0.2,0.2
				c0.5-0.5,0.1-1.6-0.6-1.2c-0.6,0.3-0.1,1.7,0.6,1.3C15.1,13.6,15,13.4,14.8,13.5z"/>
		</g>
	</g>
</g>
</svg>
