<?xml version="1.0" encoding="utf-8"?>
<!-- Generator: Adobe Illustrator 13.0.0, SVG Export Plug-In . SVG Version: 6.00 Build 14948)  -->
<!DOCTYPE svg PUBLIC "-//W3C//DTD SVG 1.1//EN" "http://www.w3.org/Graphics/SVG/1.1/DTD/svg11.dtd">
<svg version="1.1" id="レイヤー_1" xmlns="http://www.w3.org/2000/svg" xmlns:xlink="http://www.w3.org/1999/xlink" x="0px"
	 y="0px" width="22.4px" height="22.4px" viewBox="0 0 22.4 22.4" style="enable-background:new 0 0 22.4 22.4;"
	 xml:space="preserve">
<g>
	<g>
		<path style="fill:#006C8F;" d="M9.7,22.2c-3.1-0.4-5.8-3.6-5.5-7.7C4.5,11.1,6,7.9,9.9,7.2c3.2-0.6,9.9,1.3,9.1,8.1
			C18.2,22.5,12.8,22.6,9.7,22.2z"/>
		<g>
			<path style="fill:none;" d="M9.7,22.2c-3.1-0.4-5.8-3.6-5.5-7.7C4.5,11.1,6,7.9,9.9,7.2c3.2-0.6,9.9,1.3,9.1,8.1
				C18.2,22.5,12.8,22.6,9.7,22.2z"/>
			<path style="fill:#0A0C0E;" d="M9.7,22.1c-5.5-1-6.4-7.4-4.2-11.7c1.9-3.8,6.9-3.8,10.2-2c4,2.2,3.9,7.5,1.9,11
				C15.9,22.1,12.5,22.4,9.7,22.1c-0.2,0-0.2,0.2,0,0.2c3.4,0.4,7.1-0.3,8.6-3.8c1.6-4,1.1-8.9-3.4-10.8C11.3,6.3,6.7,6.8,5,10.8
				c-1.8,4.4-0.7,10.5,4.7,11.5C9.8,22.4,9.9,22.1,9.7,22.1z"/>
		</g>
	</g>
	<g>
		<path style="fill:#E8E4D7;" d="M6.5,14.4c0.6,0.2,1.6-0.6,1.8-1.1c0.1-0.2,0.1-0.8-0.1-1c-0.2-0.3-0.4-0.4-1-0.4
			C6.6,11.9,5.3,14.1,6.5,14.4z"/>
		<g>
			<path style="fill:none;" d="M6.5,14.4c0.6,0.2,1.6-0.6,1.8-1.1c0.1-0.2,0.1-0.8-0.1-1c-0.2-0.3-0.4-0.4-1-0.4
				C6.6,11.9,5.3,14.1,6.5,14.4z"/>
			<path style="fill:#0A0C0E;" d="M6.4,14.5c0.7,0.1,1.7-0.5,1.9-1.2c0.3-0.8-0.2-1.5-1-1.6c-0.6,0-1.1,0.8-1.3,1.3
				C5.9,13.5,5.7,14.3,6.4,14.5c0.2,0,0.2-0.2,0.1-0.2C5.6,14,6.6,12.4,7,12c0.2-0.2,0.6-0.1,0.8,0.1c0.4,0.2,0.4,0.7,0.3,1
				c-0.1,0.6-1.1,1.2-1.7,1.1C6.4,14.3,6.3,14.5,6.4,14.5z"/>
		</g>
	</g>
	<g>
		<path style="fill:#E8E4D7;" d="M10.9,14.1c-0.4-0.1-1-1-1.1-1.6c0-0.3,0-0.6,0.2-0.8c0.1-0.1,0.7-0.1,0.8-0.1
			c0.7,0.1,1.2,0.9,1.3,1.6C12.2,14.2,11.3,14.2,10.9,14.1z"/>
		<g>
			<path style="fill:none;" d="M10.9,14.1c-0.4-0.1-1-1-1.1-1.6c0-0.3,0-0.6,0.2-0.8c0.1-0.1,0.7-0.1,0.8-0.1
				c0.7,0.1,1.2,0.9,1.3,1.6C12.2,14.2,11.3,14.2,10.9,14.1z"/>
			<path style="fill:#0A0C0E;" d="M10.9,14c-0.5-0.2-0.8-0.9-1-1.4c-0.1-0.3,0-0.8,0.4-0.8c0.3,0,0.5,0,0.8,0.1
				c0.6,0.2,0.9,1,0.9,1.5C12,14,11.3,14.1,10.9,14c-0.2,0-0.2,0.2-0.1,0.2c0.6,0.1,1.2,0,1.4-0.6c0.2-0.8-0.5-1.8-1.1-2.1
				c-0.3-0.1-0.6-0.1-0.9-0.1c-0.3,0.1-0.4,0.3-0.5,0.6c-0.1,0.8,0.4,1.8,1.2,2.1C11,14.3,11,14.1,10.9,14z"/>
		</g>
	</g>
	<g>
		<path style="fill:#E8E4D7;" d="M7,19.6c0.1-0.4,0.5-0.7,0.9-0.8C8.3,18.7,8.6,19,9.1,19c0.5,0,0.8-0.4,1.3-0.5c0.3,0,0.7,0,1,0
			c0.9,0.4,0.9,1.6-0.1,1.7c-0.8,0.1-1.5-0.4-2.2-0.3C8.6,20,7,20.5,7,19.6"/>
		<g>
			<path style="fill:none;" d="M7,19.6c0.1-0.4,0.5-0.7,0.9-0.8C8.3,18.7,8.6,19,9.1,19c0.5,0,0.8-0.4,1.3-0.5c0.3,0,0.7,0,1,0
				c0.9,0.4,0.9,1.6-0.1,1.7c-0.8,0.1-1.5-0.4-2.2-0.3C8.6,20,7,20.5,7,19.6"/>
			<path style="fill:#0A0C0E;" d="M7.1,19.6c0.6-1.4,1.6-0.3,2.5-0.7c0.5-0.2,0.9-0.4,1.4-0.4c1.2,0,1.2,1.5,0,1.5
				c-0.7,0-1.3-0.4-2-0.3C8.6,19.9,7.2,20.4,7.1,19.6c0-0.2-0.3-0.2-0.3,0c0.1,0.9,1.3,0.6,1.9,0.5c0.8-0.2,1.5,0.2,2.3,0.3
				c0.4,0,0.9-0.1,1.1-0.5c0.4-1.1-0.8-1.5-1.7-1.5c-0.3,0-0.5,0.2-0.7,0.3c-0.6,0.3-1-0.1-1.5,0c-0.6,0.1-1,0.4-1.3,0.9
				C6.8,19.7,7.1,19.8,7.1,19.6L7.1,19.6z"/>
		</g>
	</g>
	<g>
		<g>
			<path style="fill:none;" d="M9.8,9.9c1.3,0.3,2.8,1,3.8,1.8"/>
			<path style="fill:#0A0C0E;" d="M9.7,10c1.4,0.3,2.7,0.9,3.8,1.8c0.1,0.1,0.3-0.1,0.2-0.2c-1.1-0.9-2.5-1.5-3.9-1.8
				C9.7,9.7,9.6,10,9.7,10L9.7,10z"/>
		</g>
	</g>
	<g>
		<g>
			<path style="fill:none;" d="M8,9.7C6.9,10,6.5,11.2,5.8,12"/>
			<path style="fill:#0A0C0E;" d="M8,9.6c-1.2,0.3-1.5,1.5-2.2,2.3c-0.1,0.1,0.1,0.3,0.2,0.2c0.7-0.8,1-1.9,2.1-2.2
				C8.2,9.8,8.1,9.6,8,9.6L8,9.6z"/>
		</g>
	</g>
	<g>
		<g>
			<path style="fill:none;" d="M15.6,7.2c0.6,0.1,0.4,0.5,0.8,0.7c0.3,0.1,0.4-0.2,0.7,0.2c0.1,0.2,0.1,0.5,0.3,0.6
				c0.2,0.1,0.5-0.1,0.7,0c0.2,0.2,0,0.5,0.1,0.7c0.2,0.4,1,0.5,0.5,1.2"/>
			<path style="fill:#0A0C0E;" d="M15.6,7.3C16,7.4,16,7.9,16.4,8c0.3,0,0.5-0.1,0.7,0.3c0.1,0.2,0.1,0.3,0.2,0.4
				c0.1,0.1,0.3,0.1,0.4,0.1C18.2,8.7,17.9,9,18,9.3c0.1,0.5,0.9,0.6,0.5,1.2c-0.1,0.1,0.1,0.3,0.2,0.1c0.2-0.4,0.2-0.6-0.1-0.9
				c-0.3-0.3-0.3-0.5-0.4-0.9c0-0.2-0.1-0.3-0.3-0.3c-0.3-0.1-0.6-0.1-0.7-0.4c-0.1-0.2-0.2-0.3-0.4-0.3c-0.3-0.1-0.6,0-0.7-0.3
				c-0.1-0.2-0.3-0.3-0.5-0.3C15.5,7,15.4,7.3,15.6,7.3L15.6,7.3z"/>
		</g>
	</g>
	<g>
		<g>
			<path style="fill:none;" d="M3.6,10C3.5,9.8,3.5,9.7,3.5,9.5c0.1,0,0.4,0,0.4-0.1C4.1,9.3,4,9.2,4.1,9c0.1-0.3,0-0.2,0.4-0.4
				c0.1,0,0.2,0.1,0.3,0c0.2-0.1,0-0.2,0.1-0.4C5,7.9,4.9,8.1,5.2,7.9c0.3-0.2,0.2,0,0.4-0.3C5.8,7.3,5.6,7.3,6,7.2
				c0.2-0.1,0.5,0,0.7,0.1"/>
			<path style="fill:#0A0C0E;" d="M3.7,9.9C3.7,9.8,3.6,9.6,3.6,9.5c0,0.1-0.1,0.1-0.1,0.2c0.3,0,0.6,0,0.7-0.3
				C4.2,9,4.2,8.7,4.6,8.8c0.1,0,0.2,0,0.2-0.1C5,8.6,4.9,8.4,5,8.2C5.1,8,5.4,8,5.5,7.9c0.1,0,0.2-0.2,0.2-0.3
				c0-0.1,0.1-0.1,0.1-0.2c0.1-0.2,0.6-0.1,0.8,0c0.2,0,0.2-0.2,0.1-0.2C6.4,7,5.8,6.9,5.6,7.2C5.5,7.4,5.6,7.7,5.3,7.7
				C5.2,7.8,5,7.8,4.9,7.9C4.8,8,4.7,8.2,4.7,8.3c0,0.3-0.2,0.2-0.5,0.3C3.8,8.8,4,9.3,3.5,9.4c-0.1,0-0.1,0.1-0.1,0.2
				c0,0.2,0.1,0.3,0.1,0.5C3.5,10.2,3.8,10.1,3.7,9.9L3.7,9.9z"/>
		</g>
	</g>
	<g>
		<path style="fill:#0B0001;" d="M11.1,13.5c0.4,0.3,1-0.7,0.5-1.1C11.1,12.1,10.7,13.2,11.1,13.5z"/>
		<g>
			<path style="fill:none;" d="M11.1,13.5c0.4,0.3,1-0.7,0.5-1.1C11.1,12.1,10.7,13.2,11.1,13.5z"/>
			<path style="fill:#0A0C0E;" d="M11.1,13.6c0.7,0.4,1.2-0.8,0.6-1.2C11.1,11.8,10.6,13.1,11.1,13.6c0.1,0.1,0.3-0.1,0.2-0.2
				c-0.2-0.2-0.2-0.6,0-0.8c0.3-0.4,0.5,0.3,0.4,0.4c0,0.2-0.2,0.5-0.5,0.4C11.1,13.3,10.9,13.5,11.1,13.6z"/>
		</g>
	</g>
	<g>
		<path style="fill:#0B0001;" d="M7.6,13.6c0.4,0.3,1-0.7,0.5-1.1C7.5,12.2,7.1,13.3,7.6,13.6z"/>
		<g>
			<path style="fill:none;" d="M7.6,13.6c0.4,0.3,1-0.7,0.5-1.1C7.5,12.2,7.1,13.3,7.6,13.6z"/>
			<path style="fill:#0A0C0E;" d="M7.5,13.7c0.7,0.4,1.1-0.8,0.6-1.2C7.5,11.9,7,13.2,7.5,13.7c0.1,0.1,0.3-0.1,0.2-0.2
				c-0.2-0.2-0.2-0.6,0-0.8C8,12.3,8.1,13,8.1,13.1c0,0.2-0.2,0.5-0.5,0.4C7.5,13.4,7.4,13.6,7.5,13.7z"/>
		</g>
	</g>
</g>
</svg>
