<?xml version="1.0" encoding="utf-8"?>
<!-- Generator: Adobe Illustrator 13.0.0, SVG Export Plug-In . SVG Version: 6.00 Build 14948)  -->
<!DOCTYPE svg PUBLIC "-//W3C//DTD SVG 1.1//EN" "http://www.w3.org/Graphics/SVG/1.1/DTD/svg11.dtd">
<svg version="1.1" id="レイヤー_1" xmlns="http://www.w3.org/2000/svg" xmlns:xlink="http://www.w3.org/1999/xlink" x="0px"
	 y="0px" width="220.4px" height="220.4px" viewBox="0 0 22.4 22.4" style="enable-background:new 0 0 22.4 22.4;"
	 xml:space="preserve">
<g>
	<g>
		<path style="fill:#F8F5E3;" d="M12.3,22.3c3.1-0.1,6-2.9,6.2-6.9c0.1-3.5-1-6.7-4.7-7.8C10.6,6.7,7,6.7,5.1,9.8
			C4.3,11,4,13.1,4,14.5C4,21.7,9.2,22.4,12.3,22.3z"/>
		<g>
			<path style="fill:none;" d="M12.3,22.3c3.1-0.1,6-2.9,6.2-6.9c0.1-3.5-1-6.7-4.7-7.8C10.6,6.7,7,6.7,5.1,9.8
				C4.3,11,4,13.1,4,14.5C4,21.7,9.2,22.4,12.3,22.3z"/>
			<path style="fill:#0A0C0E;" d="M12.3,22.4c4.5-0.3,6.8-4.8,6.2-9C17.8,9,13.8,6.2,9.3,7C4.1,7.9,3,13.5,4.3,17.9
				C5.4,21.4,9,22.5,12.3,22.4c0.2,0,0.2-0.2,0-0.2c-2.4,0-4.7-0.4-6.5-2.2c-3-3-2.2-9.7,1.2-12c3.6-2.5,9.4-0.1,10.9,3.7
				c1.6,4.3-0.6,10.1-5.6,10.4C12.2,22.2,12.2,22.5,12.3,22.4z"/>
		</g>
	</g>
	<g>
		<g>
			<path style="fill:none;" d="M7.5,13.3c-3.8-0.2-2-2.8,0.5-2.7C11.4,10.8,11.3,13.5,7.5,13.3z"/>
			<path style="fill:#0A0C0E;" d="M7.5,13.2c-0.7,0-2.6-0.3-1.9-1.4C6,11,7.2,10.7,8,10.8c0.7,0,2.3,0.3,2.3,1.3
				c0,0.4-0.5,0.7-0.9,0.9C8.8,13.2,8.1,13.2,7.5,13.2c-0.2,0-0.2,0.2,0,0.2c0.9,0,2.9,0,3.1-1.3c0.1-1.2-1.6-1.5-2.4-1.6
				c-1-0.1-2.5,0.3-2.9,1.3c-0.5,1.2,1.5,1.5,2.2,1.6C7.6,13.4,7.6,13.2,7.5,13.2z"/>
		</g>
	</g>
	<g>
		<g>
			<path style="fill:none;" d="M14.1,13.5c-3.8-0.2-2-2.8,0.5-2.7C18,11,17.9,13.7,14.1,13.5z"/>
			<path style="fill:#0A0C0E;" d="M14.1,13.4c-0.7,0-2.6-0.3-1.9-1.4c0.5-0.8,1.6-1.1,2.5-1c0.7,0,2.3,0.3,2.3,1.3
				c0,0.4-0.5,0.7-0.9,0.9C15.4,13.4,14.7,13.4,14.1,13.4c-0.2,0-0.2,0.2,0,0.2c0.9,0,2.9,0,3.1-1.3c0.1-1.2-1.6-1.5-2.4-1.6
				c-1-0.1-2.5,0.3-2.9,1.3c-0.5,1.2,1.5,1.5,2.2,1.6C14.2,13.7,14.2,13.4,14.1,13.4z"/>
		</g>
	</g>
	<g>
		<g>
			<path style="fill:none;" d="M8.2,12.5c0.5,0,0.6-1.2-0.1-1.1C7.5,11.5,7.6,12.5,8.2,12.5z"/>
			<path style="fill:#0A0C0E;" d="M8.2,12.7c0.7,0,0.7-1.2,0.1-1.4C7.4,11.2,7.4,12.5,8.2,12.7c0.1,0,0.2-0.2,0-0.2
				c-0.5-0.1-0.5-1,0-0.9c0.3,0.1,0.3,0.8-0.1,0.9C8,12.4,8,12.7,8.2,12.7z"/>
		</g>
	</g>
	<g>
		<g>
			<path style="fill:none;" d="M14.7,12.6c0.5,0,0.6-1.2-0.1-1.1C14,11.6,14.2,12.5,14.7,12.6z"/>
			<path style="fill:#0A0C0E;" d="M14.7,12.7c0.7,0,0.7-1.2,0.1-1.4C14,11.2,13.9,12.6,14.7,12.7c0.1,0,0.2-0.2,0-0.2
				c-0.5-0.1-0.5-1,0-0.9c0.3,0.1,0.3,0.8-0.1,0.9C14.6,12.5,14.6,12.7,14.7,12.7z"/>
		</g>
	</g>
	<g>
		<g>
			<path style="fill:none;" d="M11.5,20.7c-0.7,0-0.5,0.7,0,0.7C12,21.4,12,20.7,11.5,20.7z"/>
			<path style="fill:#0A0C0E;" d="M11.5,20.6c-0.8,0-0.7,1,0,1C12.2,21.5,12.1,20.6,11.5,20.6c-0.2,0-0.2,0.2,0,0.2
				c0.5,0,0.3,0.5-0.1,0.4c-0.4-0.1-0.3-0.4,0.1-0.4C11.6,20.8,11.6,20.6,11.5,20.6z"/>
		</g>
	</g>
	<g>
		<g>
			<g>
				<path style="fill:none;" d="M16.6,14.5c0.3,0.5,0.4,1.4,0.4,1.4"/>
				<path style="fill:#F6628E;" d="M16.4,14.6c0.2,0.4,0.3,0.9,0.4,1.3c0,0.2,0.3,0.1,0.2-0.1c-0.1-0.5-0.2-1-0.4-1.4
					C16.6,14.3,16.4,14.4,16.4,14.6L16.4,14.6z"/>
			</g>
		</g>
		<g>
			<g>
				<path style="fill:none;" d="M15.8,14.5c0.3,0.5,0.4,1.4,0.4,1.4"/>
				<path style="fill:#F6628E;" d="M15.7,14.6c0.2,0.4,0.3,0.9,0.4,1.3c0,0.2,0.3,0.1,0.2-0.1c-0.1-0.5-0.2-1-0.4-1.4
					C15.9,14.3,15.7,14.4,15.7,14.6L15.7,14.6z"/>
			</g>
		</g>
		<g>
			<g>
				<path style="fill:none;" d="M15.1,14.5c0.3,0.5,0.4,1.4,0.4,1.4"/>
				<path style="fill:#F6628E;" d="M15,14.6c0.2,0.4,0.3,0.9,0.4,1.3c0,0.2,0.3,0.1,0.2-0.1c-0.1-0.5-0.2-1-0.4-1.4
					C15.1,14.3,14.9,14.4,15,14.6L15,14.6z"/>
			</g>
		</g>
		<g>
			<g>
				<path style="fill:none;" d="M14.3,14.5c0.3,0.5,0.4,1.4,0.4,1.4"/>
				<path style="fill:#F6628E;" d="M14.2,14.6c0.2,0.4,0.3,0.9,0.4,1.3c0,0.2,0.3,0.1,0.2-0.1c-0.1-0.5-0.2-1-0.4-1.4
					C14.3,14.3,14.1,14.4,14.2,14.6L14.2,14.6z"/>
			</g>
		</g>
		<g>
			<g>
				<path style="fill:none;" d="M8.3,14.3c0.3,0.5,0.4,1.4,0.4,1.4"/>
				<path style="fill:#F6628E;" d="M8.2,14.4c0.2,0.4,0.3,0.9,0.4,1.3c0,0.2,0.3,0.1,0.2-0.1c-0.1-0.5-0.2-1-0.4-1.4
					C8.4,14.1,8.1,14.2,8.2,14.4L8.2,14.4z"/>
			</g>
		</g>
		<g>
			<g>
				<path style="fill:none;" d="M7.6,14.3C7.9,14.8,8,15.7,8,15.7"/>
				<path style="fill:#F6628E;" d="M7.5,14.4c0.2,0.4,0.3,0.9,0.4,1.3c0,0.2,0.3,0.1,0.2-0.1c-0.1-0.5-0.2-1-0.4-1.4
					C7.6,14.1,7.4,14.2,7.5,14.4L7.5,14.4z"/>
			</g>
		</g>
		<g>
			<g>
				<path style="fill:none;" d="M6.8,14.3c0.3,0.5,0.4,1.4,0.4,1.4"/>
				<path style="fill:#F6628E;" d="M6.7,14.4c0.2,0.4,0.3,0.9,0.4,1.3c0,0.2,0.3,0.1,0.2-0.1c-0.1-0.5-0.2-1-0.4-1.4
					C6.9,14.1,6.6,14.2,6.7,14.4L6.7,14.4z"/>
			</g>
		</g>
		<g>
			<g>
				<path style="fill:none;" d="M6,14.3c0.3,0.5,0.4,1.4,0.4,1.4"/>
				<path style="fill:#F6628E;" d="M5.9,14.4c0.2,0.4,0.3,0.9,0.4,1.3c0,0.2,0.3,0.1,0.2-0.1c-0.1-0.5-0.2-1-0.4-1.4
					C6.1,14.1,5.9,14.2,5.9,14.4L5.9,14.4z"/>
			</g>
		</g>
	</g>
</g>
</svg>
