<?xml version="1.0" encoding="utf-8"?>
<!-- Generator: Adobe Illustrator 13.0.0, SVG Export Plug-In . SVG Version: 6.00 Build 14948)  -->
<!DOCTYPE svg PUBLIC "-//W3C//DTD SVG 1.1//EN" "http://www.w3.org/Graphics/SVG/1.1/DTD/svg11.dtd">
<svg version="1.1" id="レイヤー_1" xmlns="http://www.w3.org/2000/svg" xmlns:xlink="http://www.w3.org/1999/xlink" x="0px"
	 y="0px" width="22.4px" height="22.4px" viewBox="0 0 22.4 22.4" style="enable-background:new 0 0 22.4 22.4;"
	 xml:space="preserve">
<g>
	<g>
		<path style="fill:#F8F5E3;" d="M10.1,22.3c-3.1-0.1-6-2.9-6.2-6.9C3.9,12,5,8.7,8.7,7.6c3.1-0.9,6.7-0.9,8.7,2.2
			c0.7,1.2,1.1,3.3,1.1,4.7C18.5,21.7,13.2,22.4,10.1,22.3z"/>
		<g>
			<path style="fill:none;" d="M10.1,22.3c-3.1-0.1-6-2.9-6.2-6.9C3.9,12,5,8.7,8.7,7.6c3.1-0.9,6.7-0.9,8.7,2.2
				c0.7,1.2,1.1,3.3,1.1,4.7C18.5,21.7,13.2,22.4,10.1,22.3z"/>
			<path style="fill:#0A0C0E;" d="M10.1,22.2c-5-0.4-6.7-5.6-5.7-9.9c1-4.4,6.1-5.9,9.9-4.8c4.6,1.3,4.8,8.3,2.8,11.7
				C15.8,21.7,12.7,22.2,10.1,22.2c-0.2,0-0.2,0.2,0,0.2c3.1,0,6.5-0.8,7.8-4c1.6-4.2,0.7-10-4.1-11.3C9.4,5.9,5,8.6,4,12.9
				c-0.9,4.3,1.4,9.2,6.1,9.6C10.3,22.5,10.3,22.2,10.1,22.2z"/>
		</g>
	</g>
	<g>
		<g>
			<path style="fill:none;" d="M15,13.3c3.8-0.2,2-2.8-0.5-2.7C11.1,10.8,11.2,13.5,15,13.3z"/>
			<path style="fill:#0A0C0E;" d="M15,13.4c0.8-0.1,2.7-0.3,2.2-1.5c-0.4-1-1.8-1.4-2.8-1.4c-0.9,0-2.6,0.3-2.6,1.5
				C11.9,13.4,14.1,13.5,15,13.4c0.2,0,0.2-0.3,0-0.2c-0.8,0-2.5,0-2.8-1c-0.3-1,1.5-1.3,2.1-1.4c0.9-0.1,2,0.2,2.6,1
				c0.8,1.1-1.3,1.4-1.9,1.4C14.8,13.2,14.8,13.4,15,13.4z"/>
		</g>
	</g>
	<g>
		<g>
			<path style="fill:none;" d="M8.4,13.5c3.8-0.2,2-2.8-0.5-2.7C4.4,11,4.5,13.7,8.4,13.5z"/>
			<path style="fill:#0A0C0E;" d="M8.4,13.7c0.8-0.1,2.7-0.3,2.2-1.5c-0.4-1-1.8-1.4-2.8-1.4c-0.9,0-2.6,0.3-2.6,1.5
				C5.3,13.6,7.5,13.7,8.4,13.7c0.2,0,0.2-0.3,0-0.2c-0.8,0-2.5,0-2.8-1c-0.3-1,1.5-1.3,2.1-1.4c0.9-0.1,2,0.2,2.6,1
				c0.8,1.1-1.3,1.4-1.9,1.4C8.2,13.4,8.2,13.7,8.4,13.7z"/>
		</g>
	</g>
	<g>
		<g>
			<path style="fill:none;" d="M14.3,12.5c-0.5,0-0.6-1.2,0.1-1.1C14.9,11.5,14.8,12.5,14.3,12.5z"/>
			<path style="fill:#0A0C0E;" d="M14.3,12.4c-0.4,0-0.4-0.7-0.1-0.9C14.6,11.4,14.8,12.3,14.3,12.4c-0.2,0-0.1,0.3,0,0.2
				c0.7-0.1,0.7-1.5-0.1-1.3c-0.7,0.1-0.6,1.3,0.1,1.4C14.4,12.7,14.4,12.4,14.3,12.4z"/>
		</g>
	</g>
	<g>
		<g>
			<path style="fill:none;" d="M7.7,12.6c-0.5,0-0.6-1.2,0.1-1.1C8.4,11.6,8.2,12.5,7.7,12.6z"/>
			<path style="fill:#0A0C0E;" d="M7.7,12.5c-0.4,0-0.4-0.7-0.1-0.9C8.1,11.4,8.2,12.4,7.7,12.5c-0.2,0-0.1,0.3,0,0.2
				c0.7-0.1,0.7-1.5-0.1-1.3C7,11.5,7,12.7,7.7,12.7C7.9,12.7,7.9,12.5,7.7,12.5z"/>
		</g>
	</g>
	<g>
		<g>
			<path style="fill:none;" d="M11,20.7c0.7,0,0.5,0.7,0,0.7C10.5,21.4,10.4,20.7,11,20.7z"/>
			<path style="fill:#0A0C0E;" d="M11,20.8c0.2,0,0.5,0.1,0.3,0.3C10.9,21.5,10.3,20.9,11,20.8c0.2,0,0.2-0.3,0-0.2
				c-0.7,0.1-0.7,0.9,0,1c0.7,0,0.8-0.9,0-1C10.8,20.6,10.8,20.8,11,20.8z"/>
		</g>
	</g>
	<g>
		<g>
			<g>
				<path style="fill:none;" d="M5.9,14.5c-0.3,0.5-0.4,1.4-0.4,1.4"/>
				<path style="fill:#F6628E;" d="M5.8,14.5c-0.2,0.4-0.3,0.9-0.4,1.4c0,0.2,0.2,0.2,0.2,0.1C5.7,15.5,5.8,15,6,14.6
					C6.1,14.4,5.8,14.3,5.8,14.5L5.8,14.5z"/>
			</g>
		</g>
		<g>
			<g>
				<path style="fill:none;" d="M6.6,14.5c-0.3,0.5-0.4,1.4-0.4,1.4"/>
				<path style="fill:#F6628E;" d="M6.5,14.5c-0.2,0.4-0.3,0.9-0.4,1.4c0,0.2,0.2,0.2,0.2,0.1c0.1-0.5,0.2-0.9,0.4-1.3
					C6.8,14.4,6.6,14.3,6.5,14.5L6.5,14.5z"/>
			</g>
		</g>
		<g>
			<g>
				<path style="fill:none;" d="M7.4,14.5C7.1,15,7,15.9,7,15.9"/>
				<path style="fill:#F6628E;" d="M7.3,14.5c-0.2,0.4-0.3,0.9-0.4,1.4c0,0.2,0.2,0.2,0.2,0.1c0.1-0.5,0.2-0.9,0.4-1.3
					C7.6,14.4,7.3,14.3,7.3,14.5L7.3,14.5z"/>
			</g>
		</g>
		<g>
			<g>
				<path style="fill:none;" d="M8.2,14.5c-0.3,0.5-0.4,1.4-0.4,1.4"/>
				<path style="fill:#F6628E;" d="M8.1,14.5c-0.2,0.4-0.3,0.9-0.4,1.4c0,0.2,0.2,0.2,0.2,0.1C8,15.5,8.1,15,8.3,14.6
					C8.3,14.4,8.1,14.3,8.1,14.5L8.1,14.5z"/>
			</g>
		</g>
		<g>
			<g>
				<path style="fill:none;" d="M14.1,14.3c-0.3,0.5-0.4,1.4-0.4,1.4"/>
				<path style="fill:#F6628E;" d="M14,14.2c-0.2,0.4-0.3,0.9-0.4,1.4c0,0.2,0.2,0.2,0.2,0.1c0.1-0.5,0.2-0.9,0.4-1.3
					C14.3,14.2,14.1,14.1,14,14.2L14,14.2z"/>
			</g>
		</g>
		<g>
			<g>
				<path style="fill:none;" d="M14.8,14.3c-0.3,0.5-0.4,1.4-0.4,1.4"/>
				<path style="fill:#F6628E;" d="M14.7,14.2c-0.2,0.4-0.3,0.9-0.4,1.4c0,0.2,0.2,0.2,0.2,0.1c0.1-0.5,0.2-0.9,0.4-1.3
					C15,14.2,14.8,14.1,14.7,14.2L14.7,14.2z"/>
			</g>
		</g>
		<g>
			<g>
				<path style="fill:none;" d="M15.6,14.3c-0.3,0.5-0.4,1.4-0.4,1.4"/>
				<path style="fill:#F6628E;" d="M15.5,14.2c-0.2,0.4-0.3,0.9-0.4,1.4c0,0.2,0.2,0.2,0.2,0.1c0.1-0.5,0.2-0.9,0.4-1.3
					C15.8,14.2,15.6,14.1,15.5,14.2L15.5,14.2z"/>
			</g>
		</g>
		<g>
			<g>
				<path style="fill:none;" d="M16.4,14.3c-0.3,0.5-0.4,1.4-0.4,1.4"/>
				<path style="fill:#F6628E;" d="M16.3,14.2c-0.2,0.4-0.3,0.9-0.4,1.4c0,0.2,0.2,0.2,0.2,0.1c0.1-0.5,0.2-0.9,0.4-1.3
					C16.6,14.2,16.4,14.1,16.3,14.2L16.3,14.2z"/>
			</g>
		</g>
	</g>
</g>
</svg>
