<?xml version="1.0" encoding="utf-8"?>
<!-- Generator: Adobe Illustrator 13.0.0, SVG Export Plug-In . SVG Version: 6.00 Build 14948)  -->
<!DOCTYPE svg PUBLIC "-//W3C//DTD SVG 1.1//EN" "http://www.w3.org/Graphics/SVG/1.1/DTD/svg11.dtd">
<svg version="1.1" id="レイヤー_1" xmlns="http://www.w3.org/2000/svg" xmlns:xlink="http://www.w3.org/1999/xlink" x="0px"
	 y="0px" width="22.4px" height="22.4px" viewBox="0 0 22.4 22.4" style="enable-background:new 0 0 22.4 22.4;"
	 xml:space="preserve">
<g>
	<g>
		<path style="fill:#646464;" d="M10.9,22.4c-3.1-0.1-6-2.9-6.2-6.9c-0.1-3.5,1-6.7,4.7-7.8c3.1-0.9,9.8,0.2,9.8,6.9
			C19.2,21.8,14,22.5,10.9,22.4z"/>
	</g>
	<g>
		<path style="fill:#F8F5E3;" d="M9.5,13.5c-0.6-0.1-1.2-0.7-1.2-1.6c0-0.8,0.3-1.4,1.1-1.7c1.5-0.5,2.4,0.9,1.9,2.3
			C10.9,13.5,10.1,13.6,9.5,13.5z"/>
		<g>
			<path style="fill:none;" d="M9.5,13.5c-0.6-0.1-1.2-0.7-1.2-1.6c0-0.8,0.3-1.4,1.1-1.7c1.5-0.5,2.4,0.9,1.9,2.3
				C10.9,13.5,10.1,13.6,9.5,13.5z"/>
			<path style="fill:#0A0C0E;" d="M9.5,13.4c-0.9-0.2-1.3-1.1-1.1-2c0.2-0.9,1.3-1.4,2.1-1c0.7,0.3,0.8,1.2,0.7,1.9
				C11,13.1,10.3,13.4,9.5,13.4c-0.2,0-0.2,0.2,0,0.2c1,0.1,1.8-0.4,2-1.4c0.2-0.9-0.2-1.8-1.1-2.1c-1-0.3-2,0.4-2.2,1.3
				c-0.3,1,0.3,2.1,1.3,2.3C9.6,13.6,9.7,13.4,9.5,13.4z"/>
		</g>
	</g>
	<g>
		<path style="fill:#0B0001;" d="M9.9,11.2c0.5,0,0.5,1.3-0.1,1.1C9.3,12.2,9.3,11.2,9.9,11.2z"/>
		<g>
			<path style="fill:none;" d="M9.9,11.2c0.5,0,0.5,1.3-0.1,1.1C9.3,12.2,9.3,11.2,9.9,11.2z"/>
			<path style="fill:#0A0C0E;" d="M9.9,11.3c0.3,0.1,0.3,0.5,0.2,0.7c-0.1,0.3-0.4,0.1-0.5-0.1C9.5,11.7,9.6,11.4,9.9,11.3
				c0.2,0,0.2-0.3,0-0.2c-0.8,0-0.7,1.4,0,1.4c0.7,0,0.6-1.3,0-1.4C9.8,11.1,9.7,11.3,9.9,11.3z"/>
		</g>
	</g>
	<g>
		<path style="fill:#F8F5E3;" d="M13.6,10.5c0.5-0.5,1.2-0.5,1.8-0.3c1,0.3,0.8,1.4,0.7,2.2c-0.1,0.8-1.3,1.1-1.9,0.9
			S12.5,11.6,13.6,10.5z"/>
		<g>
			<path style="fill:none;" d="M13.6,10.5c0.5-0.5,1.2-0.5,1.8-0.3c1,0.3,0.8,1.4,0.7,2.2c-0.1,0.8-1.3,1.1-1.9,0.9
				S12.5,11.6,13.6,10.5z"/>
			<path style="fill:#0A0C0E;" d="M13.7,10.6c0.7-0.6,2.1-0.5,2.4,0.4c0.2,0.6,0,1.6-0.5,2C14.1,14.1,12.6,11.8,13.7,10.6
				c0.1-0.1-0.1-0.3-0.2-0.2c-0.7,0.8-0.6,1.8,0.1,2.6c0.6,0.7,1.6,0.6,2.2,0.1c0.6-0.4,0.7-1.8,0.4-2.4c-0.5-0.9-2-0.9-2.7-0.3
				C13.4,10.5,13.6,10.7,13.7,10.6z"/>
		</g>
	</g>
	<g>
		<path style="fill:#0B0001;" d="M14.8,12.2c-0.5,0-0.6-1.2,0.1-1.1C15.5,11.2,15.3,12.2,14.8,12.2z"/>
		<g>
			<path style="fill:none;" d="M14.8,12.2c-0.5,0-0.6-1.2,0.1-1.1C15.5,11.2,15.3,12.2,14.8,12.2z"/>
			<path style="fill:#0A0C0E;" d="M14.8,12.1c-0.4,0-0.4-0.7-0.1-0.9C15.2,11.1,15.3,12,14.8,12.1c-0.2,0-0.1,0.3,0,0.2
				c0.7-0.1,0.7-1.5-0.1-1.3c-0.7,0.1-0.6,1.3,0.1,1.4C15,12.4,15,12.1,14.8,12.1z"/>
		</g>
	</g>
	<g>
		<path style="fill:#F8F5E3;" d="M8.5,20.4c0.4,0.5,1.8,0.4,2.6,0.5c0.9,0.1,2.1,0.1,3,0.1c0.5,0,1.2-0.3,1.7-0.5
			c0.4-0.1,0.2-1.1,0.2-1.4c-0.2-1.2-0.9-2.6-1.7-3.5c-0.9-1-2.9-0.7-3.9,0.1c-0.5,0.5-1,1.3-1.4,1.9C8.7,18.3,8.1,20,8.5,20.4z"/>
		<g>
			<path style="fill:none;" d="M8.5,20.4c0.4,0.5,1.8,0.4,2.6,0.5c0.9,0.1,2.1,0.1,3,0.1c0.5,0,1.2-0.3,1.7-0.5
				c0.4-0.1,0.2-1.1,0.2-1.4c-0.2-1.2-0.9-2.6-1.7-3.5c-0.9-1-2.9-0.7-3.9,0.1c-0.5,0.5-1,1.3-1.4,1.9C8.7,18.3,8.1,20,8.5,20.4z"/>
			<path style="fill:#0A0C0E;" d="M8.5,20.5c0.7,0.5,1.8,0.4,2.6,0.5c1.3,0,2.6,0.2,3.9-0.2c0.7-0.2,1.1-0.3,1.2-1.1
				c0.1-1.2-0.5-2.5-1.2-3.5c-1-1.7-3.1-1.8-4.6-0.6C9.3,16.4,7.7,19.2,8.5,20.5c0,0.1,0.2,0,0.2-0.2c-0.8-1.3,1.2-4.1,2.1-4.8
				c0.7-0.6,1.8-0.6,2.7-0.4c1.2,0.3,1.9,1.9,2.2,2.9c0.2,0.6,0.6,2-0.3,2.4c-0.8,0.3-1.7,0.4-2.5,0.4c-1.2,0-3.3,0.2-4.2-0.5
				C8.5,20.2,8.3,20.4,8.5,20.5z"/>
		</g>
	</g>
	<g>
		<g>
			<path style="fill:none;" d="M6.5,8.6C6.2,8.3,6.3,7.9,6.3,7.4c-0.4,0-0.5,0.3-0.9,0.2C5.1,7.5,4.9,7.4,4.6,7.2
				C4.9,7.9,4,8,3.7,8.2C4,8.7,3.7,9,3.3,9.3c0.7,0,0.6,0.6,0.6,1c0.2,0,0.5,0.1,0.6,0.2"/>
			<path style="fill:#0A0C0E;" d="M6.6,8.6C6.4,8.2,6.4,7.9,6.4,7.5c0-0.1-0.1-0.2-0.2-0.2c-0.1,0-0.2,0-0.4,0.1
				C5.5,7.6,5.1,7.3,4.7,7.1c-0.1,0-0.2,0-0.2,0.1c0.2,0.6-0.6,0.6-0.9,0.8c-0.1,0-0.1,0.1,0,0.2c0.3,0.5-0.1,0.7-0.3,1
				c-0.1,0.1,0,0.2,0.1,0.2c0.6,0.1,0.5,0.5,0.5,0.9c0,0.1,0.1,0.1,0.1,0.1c0.2,0.1,0.4,0.1,0.5,0.2c0.1,0.1,0.3-0.1,0.2-0.2
				c-0.2-0.1-0.3-0.2-0.5-0.3C3.9,10.2,4,9.9,4,9.8C3.9,9.4,3.7,9.3,3.3,9.2c0,0.1,0.1,0.1,0.1,0.2C3.6,9.2,3.8,9,3.9,8.7
				c0.1-0.4-0.3-0.4,0.2-0.6C4.6,8,4.9,7.7,4.7,7.2c-0.1,0-0.1,0.1-0.2,0.1c0.3,0.2,0.7,0.3,1,0.4c0.3,0,0.5-0.2,0.8-0.2
				C6.3,7.5,6.3,7.5,6.2,7.4C6.1,7.9,6.1,8.3,6.4,8.7C6.5,8.8,6.7,8.7,6.6,8.6L6.6,8.6z"/>
		</g>
	</g>
</g>
</svg>
