<?xml version="1.0" encoding="utf-8"?>
<!-- Generator: Adobe Illustrator 13.0.0, SVG Export Plug-In . SVG Version: 6.00 Build 14948)  -->
<!DOCTYPE svg PUBLIC "-//W3C//DTD SVG 1.1//EN" "http://www.w3.org/Graphics/SVG/1.1/DTD/svg11.dtd">
<svg version="1.1" id="レイヤー_1" xmlns="http://www.w3.org/2000/svg" xmlns:xlink="http://www.w3.org/1999/xlink" x="0px"
	 y="0px" width="22.4px" height="22.4px" viewBox="0 0 22.4 22.4" style="enable-background:new 0 0 22.4 22.4;"
	 xml:space="preserve">
<g>
	<g>
		<path style="fill:#646464;" d="M11.5,22.4c3.1-0.1,6-2.9,6.2-6.9c0.1-3.5-1-6.7-4.7-7.8c-3.1-0.9-9.8,0.2-9.8,6.9
			C3.2,21.8,8.4,22.5,11.5,22.4z"/>
	</g>
	<g>
		<path style="fill:#F8F5E3;" d="M12.9,13.5c0.6-0.1,1.2-0.7,1.2-1.6c0-0.8-0.3-1.4-1.1-1.7c-1.5-0.5-2.4,0.9-1.9,2.3
			C11.6,13.5,12.3,13.6,12.9,13.5z"/>
		<g>
			<path style="fill:none;" d="M12.9,13.5c0.6-0.1,1.2-0.7,1.2-1.6c0-0.8-0.3-1.4-1.1-1.7c-1.5-0.5-2.4,0.9-1.9,2.3
				C11.6,13.5,12.3,13.6,12.9,13.5z"/>
			<path style="fill:#0A0C0E;" d="M13,13.6c1.1-0.2,1.5-1.3,1.3-2.3c-0.2-1-1.3-1.5-2.2-1.3c-0.9,0.2-1.2,1.3-1.1,2.1
				C11.1,13.2,12,13.7,13,13.6c0.1,0,0.1-0.3,0-0.2c-0.7,0.1-1.2-0.1-1.6-0.7c-0.4-0.7-0.2-1.8,0.5-2.2c0.8-0.5,1.8,0.1,2.1,0.9
				c0.3,0.9-0.1,1.9-1.1,2.1C12.8,13.4,12.8,13.6,13,13.6z"/>
		</g>
	</g>
	<g>
		<path style="fill:#0B0001;" d="M12.5,11.2c-0.5,0-0.5,1.3,0.1,1.1C13.1,12.2,13.1,11.2,12.5,11.2z"/>
		<g>
			<path style="fill:none;" d="M12.5,11.2c-0.5,0-0.5,1.3,0.1,1.1C13.1,12.2,13.1,11.2,12.5,11.2z"/>
			<path style="fill:#0A0C0E;" d="M12.5,11.1c-0.5,0.1-0.7,1.4,0,1.4C13.2,12.5,13.4,11.1,12.5,11.1c-0.1,0-0.1,0.2,0,0.2
				c0.8,0,0,1.1-0.2,0.8c-0.2-0.2-0.1-0.8,0.2-0.8C12.7,11.3,12.6,11.1,12.5,11.1z"/>
		</g>
	</g>
	<g>
		<path style="fill:#F8F5E3;" d="M8.8,10.5C8.3,10,7.7,10,7,10.2c-1,0.3-0.8,1.4-0.7,2.2c0.1,0.8,1.3,1.1,1.9,0.9S9.9,11.6,8.8,10.5
			z"/>
		<g>
			<path style="fill:none;" d="M8.8,10.5C8.3,10,7.7,10,7,10.2c-1,0.3-0.8,1.4-0.7,2.2c0.1,0.8,1.3,1.1,1.9,0.9S9.9,11.6,8.8,10.5z"
				/>
			<path style="fill:#0A0C0E;" d="M8.9,10.4c-0.6-0.5-2.1-0.7-2.6,0.2c-0.4,0.7-0.3,2,0.3,2.5c0.6,0.6,1.6,0.6,2.2,0
				C9.5,12.4,9.6,11.2,8.9,10.4c-0.1-0.1-0.3,0.1-0.2,0.2c0.6,0.7,0.5,1.6-0.1,2.3c-0.4,0.5-1.1,0.5-1.7,0.2
				c-0.6-0.3-0.7-1.2-0.6-1.8c0-1.2,1.7-1.3,2.4-0.7C8.9,10.7,9,10.5,8.9,10.4z"/>
		</g>
	</g>
	<g>
		<path style="fill:#0B0001;" d="M7.6,12.2c0.5,0,0.6-1.2-0.1-1.1C7,11.2,7.1,12.2,7.6,12.2z"/>
		<g>
			<path style="fill:none;" d="M7.6,12.2c0.5,0,0.6-1.2-0.1-1.1C7,11.2,7.1,12.2,7.6,12.2z"/>
			<path style="fill:#0A0C0E;" d="M7.6,12.4c0.7,0,0.7-1.2,0.1-1.4C6.9,10.9,6.9,12.2,7.6,12.4c0.1,0,0.2-0.2,0-0.2
				c-0.5-0.1-0.5-1,0-0.9C8,11.3,8,12.1,7.6,12.1C7.5,12.1,7.5,12.4,7.6,12.4z"/>
		</g>
	</g>
	<g>
		<path style="fill:#F8F5E3;" d="M13.9,20.4c-0.4,0.5-1.8,0.4-2.6,0.5c-0.9,0.1-2.1,0.1-3,0.1c-0.5,0-1.2-0.3-1.7-0.5
			c-0.4-0.1-0.2-1.1-0.2-1.4c0.2-1.2,0.9-2.6,1.7-3.5c0.9-1,2.9-0.7,3.9,0.1c0.5,0.5,1,1.3,1.4,1.9C13.8,18.3,14.3,20,13.9,20.4z"/>
		<g>
			<path style="fill:none;" d="M13.9,20.4c-0.4,0.5-1.8,0.4-2.6,0.5c-0.9,0.1-2.1,0.1-3,0.1c-0.5,0-1.2-0.3-1.7-0.5
				c-0.4-0.1-0.2-1.1-0.2-1.4c0.2-1.2,0.9-2.6,1.7-3.5c0.9-1,2.9-0.7,3.9,0.1c0.5,0.5,1,1.3,1.4,1.9C13.8,18.3,14.3,20,13.9,20.4z"
				/>
			<path style="fill:#0A0C0E;" d="M13.8,20.3c-1,0.7-3,0.5-4.2,0.5c-0.9,0-1.7-0.1-2.5-0.4c-0.9-0.4-0.4-1.8-0.3-2.4
				c0.6-2.3,2.6-3.8,4.9-2.5C12.7,16.2,14.5,19.1,13.8,20.3c-0.1,0.2,0.1,0.3,0.2,0.2c0.8-1.4-1-4-1.9-4.9c-1.5-1.4-3.6-0.8-4.7,0.6
				c-0.7,1-2.1,3.8-0.4,4.5c1.3,0.5,2.6,0.4,4,0.3c1-0.1,2.2,0.1,3-0.5C14.1,20.4,14,20.2,13.8,20.3z"/>
		</g>
	</g>
	<g>
		<g>
			<path style="fill:none;" d="M16,8.6c0.3-0.4,0.2-0.8,0.2-1.2c0.4,0,0.5,0.3,0.9,0.2c0.3-0.1,0.6-0.2,0.8-0.4
				c-0.3,0.7,0.6,0.7,0.9,1c-0.4,0.5-0.1,0.7,0.4,1.1c-0.7,0-0.6,0.6-0.6,1c-0.2,0-0.5,0.1-0.6,0.2"/>
			<path style="fill:#0A0C0E;" d="M16.1,8.7c0.3-0.4,0.2-0.8,0.2-1.3c-0.1,0.1-0.1,0.1-0.2,0.2c0.3,0,0.5,0.2,0.8,0.2
				c0.3,0,0.8-0.3,1.1-0.4c-0.1,0-0.1-0.1-0.2-0.1c-0.2,0.5,0.1,0.8,0.6,0.9c0.1,0.1,0.3,0,0.2,0.2c-0.1,0.1-0.1,0.2-0.1,0.4
				c0,0.3,0.4,0.6,0.6,0.7c0-0.1,0.1-0.1,0.1-0.2c-0.4,0-0.6,0.2-0.7,0.6c0,0.1,0,0.5-0.1,0.5c-0.2,0-0.4,0.1-0.6,0.3
				c-0.1,0.1,0.1,0.3,0.2,0.2c0.2-0.1,0.4-0.1,0.5-0.2c0.1,0,0.1-0.1,0.1-0.1c0-0.4-0.1-0.9,0.5-0.9c0.1,0,0.2-0.1,0.1-0.2
				c-0.3-0.2-0.6-0.5-0.3-1c0-0.1,0-0.1,0-0.2c-0.3-0.2-1.1-0.2-0.9-0.8c0-0.1-0.1-0.2-0.2-0.1c-0.3,0.1-0.5,0.2-0.8,0.3
				c-0.2,0.1-0.6-0.1-0.8-0.2c-0.1,0-0.2,0.1-0.2,0.2c0.1,0.4,0.1,0.7-0.2,1.1C15.8,8.7,16,8.8,16.1,8.7L16.1,8.7z"/>
		</g>
	</g>
</g>
</svg>
