<?xml version="1.0" encoding="utf-8"?>
<!-- Generator: Adobe Illustrator 13.0.0, SVG Export Plug-In . SVG Version: 6.00 Build 14948)  -->
<!DOCTYPE svg PUBLIC "-//W3C//DTD SVG 1.1//EN" "http://www.w3.org/Graphics/SVG/1.1/DTD/svg11.dtd">
<svg version="1.1" id="レイヤー_1" xmlns="http://www.w3.org/2000/svg" xmlns:xlink="http://www.w3.org/1999/xlink" x="0px"
	 y="0px" width="22.4px" height="22.4px" viewBox="0 0 22.4 22.4" style="enable-background:new 0 0 22.4 22.4;"
	 xml:space="preserve">
<g>
	<g>
		<path style="fill:#FABCB0;" d="M12.8,22.3c3.2-0.3,5.9-3.4,5.8-7.4c-0.1-3.5-1.5-6.8-5.3-7.7c-3.2-0.7-10,0.8-9.5,7.6
			C4.4,22.2,9.7,22.5,12.8,22.3z"/>
		<g>
			<path style="fill:none;" d="M12.8,22.3c3.2-0.3,5.9-3.4,5.8-7.4c-0.1-3.5-1.5-6.8-5.3-7.7c-3.2-0.7-10,0.8-9.5,7.6
				C4.4,22.2,9.7,22.5,12.8,22.3z"/>
			<path style="fill:#0A0C0E;" d="M12.9,22.4c5.5-0.7,6.8-6.8,5.2-11.3C16.6,7,11.9,6.3,8.3,7.6C3.8,9.2,3,14.1,4.4,18.2
				C5.7,21.8,9.4,22.7,12.9,22.4c0.1,0,0.1-0.3,0-0.2c-2.8,0.2-5.6-0.3-7.4-2.7C2.7,16,3.7,10.4,7.5,8.2c3.2-1.8,7.6-1.2,9.8,1.9
				c2.9,4.2,0.9,11.3-4.5,12C12.6,22.2,12.7,22.4,12.9,22.4z"/>
		</g>
	</g>
	<g>
		<path style="fill:#F8F5E3;" d="M9.8,11.1c2.5,0.9,0.2,4.5-1.3,3.6C6.9,13.8,7.2,10.2,9.8,11.1z"/>
		<g>
			<path style="fill:none;" d="M9.8,11.1c2.5,0.9,0.2,4.5-1.3,3.6C6.9,13.8,7.2,10.2,9.8,11.1z"/>
			<path style="fill:#0A0C0E;" d="M9.8,11.2c2.1,0.9,0.3,4.3-1.3,3.3c-0.7-0.4-0.9-1.5-0.7-2.2C7.9,11.3,8.8,10.9,9.8,11.2
				c0.2,0.1,0.2-0.2,0.1-0.2c-1.1-0.4-2,0-2.3,1.1c-0.3,0.9,0.1,2.1,0.9,2.7c0.9,0.6,1.9-0.4,2.3-1.2c0.6-1.1,0.2-2.2-0.9-2.7
				C9.7,10.9,9.6,11.2,9.8,11.2z"/>
		</g>
	</g>
	<g>
		<path style="fill:#F8F5E3;" d="M5.8,11.5c2.4,0.1,1.6,3.7,0.1,3.4C4.3,14.5,3.5,11.4,5.8,11.5z"/>
		<g>
			<path style="fill:none;" d="M5.8,11.5c2.4,0.1,1.6,3.7,0.1,3.4C4.3,14.5,3.5,11.4,5.8,11.5z"/>
			<path style="fill:#0A0C0E;" d="M5.8,11.7c0.9,0.1,1.4,0.7,1.4,1.6c0,0.6-0.3,1.5-1,1.6C4.5,15,3.6,11.6,5.8,11.7
				c0.2,0,0.2-0.2,0-0.2c-2.4,0-1.6,3.7,0.3,3.6c0.9,0,1.3-1.1,1.3-1.8c0.1-1-0.6-1.7-1.6-1.8C5.6,11.4,5.6,11.6,5.8,11.7z"/>
		</g>
	</g>
	<g>
		<g>
			<path style="fill:none;" d="M13,18.6c-1.5,1-6.3,1.4-7.7,0.5"/>
			<path style="fill:#0A0C0E;" d="M13,18.5c-1.8,1.1-5.7,1.6-7.6,0.5c-0.1-0.1-0.3,0.1-0.1,0.2c2,1.2,5.9,0.7,7.8-0.5
				C13.2,18.6,13.1,18.4,13,18.5L13,18.5z"/>
		</g>
	</g>
	<g>
		<path style="fill:#0B0001;" d="M4.9,14c-0.5,0-0.4-1.2,0.2-1.1C5.8,12.9,5.5,14,4.9,14z"/>
		<g>
			<path style="fill:none;" d="M4.9,14c-0.5,0-0.4-1.2,0.2-1.1C5.8,12.9,5.5,14,4.9,14z"/>
			<path style="fill:#0A0C0E;" d="M4.9,13.9c-0.4,0-0.1-0.7,0-0.8c0.4-0.2,0.4,0.2,0.4,0.4C5.3,13.7,5.2,13.8,4.9,13.9
				c-0.2,0-0.2,0.3,0,0.2C5.6,14,6,12.7,5.2,12.7c-0.7,0-1,1.3-0.2,1.4C5.1,14.1,5.1,13.9,4.9,13.9z"/>
		</g>
	</g>
	<g>
		<path style="fill:#0B0001;" d="M8.1,13.6c-0.5,0-0.4-1.2,0.2-1.1C9,12.5,8.6,13.6,8.1,13.6z"/>
		<g>
			<path style="fill:none;" d="M8.1,13.6c-0.5,0-0.4-1.2,0.2-1.1C9,12.5,8.6,13.6,8.1,13.6z"/>
			<path style="fill:#0A0C0E;" d="M8.1,13.5c-0.4,0-0.1-0.7,0-0.8c0.3-0.2,0.4,0.2,0.4,0.4C8.5,13.3,8.3,13.5,8.1,13.5
				c-0.2,0-0.2,0.3,0,0.2c0.7-0.1,1.1-1.4,0.2-1.4c-0.7,0-1,1.3-0.2,1.4C8.2,13.8,8.2,13.5,8.1,13.5z"/>
		</g>
	</g>
</g>
</svg>
