<?xml version="1.0" encoding="utf-8"?>
<!-- Generator: Adobe Illustrator 13.0.0, SVG Export Plug-In . SVG Version: 6.00 Build 14948)  -->
<!DOCTYPE svg PUBLIC "-//W3C//DTD SVG 1.1//EN" "http://www.w3.org/Graphics/SVG/1.1/DTD/svg11.dtd">
<svg version="1.1" id="レイヤー_1" xmlns="http://www.w3.org/2000/svg" xmlns:xlink="http://www.w3.org/1999/xlink" x="0px"
	 y="0px" width="22.4px" height="22.4px" viewBox="0 0 22.4 22.4" style="enable-background:new 0 0 22.4 22.4;"
	 xml:space="preserve">
<g>
	<g>
		<path style="fill:#FABCB0;" d="M9.6,22.3c-3.2-0.3-5.9-3.4-5.8-7.4c0.1-3.5,1.5-6.8,5.3-7.7c3.2-0.7,10,0.8,9.5,7.6
			C18.1,22.2,12.8,22.5,9.6,22.3z"/>
		<g>
			<path style="fill:none;" d="M9.6,22.3c-3.2-0.3-5.9-3.4-5.8-7.4c0.1-3.5,1.5-6.8,5.3-7.7c3.2-0.7,10,0.8,9.5,7.6
				C18.1,22.2,12.8,22.5,9.6,22.3z"/>
			<path style="fill:#0A0C0E;" d="M9.6,22.2c-5.5-0.8-6.7-7.1-4.8-11.5C6.6,6.7,11.6,6.6,15,8.2c4.1,2,4.3,7.3,2.4,10.9
				C15.8,21.9,12.5,22.4,9.6,22.2c-0.2,0-0.2,0.2,0,0.2c3.4,0.2,7.1-0.7,8.4-4.2c1.5-4.3,0.6-8.8-3.8-10.6c-3.6-1.5-8.3-0.4-9.8,3.5
				c-1.6,4.5-0.3,10.5,5.2,11.3C9.7,22.4,9.8,22.2,9.6,22.2z"/>
		</g>
	</g>
	<g>
		<path style="fill:#F8F5E3;" d="M12.6,11.1c-2.5,0.9-0.2,4.5,1.3,3.6C15.5,13.8,15.2,10.2,12.6,11.1z"/>
		<g>
			<path style="fill:none;" d="M12.6,11.1c-2.5,0.9-0.2,4.5,1.3,3.6C15.5,13.8,15.2,10.2,12.6,11.1z"/>
			<path style="fill:#0A0C0E;" d="M12.6,11c-1.1,0.4-1.5,1.5-1,2.6c0.4,0.8,1.3,1.8,2.3,1.3c0.9-0.5,1.2-1.7,1-2.6
				C14.8,11.1,13.7,10.6,12.6,11c-0.2,0-0.1,0.3,0.1,0.2c0.9-0.3,1.8,0,2,1c0.2,0.8,0,1.7-0.6,2.2c-1.3,1.4-3.9-2.2-1.5-3.2
				C12.8,11.2,12.8,10.9,12.6,11z"/>
		</g>
	</g>
	<g>
		<path style="fill:#F8F5E3;" d="M16.7,11.5c-2.4,0.1-1.6,3.7-0.1,3.4C18.1,14.5,18.9,11.4,16.7,11.5z"/>
		<g>
			<path style="fill:none;" d="M16.7,11.5c-2.4,0.1-1.6,3.7-0.1,3.4C18.1,14.5,18.9,11.4,16.7,11.5z"/>
			<path style="fill:#0A0C0E;" d="M16.7,11.4c-1,0.1-1.6,0.8-1.6,1.8c0,0.8,0.4,1.7,1.3,1.8c1,0.1,1.7-1.1,1.8-1.9
				C18.4,12.1,17.7,11.4,16.7,11.4c-0.2,0-0.2,0.3,0,0.2c2.1,0,1.3,3.2-0.3,3.1c-0.7,0-1-1-1-1.6c0-0.9,0.5-1.5,1.4-1.6
				C16.8,11.6,16.8,11.4,16.7,11.4z"/>
		</g>
	</g>
	<g>
		<g>
			<path style="fill:none;" d="M9.4,18.6c1.5,1,6.3,1.4,7.7,0.5"/>
			<path style="fill:#0A0C0E;" d="M9.4,18.7c1.9,1.2,5.8,1.7,7.8,0.5c0.1-0.1,0-0.3-0.1-0.2c-1.9,1.1-5.8,0.7-7.6-0.5
				C9.3,18.4,9.2,18.6,9.4,18.7L9.4,18.7z"/>
		</g>
	</g>
	<g>
		<path style="fill:#0B0001;" d="M17.5,14c0.5,0,0.4-1.2-0.2-1.1C16.6,12.9,17,14,17.5,14z"/>
		<g>
			<path style="fill:none;" d="M17.5,14c0.5,0,0.4-1.2-0.2-1.1C16.6,12.9,17,14,17.5,14z"/>
			<path style="fill:#0A0C0E;" d="M17.5,14.1c0.7-0.1,0.5-1.3-0.1-1.4C16.4,12.7,16.8,14,17.5,14.1c0.2,0,0.2-0.2,0-0.2
				c-0.3,0-0.7-0.6-0.3-0.9c0.4-0.3,0.8,0.8,0.3,0.9C17.3,13.9,17.3,14.1,17.5,14.1z"/>
		</g>
	</g>
	<g>
		<path style="fill:#0B0001;" d="M14.4,13.6c0.5,0,0.4-1.2-0.2-1.1C13.5,12.5,13.8,13.6,14.4,13.6z"/>
		<g>
			<path style="fill:none;" d="M14.4,13.6c0.5,0,0.4-1.2-0.2-1.1C13.5,12.5,13.8,13.6,14.4,13.6z"/>
			<path style="fill:#0A0C0E;" d="M14.4,13.7c0.7-0.1,0.5-1.3-0.1-1.4C13.3,12.3,13.6,13.7,14.4,13.7c0.2,0,0.2-0.2,0-0.2
				c-0.3,0-0.7-0.7-0.3-0.9c0.5-0.2,0.7,0.8,0.3,0.9C14.2,13.5,14.2,13.8,14.4,13.7z"/>
		</g>
	</g>
</g>
</svg>
