<?xml version="1.0" encoding="utf-8"?>
<!-- Generator: Adobe Illustrator 13.0.0, SVG Export Plug-In . SVG Version: 6.00 Build 14948)  -->
<!DOCTYPE svg PUBLIC "-//W3C//DTD SVG 1.1//EN" "http://www.w3.org/Graphics/SVG/1.1/DTD/svg11.dtd">
<svg version="1.1" id="レイヤー_1" xmlns="http://www.w3.org/2000/svg" xmlns:xlink="http://www.w3.org/1999/xlink" x="0px"
	 y="0px" width="197.3px" height="155.9px" viewBox="0 0 197.3 155.9" style="enable-background:new 0 0 197.3 155.9;"
	 xml:space="preserve">
<g>
	<g>
		<path style="fill:#0C0C0C;" d="M166.5,30.7c-0.5-0.1-0.1-1.2-0.9-0.1l0,0l0,0c3.5-5.7,10.4-10.2,15.3-14.6
			c-1.9-4-4.1-12.7,0.7-15.6c3.5-1.9,13.5,2.8,15,5.8c2.5,4.3-2.2,12.2-6.4,14.2c-4,1.9-10.8-1.5-8.8-4.8"/>
	</g>
	<g>
		<g>
			<path style="fill:#0C0C0C;" d="M33.4,102.2c3.4-2.6,3.8-3.4,7.8-5.6c42.4-27.8,77.5-58.3,117.1-88.8c6.5,7.7,23.7,31.9,23.7,31.9
				s-27.4,19.7-33.2,25.4c-13.5,13-91.4,62.7-91.4,62.7L33.4,102.2z"/>
		</g>
		<g>
			<path style="fill:#0C0C0C;" d="M20.8,145.1L0,155.9c0,0,5.6-14.1,12-19.6L20.8,145.1z"/>
		</g>
		<g>
			<path style="fill:#FFFDE7;" d="M57.2,127.8L21.1,145l-9.1-8.7c0,0,15.1-28.6,21.5-34.1L57.2,127.8z"/>
		</g>
	</g>
</g>
</svg>
