<svg width="156" height="136" xmlns="http://www.w3.org/2000/svg">
 <!-- Created with Method Draw - http://github.com/duopixel/Method-Draw/ -->
 <g>
  <title>background</title>
  <rect fill="none" id="canvas_background" height="138" width="158" y="-1" x="-1"/>
  <g display="none" overflow="visible" y="0" x="0" height="100%" width="100%" id="canvasGrid">
   <rect fill="url(#gridpattern)" stroke-width="0" y="0" x="0" height="100%" width="100%"/>
  </g>
 </g>
 <g>
  <title>Layer 1</title>
  <path id="svg_1" d="m6.75,134.75c0,0 17,-9 24,-17c7,-8 11,-13 10.5,-13.45313c-31.5,-3.54687 -40.5,-33.54687 -40.5,-55.54687c0,-22 19,-48 72,-48c53,0 84,20 82,53c-2,33 -47,53 -74,54c-27,1 -29,16 -41,20c-12,4 -7,3 -33,7z" stroke-width="1.5" stroke="#000" fill="#fff"/>
 </g>
</svg>