<svg width="329" height="329" xmlns="http://www.w3.org/2000/svg">
 <!-- Created with Method Draw - http://github.com/duopixel/Method-Draw/ -->
 <g>
  <title>background</title>
  <rect fill="none" id="canvas_background" height="331" width="331" y="-1" x="-1"/>
 </g>
 <g>
  <title>Layer 1</title>
  <ellipse ry="163.5" rx="163.5" id="svg_4" cy="164.25" cx="164.25" stroke-opacity="null" stroke-width="1.5" stroke="#000" fill="#0d093d"/>
  <path id="svg_3" d="m67.25,90.45495l9.16725,0l2.83275,-8.70885l2.83275,8.70885l9.16725,0l-7.41645,5.38231l2.8329,8.70885l-7.41645,-5.38245l-7.41645,5.38245l2.8329,-8.70885l-7.41645,-5.38231z" stroke-opacity="null" stroke-width="1.5" stroke="#000" fill="#f2e021"/>
  <path id="svg_5" d="m206.25,49.45495l9.16725,0l2.83275,-8.70885l2.83275,8.70885l9.16725,0l-7.41645,5.38231l2.8329,8.70885l-7.41645,-5.38245l-7.41645,5.38245l2.8329,-8.70885l-7.41645,-5.38231z" stroke-opacity="null" stroke-width="1.5" stroke="#000" fill="#f2e021"/>
  <path id="svg_6" d="m102.25,273.45495l9.16725,0l2.83275,-8.70885l2.83275,8.70885l9.16725,0l-7.41645,5.38231l2.8329,8.70885l-7.41645,-5.38245l-7.41645,5.38245l2.8329,-8.70885l-7.41645,-5.38231z" stroke-opacity="null" stroke-width="1.5" stroke="#000" fill="#f2e021"/>
  <path id="svg_7" d="m233.25,249.45495l9.16725,0l2.83275,-8.70885l2.83275,8.70885l9.16725,0l-7.41645,5.38231l2.8329,8.70885l-7.41645,-5.38245l-7.41645,5.38245l2.8329,-8.70885l-7.41645,-5.38231z" stroke-opacity="null" stroke-width="1.5" stroke="#000" fill="#f2e021"/>
  <path id="svg_8" d="m120.25,169.45495l9.16725,0l2.83275,-8.70885l2.83275,8.70885l9.16725,0l-7.41645,5.38231l2.8329,8.70885l-7.41645,-5.38245l-7.41645,5.38245l2.8329,-8.70885l-7.41645,-5.38231z" stroke-opacity="null" stroke-width="1.5" stroke="#000" fill="#f2e021"/>
  <path id="svg_9" d="m147.25,166.45495l9.16725,0l2.83275,-8.70885l2.83275,8.70885l9.16725,0l-7.41645,5.38231l2.8329,8.70885l-7.41645,-5.38245l-7.41645,5.38245l2.8329,-8.70885l-7.41645,-5.38231z" stroke-opacity="null" stroke-width="1.5" stroke="#000" fill="#f2e021"/>
  <path id="svg_10" d="m177.25,162.45495l9.16725,0l2.83275,-8.70885l2.83275,8.70885l9.16725,0l-7.41645,5.38231l2.8329,8.70885l-7.41645,-5.38245l-7.41645,5.38245l2.8329,-8.70885l-7.41645,-5.38231z" stroke-opacity="null" stroke-width="1.5" stroke="#000" fill="#f2e021"/>
 </g>
</svg>