<?xml version="1.0" encoding="utf-8"?>
<!-- Generator: Adobe Illustrator 13.0.0, SVG Export Plug-In . SVG Version: 6.00 Build 14948)  -->
<!DOCTYPE svg PUBLIC "-//W3C//DTD SVG 1.1//EN" "http://www.w3.org/Graphics/SVG/1.1/DTD/svg11.dtd">
<svg version="1.1" id="レイヤー_1" xmlns="http://www.w3.org/2000/svg" xmlns:xlink="http://www.w3.org/1999/xlink" x="0px"
	 y="0px" width="89.3px" height="71.5px" viewBox="0 0 89.3 71.5" style="enable-background:new 0 0 89.3 71.5;"
	 xml:space="preserve">
<g>
	<g id="trust_10_">
		<path style="fill:#00C6E9;" d="M36.1,68.6c-2.4-0.6-4.5-0.2-6.9,0c-3.1,0.2-4.7-1-7.4-2.5c-4.7-2.9-9.6-4.7-13-9.4
			c-1.6-2.4-4.2-4.1-5.5-6.7c-1.1-2.5-1.1-5.5-1.7-8.1c-1.2-4.9-2.5-10-1-15c0.8-2.7,1.1-5.1,2.4-7.7c1.1-2.4,2.8-4.4,4.5-6.5
			c3.6-4.1,7.7-8.6,13.1-10.1C29.9-0.1,43.9-2.1,52.5,4c4.1,2.9,8.6,7.1,11.2,11.5c2.6,4.4,3.5,9.5,4.4,14.3
			c1.7,9.6-1.5,20.2-8.4,27.6c-3.2,3.5-6.7,5.9-10.7,8.4c-2,1.2-4.2,2.1-6.6,2.7C41.1,68.9,37.9,68.7,36.1,68.6z"/>
	</g>
	<polygon style="fill:#FFFDE7;" points="11.9,39.8 51.9,43.1 50.6,46.6 10.3,40.8 	"/>
	<g>
		<polygon style="fill:#5C0146;" points="15.8,32.2 13.9,34.7 11.5,33.7 4.5,38.6 11.8,36.3 5.9,43.8 8.1,45.4 14.5,39 13.9,43.3 
			19.2,36 15.8,35.2 17.3,33.5 		"/>
		<polygon style="fill:#50024E;" points="13.2,32.7 17.8,34.6 25.5,29.4 14.3,25.2 		"/>
		<polygon style="fill:#FF4ADC;" points="14,26.9 13.8,28.8 22.9,31.2 24.2,30.3 		"/>
		<polygon style="fill:#FF98F4;" points="16.8,29 17.4,28.5 18.3,28.6 18.6,29.1 18.3,29.7 17.4,29.6 		"/>
		<polygon style="fill:#FE99F7;" points="20.6,30.1 21.2,29.6 22.1,29.7 22.4,30.2 22.1,30.8 21.2,30.7 		"/>
	</g>
	<g>
		<polygon style="fill:#5C0146;" points="57.3,28 51.2,36 43.1,32.9 19.9,49.1 44.1,41.4 24.7,66.2 31.8,71.5 53,50.4 51.2,64.6 
			68.5,40.5 57.2,37.9 62.2,32.1 		"/>
		<polygon style="fill:#50024E;" points="48.7,29.4 64,35.9 89.3,18.8 52.4,4.8 		"/>
		<polygon style="fill:#FF4ADC;" points="51.4,10.4 50.7,16.6 80.6,24.5 84.9,21.7 		"/>
		<polygon style="fill:#FF98F4;" points="60.7,17.3 62.6,15.6 65.6,16.1 66.6,17.8 65.5,19.7 62.5,19.4 		"/>
		<polygon style="fill:#FE99F7;" points="73.2,20.9 75.1,19.2 78.1,19.7 79.1,21.4 78,23.3 75,23 		"/>
	</g>
</g>
</svg>
